<?xml version="1.0" encoding="UTF-8" standalone="yes"?>
<svg version="1.1" xmlns="http://www.w3.org/2000/svg" xmlns:xlink="http://www.w3.org/1999/xlink" x="0px" y="0px" viewBox="0 0 512 512" enable-background="new 0 0 512 512" xml:space="preserve">
  <g id="bounds" display="none"><rect display="inline" fill="none" width="512" height="512"/></g><g id="Layer_2">
    <path style=" stroke:none;fill-rule:nonzero;fill:rgb(0%,0%,0%);fill-opacity:1;" d="M 277.332031 447.996094 L 277.332031 115.492188 L 390.25 228.410156 C 398.582031 236.742188 412.085938 236.742188 420.414062 228.410156 C 428.746094 220.078125 428.746094 206.570312 420.414062 198.238281 L 271.082031 48.90625 C 262.753906 40.574219 249.242188 40.574219 240.917969 48.90625 L 91.585938 198.238281 C 87.417969 202.40625 85.332031 207.863281 85.332031 213.328125 C 85.332031 218.785156 87.417969 224.246094 91.585938 228.410156 C 99.914062 236.742188 113.425781 236.742188 121.75 228.410156 L 234.667969 115.492188 L 234.667969 447.996094 C 234.667969 459.777344 244.21875 469.328125 256 469.328125 C 267.78125 469.328125 277.332031 459.777344 277.332031 447.996094 Z M 277.332031 447.996094 "/>
  </g>
</svg>
