<?xml version="1.0" encoding="UTF-8" standalone="yes"?>
<svg version="1.1" xmlns="http://www.w3.org/2000/svg" xmlns:xlink="http://www.w3.org/1999/xlink" x="0px" y="0px" viewBox="0 0 512 512" enable-background="new 0 0 512 512" xml:space="preserve">
  <g id="bounds" display="none"><rect display="inline" fill="none" width="512" height="512"/></g><g id="Layer_2">
    <path style=" stroke:none;fill-rule:nonzero;fill:rgb(0%,0%,0%);fill-opacity:1;" d="M 234.667969 64 L 234.667969 396.5 L 121.75 283.585938 C 113.417969 275.253906 99.914062 275.253906 91.585938 283.585938 C 83.253906 291.914062 83.253906 305.425781 91.585938 313.753906 L 240.917969 463.089844 C 249.246094 471.417969 262.757812 471.417969 271.082031 463.089844 L 420.414062 313.753906 C 424.582031 309.589844 426.667969 304.128906 426.667969 298.667969 C 426.667969 293.210938 424.582031 287.75 420.414062 283.585938 C 412.085938 275.253906 398.574219 275.253906 390.25 283.585938 L 277.332031 396.5 L 277.332031 64 C 277.332031 52.222656 267.78125 42.667969 256 42.667969 C 244.21875 42.667969 234.667969 52.21875 234.667969 64 Z M 234.667969 64 "/>
  </g>
</svg>