<?xml version="1.0" encoding="UTF-8" standalone="yes"?>
<svg version="1.1" xmlns="http://www.w3.org/2000/svg" xmlns:xlink="http://www.w3.org/1999/xlink" x="0px" y="0px" viewBox="0 0 512 512" enable-background="new 0 0 512 512" xml:space="preserve">
  <g id="bounds" display="none"><rect display="inline" fill="none" width="512" height="512"/></g><g id="Layer_2">
    <path style=" stroke:none;fill-rule:nonzero;fill:rgb(0%,0%,0%);fill-opacity:1;" d="M 64 277.332031 L 396.5 277.332031 L 283.585938 390.25 C 275.253906 398.582031 275.253906 412.085938 283.585938 420.414062 C 291.914062 428.746094 305.425781 428.746094 313.753906 420.414062 L 463.089844 271.082031 C 471.417969 262.753906 471.417969 249.242188 463.089844 240.917969 L 313.753906 91.585938 C 309.589844 87.417969 304.128906 85.332031 298.667969 85.332031 C 293.210938 85.332031 287.75 87.417969 283.585938 91.585938 C 275.253906 99.914062 275.253906 113.425781 283.585938 121.75 L 396.5 234.667969 L 64 234.667969 C 52.21875 234.667969 42.667969 244.21875 42.667969 256 C 42.667969 267.78125 52.21875 277.332031 64 277.332031 Z M 64 277.332031 "/>
  </g>
</svg>
