<?xml version="1.0" encoding="UTF-8" standalone="yes"?>
<svg version="1.1" xmlns="http://www.w3.org/2000/svg" xmlns:xlink="http://www.w3.org/1999/xlink" x="0px" y="0px" viewBox="0 0 512 512" enable-background="new 0 0 512 512" xml:space="preserve">
  <g id="bounds" display="none"><rect display="inline" fill="none" width="512" height="512"/></g><g id="Layer_2">
    <path style=" stroke:none;fill-rule:nonzero;fill:rgb(0%,0%,0%);fill-opacity:1;" d="M 447.996094 234.660156 L 115.5 234.660156 L 228.414062 121.742188 C 236.746094 113.414062 236.742188 99.910156 228.414062 91.574219 C 220.085938 83.242188 206.582031 83.242188 198.246094 91.574219 L 48.910156 240.90625 C 40.582031 249.238281 40.582031 262.746094 48.90625 271.070312 L 198.238281 420.40625 C 202.40625 424.570312 207.867188 426.65625 213.328125 426.65625 C 218.785156 426.65625 224.246094 424.570312 228.414062 420.398438 C 236.746094 412.074219 236.742188 398.566406 228.414062 390.238281 L 115.492188 277.328125 L 447.996094 277.328125 C 459.777344 277.328125 469.332031 267.769531 469.328125 255.996094 C 469.328125 244.214844 459.777344 234.660156 447.996094 234.660156 Z M 447.996094 234.660156 "/>
  </g>
</svg>