<?xml version="1.0" encoding="UTF-8" standalone="yes"?>
<svg version="1.1" xmlns="http://www.w3.org/2000/svg" xmlns:xlink="http://www.w3.org/1999/xlink" x="0px" y="0px" viewBox="0 0 512 512" enable-background="new 0 0 512 512" xml:space="preserve">
  <g id="bounds" display="none"><rect display="inline" fill="none" width="512" height="512"/></g><g id="Layer_2">
    <path style=" stroke:none;fill-rule:nonzero;fill:rgb(0%,0%,0%);fill-opacity:1;" d="M 256 21.332031 C 126.398438 21.332031 21.332031 126.398438 21.332031 256 C 21.332031 385.605469 126.398438 490.667969 256 490.667969 C 385.605469 490.667969 490.667969 385.605469 490.667969 256 C 490.667969 126.398438 385.605469 21.332031 256 21.332031 Z M 64 256 C 64 210.667969 79.75 169.03125 106.019531 136.191406 L 375.8125 405.980469 C 342.96875 432.25 301.332031 448 256 448 C 149.960938 448 64 362.039062 64 256 Z M 405.980469 375.8125 L 136.191406 106.019531 C 169.03125 79.75 210.667969 64 256 64 C 362.039062 64 448 149.960938 448 256 C 448 301.332031 432.25 342.96875 405.980469 375.8125 Z M 405.980469 375.8125 "/>
  </g>
</svg>