<?xml version="1.0" encoding="UTF-8" standalone="yes"?>
<svg version="1.1" xmlns="http://www.w3.org/2000/svg" xmlns:xlink="http://www.w3.org/1999/xlink" x="0px" y="0px" viewBox="0 0 512 512" enable-background="new 0 0 512 512" xml:space="preserve">
  <g id="bounds" display="none"><rect display="inline" fill="none" width="512" height="512"/></g><g id="Layer_2">
    <path style=" stroke:none;fill-rule:nonzero;fill:rgb(0%,0%,0%);fill-opacity:1;" d="M 106.667969 21.332031 C 71.308594 21.332031 42.667969 49.972656 42.667969 85.332031 L 42.667969 426.667969 C 42.667969 462.027344 71.308594 490.667969 106.667969 490.667969 L 448 490.667969 L 448 21.332031 Z M 405.332031 448 L 106.667969 448 C 94.886719 448 85.332031 438.449219 85.332031 426.667969 C 85.332031 414.886719 94.886719 405.332031 106.667969 405.332031 L 405.332031 405.332031 Z M 405.332031 362.667969 L 106.667969 362.667969 C 99.171875 362.667969 92.015625 364.019531 85.332031 366.382812 L 85.332031 85.332031 C 85.332031 73.546875 94.878906 64 106.667969 64 L 405.332031 64 Z M 405.332031 362.667969 "/>
  </g>
</svg>