<?xml version="1.0" encoding="UTF-8" standalone="yes"?>
<svg version="1.1" xmlns="http://www.w3.org/2000/svg" xmlns:xlink="http://www.w3.org/1999/xlink" x="0px" y="0px" viewBox="0 0 512 512" enable-background="new 0 0 512 512" xml:space="preserve">
  <g id="bounds" display="none"><rect display="inline" fill="none" width="512" height="512"/></g><g id="Layer_2">
    <path style=" stroke:none;fill-rule:nonzero;fill:rgb(0%,0%,0%);fill-opacity:1;" d="M 448 106.660156 L 384 106.660156 L 341.332031 42.667969 L 170.667969 42.667969 L 128 106.667969 L 64 106.667969 C 28.640625 106.667969 0 135.648438 0 170.996094 L 0 405.332031 C 0 440.691406 28.640625 469.332031 64 469.332031 L 448 469.332031 C 483.359375 469.332031 512 441.019531 512 405.664062 L 512 171.328125 C 512 135.96875 483.359375 106.660156 448 106.660156 Z M 469.332031 405.664062 C 469.332031 417.457031 459.960938 426.667969 448 426.667969 L 64 426.667969 C 52.234375 426.667969 42.667969 417.097656 42.667969 405.332031 L 42.667969 170.996094 C 42.667969 159.054688 52.234375 149.332031 64 149.332031 L 150.832031 149.332031 L 193.5 85.332031 L 319.246094 85.332031 L 361.164062 149.332031 L 448 149.332031 C 459.5625 149.332031 469.332031 159.40625 469.332031 171.332031 Z M 256 170.667969 C 197.089844 170.667969 149.332031 218.425781 149.332031 277.332031 C 149.332031 336.238281 197.09375 384 256 384 C 314.910156 384 362.667969 336.246094 362.667969 277.332031 C 362.667969 218.421875 314.910156 170.667969 256 170.667969 Z M 256 341.332031 C 220.710938 341.332031 192 312.625 192 277.332031 C 192 242.042969 220.703125 213.332031 256 213.332031 C 291.289062 213.332031 320 242.042969 320 277.332031 C 320 312.625 291.285156 341.332031 256 341.332031 Z M 256 341.332031 "/>
  </g>
</svg>