<?xml version="1.0" encoding="UTF-8" standalone="yes"?>
<svg version="1.1" xmlns="http://www.w3.org/2000/svg" xmlns:xlink="http://www.w3.org/1999/xlink" x="0px" y="0px" viewBox="0 0 512 512" enable-background="new 0 0 512 512" xml:space="preserve">
  <g id="bounds" display="none"><rect display="inline" fill="none" width="512" height="512"/></g><g id="Layer_2">
    <path style=" stroke:none;fill-rule:nonzero;fill:rgb(0%,0%,0%);fill-opacity:1;" d="M 256 21.332031 C 126.394531 21.332031 21.332031 126.398438 21.332031 256 C 21.332031 385.605469 126.394531 490.667969 256 490.667969 C 385.605469 490.667969 490.667969 385.605469 490.667969 256 C 490.667969 126.398438 385.605469 21.332031 256 21.332031 Z M 256 448 C 149.960938 448 64 362.042969 64 256 C 64 149.960938 149.960938 64 256 64 C 362.039062 64 448 149.960938 448 256 C 448 362.042969 362.039062 448 256 448 Z M 335.082031 304.917969 C 343.414062 313.246094 343.414062 326.757812 335.082031 335.089844 C 330.921875 339.246094 325.457031 341.332031 320 341.332031 C 314.542969 341.339844 309.082031 339.253906 304.917969 335.089844 L 240.917969 271.089844 C 236.917969 267.089844 234.667969 261.664062 234.667969 256 L 234.667969 128 C 234.667969 116.21875 244.21875 106.667969 256 106.667969 C 267.78125 106.667969 277.332031 116.21875 277.332031 128 L 277.332031 247.167969 Z M 335.082031 304.917969 "/>
  </g>
</svg>