<?xml version="1.0" encoding="UTF-8" standalone="yes"?>
<svg version="1.1" xmlns="http://www.w3.org/2000/svg" xmlns:xlink="http://www.w3.org/1999/xlink" x="0px" y="0px" viewBox="0 0 512 512" enable-background="new 0 0 512 512" xml:space="preserve">
  <g id="bounds" display="none"><rect display="inline" fill="none" width="512" height="512"/></g><g id="Layer_2">
    <path style=" stroke:none;fill-rule:nonzero;fill:rgb(0%,0%,0%);fill-opacity:1;" d="M 286.171875 256 L 420.414062 121.75 C 428.746094 113.417969 428.746094 99.910156 420.414062 91.585938 C 412.085938 83.253906 398.582031 83.253906 390.25 91.585938 L 256 225.828125 L 121.753906 91.585938 C 113.425781 83.253906 99.914062 83.253906 91.585938 91.585938 C 83.253906 99.914062 83.253906 113.425781 91.585938 121.75 L 225.835938 256 L 91.585938 390.25 C 83.253906 398.582031 83.253906 412.089844 91.585938 420.414062 C 95.75 424.582031 101.210938 426.667969 106.667969 426.667969 C 112.121094 426.667969 117.589844 424.582031 121.753906 420.414062 L 256 286.171875 L 390.25 420.414062 C 394.414062 424.582031 399.878906 426.667969 405.332031 426.667969 C 410.789062 426.667969 416.257812 424.582031 420.414062 420.414062 C 428.746094 412.085938 428.746094 398.574219 420.414062 390.25 Z M 286.171875 256 "/>
  </g>
</svg>