<?xml version="1.0" encoding="UTF-8" standalone="yes"?>
<svg version="1.1" xmlns="http://www.w3.org/2000/svg" xmlns:xlink="http://www.w3.org/1999/xlink" x="0px" y="0px" viewBox="0 0 512 512" enable-background="new 0 0 512 512" xml:space="preserve">
  <g id="bounds" display="none"><rect display="inline" fill="none" width="512" height="512"/></g><g id="Layer_2">
    <path style=" stroke:none;fill-rule:nonzero;fill:rgb(0%,0%,0%);fill-opacity:1;" d="M 256 21.332031 C 126.398438 21.332031 21.332031 126.398438 21.332031 256 C 21.332031 385.605469 126.398438 490.667969 256 490.667969 C 385.605469 490.667969 490.667969 385.605469 490.667969 256 C 490.667969 126.398438 385.605469 21.332031 256 21.332031 Z M 256 448 C 149.960938 448 64 362.039062 64 256 C 64 149.960938 149.960938 64 256 64 C 362.039062 64 448 149.960938 448 256 C 448 362.039062 362.039062 448 256 448 Z M 256 170.667969 C 208.875 170.667969 170.667969 208.875 170.667969 256 C 170.667969 303.128906 208.875 341.332031 256 341.332031 C 303.128906 341.332031 341.332031 303.128906 341.332031 256 C 341.332031 208.875 303.128906 170.667969 256 170.667969 Z M 256 298.667969 C 232.4375 298.667969 213.332031 279.5625 213.332031 256 C 213.332031 232.4375 232.4375 213.332031 256 213.332031 C 279.5625 213.332031 298.667969 232.4375 298.667969 256 C 298.667969 279.5625 279.5625 298.667969 256 298.667969 Z M 256 298.667969 "/>
  </g>
</svg>