<?xml version="1.0" encoding="UTF-8" standalone="yes"?>
<svg version="1.1" xmlns="http://www.w3.org/2000/svg" xmlns:xlink="http://www.w3.org/1999/xlink" x="0px" y="0px" viewBox="0 0 512 512" enable-background="new 0 0 512 512" xml:space="preserve">
  <g id="bounds" display="none"><rect display="inline" fill="none" width="512" height="512"/></g><g id="Layer_2">
    <path style=" stroke:none;fill-rule:nonzero;fill:rgb(0%,0%,0%);fill-opacity:1;" d="M 469.332031 149.332031 L 469.332031 448 C 469.332031 483.347656 440.683594 512 405.332031 512 L 106.667969 512 C 71.316406 512 42.667969 483.347656 42.667969 448 L 42.667969 149.332031 C 42.667969 113.984375 71.316406 85.332031 106.667969 85.332031 L 192 85.332031 L 192 128 L 106.667969 128 C 94.886719 128 85.332031 137.550781 85.332031 149.332031 L 85.332031 448 C 85.332031 459.78125 94.886719 469.332031 106.667969 469.332031 L 405.332031 469.332031 C 417.113281 469.332031 426.667969 459.78125 426.667969 448 L 426.667969 149.332031 C 426.667969 137.550781 417.113281 128 405.332031 128 L 320 128 L 320 85.332031 L 405.332031 85.332031 C 440.683594 85.332031 469.332031 113.984375 469.332031 149.332031 Z M 356.414062 240.917969 C 348.085938 232.585938 334.574219 232.585938 326.25 240.917969 L 277.332031 289.828125 L 277.332031 21.332031 C 277.332031 9.550781 267.78125 0 256 0 C 244.21875 0 234.667969 9.550781 234.667969 21.332031 L 234.667969 289.828125 L 185.75 240.917969 C 177.417969 232.585938 163.910156 232.585938 155.585938 240.917969 C 147.253906 249.246094 147.253906 262.757812 155.585938 271.082031 L 240.917969 356.414062 C 244.917969 360.414062 250.339844 362.667969 256 362.667969 C 261.660156 362.667969 267.082031 360.414062 271.082031 356.414062 L 356.414062 271.082031 C 364.753906 262.757812 364.753906 249.242188 356.414062 240.917969 Z M 356.414062 240.917969 "/>
  </g>
</svg>