<?xml version="1.0" encoding="UTF-8" standalone="yes"?>
<svg version="1.1" xmlns="http://www.w3.org/2000/svg" xmlns:xlink="http://www.w3.org/1999/xlink" x="0px" y="0px" viewBox="0 0 512 512" enable-background="new 0 0 512 512" xml:space="preserve">
  <g id="bounds" display="none"><rect display="inline" fill="none" width="512" height="512"/></g><g id="Layer_2">
    <path style=" stroke:none;fill-rule:nonzero;fill:rgb(0%,0%,0%);fill-opacity:1;" d="M 85.332031 192 C 49.988281 192 21.332031 220.65625 21.332031 256 C 21.332031 291.34375 49.988281 320 85.332031 320 C 120.675781 320 149.332031 291.34375 149.332031 256 C 149.332031 220.65625 120.675781 192 85.332031 192 Z M 85.332031 277.332031 C 73.550781 277.332031 64 267.78125 64 256 C 64 244.21875 73.550781 234.667969 85.332031 234.667969 C 97.113281 234.667969 106.667969 244.21875 106.667969 256 C 106.667969 267.78125 97.113281 277.332031 85.332031 277.332031 Z M 256 192 C 220.65625 192 192 220.65625 192 256 C 192 291.34375 220.65625 320 256 320 C 291.34375 320 320 291.34375 320 256 C 320 220.65625 291.34375 192 256 192 Z M 256 277.332031 C 244.21875 277.332031 234.667969 267.78125 234.667969 256 C 234.667969 244.21875 244.21875 234.667969 256 234.667969 C 267.78125 234.667969 277.332031 244.21875 277.332031 256 C 277.332031 267.78125 267.78125 277.332031 256 277.332031 Z M 426.667969 192 C 391.324219 192 362.667969 220.65625 362.667969 256 C 362.667969 291.34375 391.324219 320 426.667969 320 C 462.011719 320 490.667969 291.34375 490.667969 256 C 490.667969 220.65625 462.011719 192 426.667969 192 Z M 426.667969 277.332031 C 414.886719 277.332031 405.332031 267.78125 405.332031 256 C 405.332031 244.21875 414.886719 234.667969 426.667969 234.667969 C 438.449219 234.667969 448 244.21875 448 256 C 448 267.78125 438.449219 277.332031 426.667969 277.332031 Z M 426.667969 277.332031 "/>
  </g>
</svg>