<?xml version="1.0" encoding="UTF-8" standalone="yes"?>
<svg version="1.1" xmlns="http://www.w3.org/2000/svg" xmlns:xlink="http://www.w3.org/1999/xlink" x="0px" y="0px" viewBox="0 0 512 512" enable-background="new 0 0 512 512" xml:space="preserve">
  <g id="bounds" display="none"><rect display="inline" fill="none" width="512" height="512"/></g><g id="Layer_2">
    <path style=" stroke:none;fill-rule:nonzero;fill:rgb(0%,0%,0%);fill-opacity:1;" d="M 219.578125 420.421875 C 211.246094 412.089844 211.246094 398.582031 219.578125 390.25 L 353.828125 256 L 219.578125 121.753906 C 211.246094 113.425781 211.246094 99.914062 219.578125 91.585938 C 227.910156 83.253906 241.417969 83.253906 249.75 91.585938 L 399.082031 240.917969 C 407.414062 249.246094 407.414062 262.757812 399.082031 271.09375 L 249.75 420.425781 C 245.585938 424.585938 240.121094 426.667969 234.667969 426.667969 C 229.210938 426.667969 223.742188 424.585938 219.578125 420.421875 Z M 106.667969 426.667969 C 112.121094 426.667969 117.585938 424.585938 121.75 420.421875 L 271.082031 271.089844 C 279.414062 262.757812 279.414062 249.246094 271.082031 240.910156 L 121.75 91.578125 C 113.417969 83.246094 99.910156 83.246094 91.578125 91.578125 C 83.246094 99.910156 83.246094 113.417969 91.578125 121.75 L 225.828125 256 L 91.585938 390.25 C 83.253906 398.582031 83.253906 412.089844 91.585938 420.421875 C 95.742188 424.585938 101.210938 426.667969 106.667969 426.667969 Z M 106.667969 426.667969 "/>
  </g>
</svg>