<?xml version="1.0" encoding="UTF-8" standalone="yes"?>
<svg version="1.1" xmlns="http://www.w3.org/2000/svg" xmlns:xlink="http://www.w3.org/1999/xlink" x="0px" y="0px" viewBox="0 0 512 512" enable-background="new 0 0 512 512" xml:space="preserve">
  <g id="bounds" display="none"><rect display="inline" fill="none" width="512" height="512"/></g><g id="Layer_2">
    <path style=" stroke:none;fill-rule:nonzero;fill:rgb(0%,0%,0%);fill-opacity:1;" d="M 469.332031 149.332031 L 469.332031 448 C 469.332031 483.34375 440.675781 512 405.332031 512 L 106.667969 512 C 71.324219 512 42.667969 483.34375 42.667969 448 L 42.667969 64 C 42.667969 28.65625 71.324219 0 106.667969 0 L 320 0 Z M 320 149.332031 L 408.996094 149.332031 L 320 60.335938 Z M 426.667969 448 L 426.667969 192 L 277.332031 192 L 277.332031 42.667969 L 106.667969 42.667969 C 98.980469 42.667969 93.914062 46.582031 91.578125 48.910156 C 89.246094 51.246094 85.332031 56.316406 85.332031 64 L 85.332031 448 C 85.332031 455.683594 89.246094 460.753906 91.578125 463.082031 C 93.914062 465.417969 98.980469 469.332031 106.667969 469.332031 L 405.332031 469.332031 C 413.019531 469.332031 418.085938 465.417969 420.414062 463.082031 C 422.746094 460.746094 426.667969 455.683594 426.667969 448 Z M 426.667969 448 "/>
  </g>
</svg>