<?xml version="1.0" encoding="UTF-8" standalone="yes"?>
<svg version="1.1" xmlns="http://www.w3.org/2000/svg" xmlns:xlink="http://www.w3.org/1999/xlink" x="0px" y="0px" viewBox="0 0 512 512" enable-background="new 0 0 512 512" xml:space="preserve">
  <g id="bounds" display="none"><rect display="inline" fill="none" width="512" height="512"/></g><g id="Layer_2">
    <path style=" stroke:none;fill-rule:nonzero;fill:rgb(0%,0%,0%);fill-opacity:1;" d="M 199.542969 130.335938 L 211.828125 149.332031 L 426.667969 149.332031 C 438.433594 149.332031 448 158.902344 448 170.667969 L 448 405.332031 C 448 417.097656 438.433594 426.667969 426.667969 426.667969 L 85.332031 426.667969 C 73.566406 426.667969 64 417.097656 64 405.332031 L 64 106.667969 C 64 94.902344 73.566406 85.332031 85.332031 85.332031 L 170.667969 85.332031 Z M 192 42.667969 L 85.332031 42.667969 C 49.972656 42.667969 21.332031 71.308594 21.332031 106.667969 L 21.332031 405.332031 C 21.332031 440.691406 49.972656 469.332031 85.332031 469.332031 L 426.667969 469.332031 C 462.027344 469.332031 490.667969 440.691406 490.667969 405.332031 L 490.667969 170.667969 C 490.667969 135.308594 462.027344 106.667969 426.667969 106.667969 L 234.667969 106.667969 Z M 192 42.667969 "/>
  </g>
</svg>