<?xml version="1.0" encoding="UTF-8" standalone="yes"?>
<svg version="1.1" xmlns="http://www.w3.org/2000/svg" xmlns:xlink="http://www.w3.org/1999/xlink" x="0px" y="0px" viewBox="0 0 512 512" enable-background="new 0 0 512 512" xml:space="preserve">
  <g id="bounds" display="none"><rect display="inline" fill="none" width="512" height="512"/></g><g id="Layer_2">
    <path style=" stroke:none;fill-rule:nonzero;fill:rgb(0%,0%,0%);fill-opacity:1;" d="M 265.007812 21.488281 C 262.027344 21.386719 259.039062 21.332031 256 21.332031 C 252.960938 21.332031 249.972656 21.386719 246.992188 21.488281 C 121.546875 26.238281 21.332031 129.441406 21.332031 256 C 21.332031 382.558594 121.546875 485.761719 246.992188 490.511719 C 249.972656 490.613281 252.960938 490.667969 256 490.667969 C 259.039062 490.667969 262.027344 490.613281 265.007812 490.511719 C 390.453125 485.761719 490.667969 382.558594 490.667969 256 C 490.667969 129.441406 390.453125 26.238281 265.007812 21.488281 Z M 446.773438 234.667969 L 361.921875 234.667969 C 357.066406 163.199219 328.476562 106.1875 304.640625 70.1875 C 380.425781 90.027344 438.027344 154.992188 446.773438 234.667969 Z M 256.054688 75.625 C 277.007812 102.933594 313.121094 159.894531 319.148438 234.667969 L 192.851562 234.667969 C 198.878906 160.214844 235.09375 103.039062 256.054688 75.625 Z M 319.148438 277.332031 C 313.121094 351.785156 276.960938 408.960938 255.945312 436.375 C 234.992188 409.066406 198.878906 352.105469 192.851562 277.332031 Z M 207.359375 70.1875 C 183.519531 106.1875 154.933594 163.199219 150.085938 234.667969 L 65.226562 234.667969 C 73.972656 154.992188 131.574219 90.027344 207.359375 70.1875 Z M 65.226562 277.332031 L 150.078125 277.332031 C 154.933594 348.753906 183.464844 405.761719 207.308594 441.761719 C 131.519531 421.972656 73.972656 357.007812 65.226562 277.332031 Z M 304.691406 441.761719 C 328.535156 405.761719 357.066406 348.753906 361.914062 277.332031 L 446.769531 277.332031 C 438.027344 357.007812 380.480469 421.972656 304.691406 441.761719 Z M 304.691406 441.761719 "/>
  </g>
</svg>