<?xml version="1.0" encoding="UTF-8" standalone="yes"?>
<svg version="1.1" xmlns="http://www.w3.org/2000/svg" xmlns:xlink="http://www.w3.org/1999/xlink" x="0px" y="0px" viewBox="0 0 512 512" enable-background="new 0 0 512 512" xml:space="preserve">
  <g id="bounds" display="none"><rect display="inline" fill="none" width="512" height="512"/></g><g id="Layer_2">
    <path style=" stroke:none;fill-rule:nonzero;fill:rgb(0%,0%,0%);fill-opacity:1;" d="M 344.910156 284.03125 C 369.003906 260.761719 384 228.132812 384 192 L 384 128 C 384 57.308594 326.691406 0 256 0 C 185.308594 0 128 57.308594 128 128 L 128 192 C 128 228.121094 142.996094 260.742188 167.070312 284.015625 C 69.53125 299.210938 0 338.601562 0 384.5 L 0 426.667969 C 0 462.027344 28.640625 490.667969 64 490.667969 L 448 490.667969 C 483.359375 490.667969 512 462.027344 512 426.667969 L 512 384.667969 C 512 338.773438 442.464844 299.257812 344.910156 284.03125 Z M 170.667969 192 L 170.667969 128 C 170.667969 80.875 208.875 42.667969 256 42.667969 C 303.128906 42.667969 341.332031 80.875 341.332031 128 L 341.332031 192 C 341.332031 239.125 303.128906 277.332031 256 277.332031 C 208.875 277.332031 170.667969 239.125 170.667969 192 Z M 469.332031 426.667969 C 469.332031 438.433594 459.765625 448 448 448 L 64 448 C 52.234375 448 42.667969 438.433594 42.667969 426.667969 L 42.667969 384.5 C 42.667969 379.53125 54.960938 363.484375 91.476562 348.171875 C 134.164062 330.265625 194.132812 320 256 320 C 317.835938 320 377.785156 330.292969 420.492188 348.234375 C 457.03125 363.59375 469.332031 379.675781 469.332031 384.667969 Z M 469.332031 426.667969 "/>
  </g>
</svg>