<?xml version="1.0" encoding="UTF-8" standalone="yes"?>
<svg version="1.1" xmlns="http://www.w3.org/2000/svg" xmlns:xlink="http://www.w3.org/1999/xlink" x="0px" y="0px" viewBox="0 0 512 512" enable-background="new 0 0 512 512" xml:space="preserve">
  <g id="bounds" display="none"><rect display="inline" fill="none" width="512" height="512"/></g><g id="Layer_2">
    <path style=" stroke:none;fill-rule:nonzero;fill:rgb(0%,0%,0%);fill-opacity:1;" d="M 467.1875 77.136719 C 417.199219 27.148438 336.160156 27.148438 286.179688 77.136719 L 256 107.308594 L 225.824219 77.148438 C 175.835938 27.15625 94.792969 27.15625 44.816406 77.148438 C -5.171875 127.128906 -5.171875 208.171875 44.816406 258.160156 L 74.980469 288.316406 L 256 469.332031 L 437.019531 288.316406 L 467.183594 258.160156 C 517.179688 208.171875 517.179688 127.125 467.1875 77.136719 Z M 376.675781 288.324219 L 256 409.003906 L 135.324219 288.324219 L 74.992188 227.996094 C 41.667969 194.671875 41.667969 140.640625 74.992188 107.308594 C 108.324219 73.984375 162.347656 73.984375 195.667969 107.308594 L 256 167.648438 L 316.339844 107.308594 C 349.664062 73.984375 403.695312 73.984375 437.019531 107.308594 C 470.339844 140.640625 470.339844 194.660156 437.019531 227.996094 Z M 376.675781 288.324219 "/>
  </g>
</svg>