<?xml version="1.0" encoding="UTF-8" standalone="yes"?>
<svg version="1.1" xmlns="http://www.w3.org/2000/svg" xmlns:xlink="http://www.w3.org/1999/xlink" x="0px" y="0px" viewBox="0 0 512 512" enable-background="new 0 0 512 512" xml:space="preserve">
  <g id="bounds" display="none"><rect display="inline" fill="none" width="512" height="512"/></g><g id="Layer_2">
    <path style=" stroke:none;fill-rule:nonzero;fill:rgb(0%,0%,0%);fill-opacity:1;" d="M 421.9375 90.070312 C 330.289062 -1.574219 181.707031 -1.574219 90.0625 90.070312 C -1.578125 181.710938 -1.578125 330.296875 90.0625 421.941406 C 181.707031 513.585938 330.289062 513.585938 421.9375 421.941406 C 513.578125 330.296875 513.578125 181.710938 421.9375 90.070312 Z M 375.851562 105.984375 L 314.835938 167.003906 C 279.285156 143.445312 232.726562 143.445312 197.171875 167.003906 L 136.148438 105.984375 C 206.03125 50.011719 305.96875 50.011719 375.851562 105.984375 Z M 320 256.003906 C 320 291.347656 291.34375 320.003906 256 320.003906 C 220.65625 320.003906 192 291.347656 192 256.003906 C 192 220.65625 220.65625 192.003906 256 192.003906 C 291.34375 192.003906 320 220.65625 320 256.003906 Z M 105.980469 136.15625 L 166.996094 197.171875 C 143.441406 232.726562 143.441406 279.285156 166.996094 314.835938 L 105.980469 375.851562 C 50.003906 305.96875 50.003906 206.039062 105.980469 136.15625 Z M 136.148438 406.027344 L 197.167969 345.007812 C 232.71875 368.558594 279.28125 368.558594 314.832031 345.007812 L 375.84375 406.027344 C 305.96875 461.996094 206.03125 461.996094 136.148438 406.027344 Z M 406.019531 375.851562 L 345.003906 314.835938 C 368.554688 279.285156 368.554688 232.726562 345.003906 197.171875 L 406.019531 136.15625 C 461.988281 206.039062 461.988281 305.96875 406.019531 375.851562 Z M 406.019531 375.851562 "/>
  </g>
</svg>