<?xml version="1.0" encoding="UTF-8" standalone="yes"?>
<svg version="1.1" xmlns="http://www.w3.org/2000/svg" xmlns:xlink="http://www.w3.org/1999/xlink" x="0px" y="0px" viewBox="0 0 512 512" enable-background="new 0 0 512 512" xml:space="preserve">
  <g id="bounds" display="none"><rect display="inline" fill="none" width="512" height="512"/></g><g id="Layer_2">
    <path style=" stroke:none;fill-rule:nonzero;fill:rgb(0%,0%,0%);fill-opacity:1;" d="M 426.667969 21.332031 L 85.332031 21.332031 C 49.988281 21.332031 21.332031 49.988281 21.332031 85.332031 L 21.332031 426.667969 C 21.332031 462.011719 49.988281 490.667969 85.332031 490.667969 L 426.667969 490.667969 C 462.011719 490.667969 490.667969 462.011719 490.667969 426.667969 L 490.667969 85.332031 C 490.667969 49.988281 462.011719 21.332031 426.667969 21.332031 Z M 448 426.667969 C 448 438.453125 438.453125 448 426.667969 448 L 158.171875 448 L 341.332031 264.835938 L 448 371.5 Z M 448 311.167969 L 341.332031 204.5 L 97.828125 448 L 85.332031 448 C 73.546875 448 64 438.453125 64 426.667969 L 64 85.332031 C 64 73.546875 73.546875 64 85.332031 64 L 426.667969 64 C 438.453125 64 448 73.546875 448 85.332031 Z M 170.667969 106.667969 C 135.324219 106.667969 106.667969 135.324219 106.667969 170.667969 C 106.667969 206.011719 135.324219 234.667969 170.667969 234.667969 C 206.011719 234.667969 234.667969 206.011719 234.667969 170.667969 C 234.667969 135.324219 206.011719 106.667969 170.667969 106.667969 Z M 170.667969 192 C 158.886719 192 149.332031 182.449219 149.332031 170.667969 C 149.332031 158.886719 158.886719 149.332031 170.667969 149.332031 C 182.449219 149.332031 192 158.886719 192 170.667969 C 192 182.449219 182.449219 192 170.667969 192 Z M 170.667969 192 "/>
  </g>
</svg>