<?xml version="1.0" encoding="UTF-8" standalone="yes"?>
<svg version="1.1" xmlns="http://www.w3.org/2000/svg" xmlns:xlink="http://www.w3.org/1999/xlink" x="0px" y="0px" viewBox="0 0 512 512" enable-background="new 0 0 512 512" xml:space="preserve">
  <g id="bounds" display="none"><rect display="inline" fill="none" width="512" height="512"/></g><g id="Layer_2">
    <path style=" stroke:none;fill-rule:nonzero;fill:rgb(0%,0%,0%);fill-opacity:1;" d="M 298.667969 384 C 302.144531 384 305.59375 383.894531 309.019531 383.683594 C 307.359375 385.550781 305.632812 387.382812 303.839844 389.171875 L 239.839844 453.171875 C 189.851562 503.164062 108.804688 503.164062 58.820312 453.171875 C 8.832031 403.183594 8.832031 322.144531 58.820312 272.15625 L 122.820312 208.15625 C 124.613281 206.367188 126.441406 204.640625 128.304688 202.976562 C 167.535156 168.054688 223.097656 161.441406 268.515625 183.128906 C 281.289062 189.238281 293.269531 197.574219 303.839844 208.148438 C 314.421875 218.726562 322.757812 230.703125 328.859375 243.472656 C 321.148438 251.210938 310.457031 256 298.667969 256 C 294.316406 256 290.105469 255.347656 286.144531 254.132812 C 282.699219 248.507812 278.539062 243.195312 273.675781 238.324219 C 268.800781 233.457031 263.488281 229.300781 257.867188 225.851562 C 225.003906 205.710938 181.449219 209.867188 152.992188 238.324219 L 133.78125 257.542969 L 88.992188 302.324219 C 55.667969 335.648438 55.667969 389.679688 88.992188 423.011719 C 122.320312 456.335938 176.351562 456.335938 209.675781 423.011719 L 254.457031 378.222656 C 268.558594 381.988281 283.386719 384 298.667969 384 Z M 453.179688 58.820312 C 403.1875 8.835938 322.148438 8.835938 272.160156 58.820312 L 208.160156 122.820312 C 206.367188 124.613281 204.644531 126.441406 202.980469 128.308594 C 206.410156 128.101562 209.855469 128 213.332031 128 C 228.617188 128 243.441406 130.011719 257.535156 133.78125 L 302.320312 88.996094 C 335.652344 55.667969 389.683594 55.667969 423.007812 88.996094 C 456.332031 122.320312 456.332031 176.351562 423.007812 209.679688 L 378.21875 254.464844 L 359.007812 273.679688 C 330.550781 302.128906 286.996094 306.28125 254.128906 286.148438 C 248.5 282.703125 243.195312 278.542969 238.320312 273.679688 C 233.449219 268.804688 229.296875 263.492188 225.851562 257.871094 C 221.898438 256.65625 217.691406 256 213.332031 256 C 201.535156 256 190.859375 260.785156 183.136719 268.523438 C 189.242188 281.296875 197.578125 293.265625 208.15625 303.84375 C 218.730469 314.414062 230.703125 322.761719 243.472656 328.863281 C 288.890625 350.558594 344.453125 343.945312 383.683594 309.019531 C 385.5625 307.355469 387.382812 305.632812 389.171875 303.839844 L 453.171875 239.839844 C 503.167969 189.851562 503.167969 108.8125 453.179688 58.820312 Z M 453.179688 58.820312 "/>
  </g>
</svg>