<?xml version="1.0" encoding="UTF-8" standalone="yes"?>
<svg version="1.1" xmlns="http://www.w3.org/2000/svg" xmlns:xlink="http://www.w3.org/1999/xlink" x="0px" y="0px" viewBox="0 0 512 512" enable-background="new 0 0 512 512" xml:space="preserve">
  <g id="bounds" display="none"><rect display="inline" fill="none" width="512" height="512"/></g><g id="Layer_2">
    <path style=" stroke:none;fill-rule:nonzero;fill:rgb(0%,0%,0%);fill-opacity:1;" d="M 149.332031 256 C 149.332031 244.222656 139.78125 234.667969 128 234.667969 L 42.667969 234.667969 C 30.878906 234.667969 21.332031 244.222656 21.332031 256 C 21.332031 267.78125 30.886719 277.332031 42.667969 277.332031 L 128 277.332031 C 139.78125 277.332031 149.332031 267.78125 149.332031 256 Z M 469.332031 234.667969 L 384 234.667969 C 372.21875 234.667969 362.667969 244.222656 362.667969 256 C 362.667969 267.78125 372.21875 277.332031 384 277.332031 L 469.332031 277.332031 C 481.113281 277.332031 490.667969 267.78125 490.667969 256 C 490.667969 244.222656 481.113281 234.667969 469.332031 234.667969 Z M 256 21.332031 C 244.222656 21.332031 234.667969 30.886719 234.667969 42.667969 L 234.667969 128 C 234.667969 139.777344 244.222656 149.332031 256 149.332031 C 267.78125 149.332031 277.332031 139.777344 277.332031 128 L 277.332031 42.667969 C 277.332031 30.886719 267.78125 21.332031 256 21.332031 Z M 256 362.667969 C 244.222656 362.667969 234.667969 372.21875 234.667969 384 L 234.667969 469.332031 C 234.667969 481.113281 244.222656 490.667969 256 490.667969 C 267.78125 490.667969 277.332031 481.113281 277.332031 469.332031 L 277.332031 384 C 277.332031 372.21875 267.78125 362.667969 256 362.667969 Z M 150.398438 331.429688 L 90.074219 391.761719 C 81.742188 400.089844 81.742188 413.605469 90.074219 421.9375 C 98.398438 430.265625 111.910156 430.265625 120.238281 421.9375 L 180.574219 361.59375 C 188.90625 353.269531 188.90625 339.761719 180.574219 331.429688 C 172.246094 323.097656 158.734375 323.09375 150.398438 331.429688 Z M 361.601562 180.574219 L 421.929688 120.246094 C 430.261719 111.914062 430.261719 98.40625 421.929688 90.074219 C 413.605469 81.742188 400.097656 81.742188 391.777344 90.074219 L 331.429688 150.40625 C 323.097656 158.734375 323.097656 172.246094 331.429688 180.574219 C 339.761719 188.90625 353.257812 188.90625 361.601562 180.574219 Z M 120.234375 90.0625 C 111.910156 81.734375 98.398438 81.734375 90.070312 90.0625 C 81.738281 98.394531 81.738281 111.902344 90.070312 120.234375 L 150.398438 180.574219 C 158.730469 188.90625 172.246094 188.90625 180.574219 180.574219 C 188.90625 172.246094 188.90625 158.734375 180.574219 150.40625 Z M 361.601562 331.429688 C 353.269531 323.097656 339.753906 323.097656 331.429688 331.429688 C 323.097656 339.761719 323.097656 353.265625 331.429688 361.59375 L 391.765625 421.9375 C 400.097656 430.265625 413.601562 430.265625 421.925781 421.9375 C 430.25 413.605469 430.25 400.089844 421.925781 391.761719 Z M 361.601562 331.429688 "/>
  </g>
</svg>