<?xml version="1.0" encoding="UTF-8" standalone="yes"?>
<svg version="1.1" xmlns="http://www.w3.org/2000/svg" xmlns:xlink="http://www.w3.org/1999/xlink" x="0px" y="0px" viewBox="0 0 512 512" enable-background="new 0 0 512 512" xml:space="preserve">
  <g id="bounds" display="none"><rect display="inline" fill="none" width="512" height="512"/></g><g id="Layer_2">
    <path style=" stroke:none;fill-rule:nonzero;fill:rgb(0%,0%,0%);fill-opacity:1;" d="M 426.667969 64 L 85.332031 64 C 49.988281 64 21.332031 92.65625 21.332031 128 L 21.332031 384 C 21.332031 419.34375 49.988281 448 85.332031 448 L 426.667969 448 C 462.011719 448 490.667969 419.34375 490.667969 384 L 490.667969 128 C 490.667969 92.65625 462.011719 64 426.667969 64 Z M 426.667969 106.667969 C 429.128906 106.667969 431.5 107.082031 433.695312 107.855469 L 256 250.015625 L 78.304688 107.855469 C 80.5 107.082031 82.871094 106.667969 85.332031 106.667969 Z M 426.667969 405.332031 L 85.332031 405.332031 C 73.550781 405.332031 64 395.78125 64 384 L 64 151.050781 L 242.671875 293.988281 C 246.566406 297.109375 251.28125 298.667969 256 298.667969 C 260.71875 298.667969 265.433594 297.109375 269.328125 293.988281 L 448 151.050781 L 448 384 C 448 395.78125 438.449219 405.332031 426.667969 405.332031 Z M 426.667969 405.332031 "/>
  </g>
</svg>