<?xml version="1.0" encoding="UTF-8" standalone="yes"?>
<svg version="1.1" xmlns="http://www.w3.org/2000/svg" xmlns:xlink="http://www.w3.org/1999/xlink" x="0px" y="0px" viewBox="0 0 512 512" enable-background="new 0 0 512 512" xml:space="preserve">
  <g id="bounds" display="none"><rect display="inline" fill="none" width="512" height="512"/></g><g id="Layer_2">
    <path style=" stroke:none;fill-rule:nonzero;fill:rgb(0%,0%,0%);fill-opacity:1;" d="M 94.1875 64 L 192 64 C 203.785156 64 213.332031 54.453125 213.332031 42.667969 C 213.332031 30.878906 203.785156 21.332031 192 21.332031 L 42.667969 21.332031 C 30.878906 21.332031 21.332031 30.878906 21.332031 42.667969 L 21.332031 192 C 21.332031 203.785156 30.878906 213.332031 42.667969 213.332031 C 54.453125 213.332031 64 203.785156 64 192 L 64 94.1875 L 198.085938 228.265625 C 206.453125 236.585938 219.953125 236.585938 228.265625 228.265625 C 236.582031 219.945312 236.585938 206.398438 228.265625 198.085938 Z M 469.332031 298.5 C 457.546875 298.5 448 308.046875 448 319.835938 L 448 417.648438 L 313.84375 283.566406 C 305.472656 275.246094 291.898438 275.246094 283.574219 283.566406 C 275.246094 291.886719 275.246094 305.515625 283.574219 313.835938 L 417.660156 448 L 319.84375 448 C 308.054688 448 298.511719 457.546875 298.511719 469.332031 C 298.511719 481.121094 308.054688 490.667969 319.84375 490.667969 L 469.179688 490.667969 C 480.960938 490.667969 490.667969 480.960938 490.667969 469.167969 L 490.667969 319.835938 C 490.667969 308.046875 481.121094 298.5 469.332031 298.5 Z M 469.332031 298.5 "/>
  </g>
</svg>