<?xml version="1.0" encoding="UTF-8" standalone="yes"?>
<svg version="1.1" xmlns="http://www.w3.org/2000/svg" xmlns:xlink="http://www.w3.org/1999/xlink" x="0px" y="0px" viewBox="0 0 512 512" enable-background="new 0 0 512 512" xml:space="preserve">
  <g id="bounds" display="none"><rect display="inline" fill="none" width="512" height="512"/></g><g id="Layer_2">
    <path style=" stroke:none;fill-rule:nonzero;fill:rgb(0%,0%,0%);fill-opacity:1;" d="M 426.667969 213.332031 L 426.667969 256 C 426.667969 343.03125 361.519531 414.84375 277.332031 425.34375 L 277.332031 469.332031 L 341.332031 469.332031 C 353.113281 469.332031 362.667969 478.886719 362.667969 490.667969 C 362.667969 502.449219 353.113281 512 341.332031 512 L 170.667969 512 C 158.886719 512 149.332031 502.449219 149.332031 490.667969 C 149.332031 478.886719 158.886719 469.332031 170.667969 469.332031 L 234.667969 469.332031 L 234.667969 425.34375 C 150.480469 414.84375 85.332031 343.03125 85.332031 256 L 85.332031 213.332031 C 85.332031 201.550781 94.886719 192 106.667969 192 C 118.449219 192 128 201.550781 128 213.332031 L 128 256 C 128 326.691406 185.308594 384 256 384 C 326.691406 384 384 326.691406 384 256 L 384 213.332031 C 384 201.550781 393.550781 192 405.332031 192 C 417.113281 192 426.667969 201.550781 426.667969 213.332031 Z M 256 0 C 208.871094 0 170.667969 38.203125 170.667969 85.332031 L 170.667969 256 C 170.667969 303.128906 208.871094 341.332031 256 341.332031 C 303.128906 341.332031 341.332031 303.128906 341.332031 256 L 341.332031 85.332031 C 341.332031 38.203125 303.128906 0 256 0 Z M 256 298.667969 C 232.4375 298.667969 213.332031 279.5625 213.332031 256 L 213.332031 85.332031 C 213.332031 61.769531 232.4375 42.667969 256 42.667969 C 279.5625 42.667969 298.667969 61.769531 298.667969 85.332031 L 298.667969 256 C 298.667969 279.5625 279.5625 298.667969 256 298.667969 Z M 256 298.667969 "/>
  </g>
</svg>