<?xml version="1.0" encoding="UTF-8" standalone="yes"?>
<svg version="1.1" xmlns="http://www.w3.org/2000/svg" xmlns:xlink="http://www.w3.org/1999/xlink" x="0px" y="0px" viewBox="0 0 512 512" enable-background="new 0 0 512 512" xml:space="preserve">
  <g id="bounds" display="none"><rect display="inline" fill="none" width="512" height="512"/></g><g id="Layer_2">
    <path style=" stroke:none;fill-rule:nonzero;fill:rgb(0%,0%,0%);fill-opacity:1;" d="M 213.339844 42.5 C 201.550781 42.5 192.003906 52.042969 192.003906 63.835938 L 192.003906 161.652344 L 57.851562 27.5625 C 49.476562 19.238281 35.902344 19.238281 27.578125 27.5625 C 19.246094 35.878906 19.246094 49.507812 27.578125 57.835938 L 161.664062 191.996094 L 63.851562 191.996094 C 52.058594 191.996094 42.515625 201.542969 42.515625 213.328125 C 42.515625 225.113281 52.058594 234.660156 63.851562 234.660156 L 213.183594 234.660156 C 224.964844 234.660156 234.671875 224.953125 234.671875 213.171875 L 234.671875 63.835938 C 234.671875 52.042969 225.125 42.5 213.339844 42.5 Z M 484.421875 454.160156 L 350.335938 319.996094 L 448.15625 319.996094 C 459.9375 319.996094 469.488281 310.449219 469.488281 298.660156 C 469.488281 286.875 459.9375 277.328125 448.15625 277.328125 L 298.816406 277.328125 C 287.023438 277.328125 277.339844 287.046875 277.339844 298.832031 L 277.339844 448.164062 C 277.339844 459.953125 286.886719 469.5 298.671875 469.5 C 310.457031 469.5 320.003906 459.953125 320.003906 448.164062 L 320.003906 350.347656 L 454.164062 484.433594 C 462.527344 492.761719 476.101562 492.761719 484.421875 484.433594 C 492.753906 476.113281 492.753906 462.484375 484.421875 454.160156 Z M 484.421875 454.160156 "/>
  </g>
</svg>