<?xml version="1.0" encoding="UTF-8" standalone="yes"?>
<svg version="1.1" xmlns="http://www.w3.org/2000/svg" xmlns:xlink="http://www.w3.org/1999/xlink" x="0px" y="0px" viewBox="0 0 512 512" enable-background="new 0 0 512 512" xml:space="preserve">
  <g id="bounds" display="none"><rect display="inline" fill="none" width="512" height="512"/></g><g id="Layer_2">
    <path style=" stroke:none;fill-rule:nonzero;fill:rgb(0%,0%,0%);fill-opacity:1;" d="M 170.667969 481.945312 C 151.28125 481.945312 132.378906 478.265625 114.484375 471.007812 C 95.945312 463.488281 79.324219 452.453125 65.070312 438.207031 C 50.820312 423.960938 39.785156 407.332031 32.273438 388.792969 C 25.011719 370.902344 21.332031 352 21.332031 332.613281 C 21.332031 313.226562 25.011719 294.320312 32.273438 276.425781 C 39.785156 257.886719 50.828125 241.265625 65.070312 227.011719 L 65.109375 226.976562 L 261.882812 31.148438 C 272.027344 21.007812 283.867188 13.148438 297.070312 7.792969 C 309.8125 2.625 323.269531 0 337.070312 0 C 350.871094 0 364.324219 2.625 377.070312 7.792969 C 390.277344 13.148438 402.113281 21.007812 412.261719 31.148438 C 422.40625 41.289062 430.261719 53.128906 435.621094 66.335938 C 440.789062 79.082031 443.40625 92.539062 443.40625 106.339844 C 443.40625 120.144531 440.789062 133.601562 435.621094 146.347656 C 430.261719 159.550781 422.40625 171.386719 412.261719 181.535156 L 215.921875 377.867188 C 209.8125 383.972656 202.691406 388.699219 194.734375 391.929688 C 187.066406 395.039062 178.964844 396.617188 170.660156 396.617188 C 162.355469 396.617188 154.261719 395.039062 146.585938 391.929688 C 138.632812 388.703125 131.507812 383.972656 125.402344 377.867188 C 119.296875 371.765625 114.570312 364.640625 111.34375 356.6875 C 108.246094 349.011719 106.667969 340.917969 106.667969 332.613281 C 106.667969 324.308594 108.246094 316.207031 111.355469 308.539062 C 114.574219 300.585938 119.308594 293.457031 125.414062 287.347656 L 306.433594 106.335938 C 314.761719 98.003906 328.273438 98.003906 336.601562 106.335938 C 344.933594 114.667969 344.933594 128.175781 336.601562 136.507812 L 155.585938 317.519531 C 151.550781 321.558594 149.332031 326.917969 149.332031 332.613281 C 149.332031 338.308594 151.550781 343.664062 155.585938 347.695312 C 159.609375 351.726562 164.96875 353.945312 170.667969 353.945312 C 176.363281 353.945312 181.722656 351.726562 185.75 347.695312 L 382.089844 151.359375 C 394.117188 139.332031 400.742188 123.34375 400.742188 106.339844 C 400.742188 89.339844 394.117188 73.34375 382.089844 61.324219 C 370.070312 49.289062 354.078125 42.667969 337.070312 42.667969 C 320.0625 42.667969 304.070312 49.289062 292.054688 61.316406 L 292.015625 61.355469 L 95.226562 257.199219 C 85.046875 267.386719 77.164062 279.253906 71.800781 292.464844 C 66.628906 305.238281 64 318.753906 64 332.613281 C 64 346.476562 66.628906 359.984375 71.808594 372.757812 C 77.171875 385.980469 85.050781 397.84375 95.246094 408.03125 C 105.433594 418.21875 117.308594 426.105469 130.515625 431.464844 C 143.296875 436.652344 156.804688 439.28125 170.667969 439.28125 C 184.527344 439.28125 198.042969 436.652344 210.816406 431.464844 C 224.039062 426.105469 235.898438 418.222656 246.089844 408.03125 L 442.199219 211.925781 C 450.527344 203.59375 464.039062 203.59375 472.363281 211.925781 C 480.691406 220.257812 480.691406 233.765625 472.363281 242.097656 L 276.257812 438.203125 C 262.011719 452.449219 245.386719 463.484375 226.84375 471.003906 C 208.960938 478.265625 190.054688 481.945312 170.667969 481.945312 Z M 170.667969 481.945312 "/>
  </g>
</svg>