<?xml version="1.0" encoding="UTF-8" standalone="yes"?>
<svg version="1.1" xmlns="http://www.w3.org/2000/svg" xmlns:xlink="http://www.w3.org/1999/xlink" x="0px" y="0px" viewBox="0 0 512 512" enable-background="new 0 0 512 512" xml:space="preserve">
  <g id="bounds" display="none"><rect display="inline" fill="none" width="512" height="512"/></g><g id="Layer_2">
    <path style=" stroke:none;fill-rule:nonzero;fill:rgb(0%,0%,0%);fill-opacity:1;" d="M 405.332031 0 L 106.667969 0 C 71.308594 0 42.667969 28.640625 42.667969 64 L 42.667969 448 C 42.667969 483.359375 71.308594 512 106.667969 512 L 405.332031 512 C 440.691406 512 469.332031 483.359375 469.332031 448 L 469.332031 64 C 469.332031 28.640625 440.691406 0 405.332031 0 Z M 426.667969 448 C 426.667969 459.785156 417.121094 469.332031 405.332031 469.332031 L 106.667969 469.332031 C 94.878906 469.332031 85.332031 459.785156 85.332031 448 L 85.332031 64 C 85.332031 52.214844 94.878906 42.667969 106.667969 42.667969 L 405.332031 42.667969 C 417.121094 42.667969 426.667969 52.214844 426.667969 64 Z M 341.332031 362.667969 L 170.667969 362.667969 C 158.886719 362.667969 149.332031 372.21875 149.332031 384 C 149.332031 395.78125 158.886719 405.332031 170.667969 405.332031 L 341.332031 405.332031 C 353.113281 405.332031 362.667969 395.78125 362.667969 384 C 362.667969 372.21875 353.113281 362.667969 341.332031 362.667969 Z M 341.332031 277.332031 L 170.667969 277.332031 C 158.886719 277.332031 149.332031 286.886719 149.332031 298.667969 C 149.332031 310.449219 158.886719 320 170.667969 320 L 341.332031 320 C 353.113281 320 362.667969 310.449219 362.667969 298.667969 C 362.667969 286.886719 353.113281 277.332031 341.332031 277.332031 Z M 341.332031 192 L 170.667969 192 C 158.886719 192 149.332031 201.550781 149.332031 213.332031 C 149.332031 225.113281 158.886719 234.667969 170.667969 234.667969 L 341.332031 234.667969 C 353.113281 234.667969 362.667969 225.113281 362.667969 213.332031 C 362.667969 201.550781 353.113281 192 341.332031 192 Z M 170.667969 149.332031 L 256 149.332031 C 267.78125 149.332031 277.332031 139.78125 277.332031 128 C 277.332031 116.21875 267.78125 106.667969 256 106.667969 L 170.667969 106.667969 C 158.886719 106.667969 149.332031 116.21875 149.332031 128 C 149.332031 139.78125 158.886719 149.332031 170.667969 149.332031 Z M 170.667969 149.332031 "/>
  </g>
</svg>