<?xml version="1.0" encoding="UTF-8" standalone="yes"?>
<svg version="1.1" xmlns="http://www.w3.org/2000/svg" xmlns:xlink="http://www.w3.org/1999/xlink" x="0px" y="0px" viewBox="0 0 512 512" enable-background="new 0 0 512 512" xml:space="preserve">
  <g id="bounds" display="none"><rect display="inline" fill="none" width="512" height="512"/></g><g id="Layer_2">
    <path style=" stroke:none;fill-rule:nonzero;fill:rgb(0%,0%,0%);fill-opacity:1;" d="M 170.667969 64 C 135.324219 64 106.667969 92.65625 106.667969 128 L 106.667969 384 C 106.667969 419.34375 135.324219 448 170.667969 448 C 206.011719 448 234.667969 419.34375 234.667969 384 L 234.667969 128 C 234.667969 92.65625 206.011719 64 170.667969 64 Z M 192 384 C 192 395.78125 182.449219 405.332031 170.667969 405.332031 C 158.886719 405.332031 149.332031 395.78125 149.332031 384 L 149.332031 128 C 149.332031 116.21875 158.886719 106.667969 170.667969 106.667969 C 182.449219 106.667969 192 116.21875 192 128 Z M 341.332031 64 C 305.988281 64 277.332031 92.65625 277.332031 128 L 277.332031 384 C 277.332031 419.34375 305.988281 448 341.332031 448 C 376.675781 448 405.332031 419.34375 405.332031 384 L 405.332031 128 C 405.332031 92.65625 376.675781 64 341.332031 64 Z M 362.667969 384 C 362.667969 395.78125 353.113281 405.332031 341.332031 405.332031 C 329.550781 405.332031 320 395.78125 320 384 L 320 128 C 320 116.21875 329.550781 106.667969 341.332031 106.667969 C 353.113281 106.667969 362.667969 116.21875 362.667969 128 Z M 362.667969 384 "/>
  </g>
</svg>