<?xml version="1.0" encoding="UTF-8" standalone="yes"?>
<svg version="1.1" xmlns="http://www.w3.org/2000/svg" xmlns:xlink="http://www.w3.org/1999/xlink" x="0px" y="0px" viewBox="0 0 512 512" enable-background="new 0 0 512 512" xml:space="preserve">
  <g id="bounds" display="none"><rect display="inline" fill="none" width="512" height="512"/></g><g id="Layer_2">
    <path style=" stroke:none;fill-rule:nonzero;fill:rgb(0%,0%,0%);fill-opacity:1;" d="M 256 490.667969 C 227.210938 490.667969 199.269531 485.019531 172.953125 473.894531 C 160.308594 468.542969 148.117188 461.925781 136.710938 454.21875 C 125.417969 446.59375 114.800781 437.835938 105.152344 428.179688 C 95.5 418.535156 86.742188 407.914062 79.113281 396.625 C 71.40625 385.214844 64.785156 373.023438 59.445312 360.378906 C 48.316406 334.0625 42.667969 306.121094 42.667969 277.332031 C 42.667969 248.542969 48.316406 220.601562 59.445312 194.289062 C 64.789062 181.644531 71.40625 169.449219 79.113281 158.042969 C 86.742188 146.753906 95.5 136.132812 105.152344 126.484375 C 113.484375 118.15625 126.992188 118.15625 135.324219 126.484375 C 143.652344 134.816406 143.652344 148.324219 135.324219 156.65625 C 119.644531 172.332031 107.332031 190.585938 98.734375 210.90625 C 89.84375 231.9375 85.332031 254.28125 85.332031 277.332031 C 85.332031 300.378906 89.84375 322.730469 98.734375 343.761719 C 107.332031 364.078125 119.644531 382.332031 135.324219 398.011719 C 150.996094 413.691406 169.253906 426 189.574219 434.597656 C 210.601562 443.488281 232.953125 448 256 448 C 279.046875 448 301.398438 443.488281 322.425781 434.597656 C 342.746094 426 360.996094 413.691406 376.675781 398.011719 C 392.355469 382.335938 404.667969 364.078125 413.265625 343.761719 C 422.15625 322.730469 426.667969 300.378906 426.667969 277.332031 C 426.667969 254.28125 422.15625 231.9375 413.265625 210.90625 C 404.667969 190.585938 392.355469 172.335938 376.675781 156.652344 C 368.347656 148.320312 368.347656 134.8125 376.675781 126.484375 C 385.007812 118.15625 398.515625 118.15625 406.847656 126.484375 C 416.5 136.132812 425.257812 146.753906 432.886719 158.042969 C 440.59375 169.449219 447.210938 181.644531 452.554688 194.289062 C 463.683594 220.601562 469.332031 248.542969 469.332031 277.332031 C 469.332031 306.121094 463.683594 334.0625 452.554688 360.378906 C 447.207031 373.023438 440.59375 385.214844 432.886719 396.625 C 425.257812 407.914062 416.5 418.535156 406.847656 428.179688 C 397.199219 437.835938 386.582031 446.59375 375.289062 454.21875 C 363.882812 461.925781 351.691406 468.550781 339.046875 473.894531 C 312.730469 485.019531 284.789062 490.667969 256 490.667969 Z M 277.332031 256 L 277.332031 42.667969 C 277.332031 30.886719 267.78125 21.332031 256 21.332031 C 244.21875 21.332031 234.667969 30.886719 234.667969 42.667969 L 234.667969 256 C 234.667969 267.78125 244.21875 277.332031 256 277.332031 C 267.78125 277.332031 277.332031 267.78125 277.332031 256 Z M 277.332031 256 "/>
  </g>
</svg>