<?xml version="1.0" encoding="UTF-8" standalone="yes"?>
<svg version="1.1" xmlns="http://www.w3.org/2000/svg" xmlns:xlink="http://www.w3.org/1999/xlink" x="0px" y="0px" viewBox="0 0 512 512" enable-background="new 0 0 512 512" xml:space="preserve">
  <g id="bounds" display="none"><rect display="inline" fill="none" width="512" height="512"/></g><g id="Layer_2">
    <path style=" stroke:none;fill-rule:nonzero;fill:rgb(0%,0%,0%);fill-opacity:1;" d="M 426.667969 213.332031 L 384 213.332031 L 384 106.667969 C 384 71.308594 355.359375 42.667969 320 42.667969 L 192 42.667969 C 156.640625 42.667969 128 71.308594 128 106.667969 L 128 213.332031 L 85.332031 213.332031 C 49.972656 213.332031 21.332031 241.972656 21.332031 277.332031 L 21.332031 362.667969 C 21.332031 398.027344 49.972656 426.667969 85.332031 426.667969 L 131.71875 426.667969 C 140.507812 451.503906 164.144531 469.332031 192 469.332031 L 320 469.332031 C 347.855469 469.332031 371.476562 451.503906 380.28125 426.667969 L 426.667969 426.667969 C 462.027344 426.667969 490.667969 398.027344 490.667969 362.667969 L 490.667969 277.332031 C 490.667969 241.972656 462.027344 213.332031 426.667969 213.332031 Z M 170.667969 106.667969 C 170.667969 94.878906 180.214844 85.332031 192 85.332031 L 320 85.332031 C 331.785156 85.332031 341.332031 94.878906 341.332031 106.667969 L 341.332031 213.332031 L 170.667969 213.332031 Z M 320 426.667969 L 192 426.667969 C 180.21875 426.667969 170.667969 417.113281 170.667969 405.332031 C 170.667969 393.550781 180.21875 384 192 384 L 320 384 C 331.78125 384 341.332031 393.550781 341.332031 405.332031 C 341.332031 417.113281 331.78125 426.667969 320 426.667969 Z M 448 362.667969 C 448 374.453125 438.453125 384 426.667969 384 L 380.28125 384 C 371.5 359.164062 347.855469 341.332031 320 341.332031 L 192 341.332031 C 164.144531 341.332031 140.523438 359.164062 131.71875 384 L 85.332031 384 C 73.546875 384 64 374.453125 64 362.667969 L 64 277.332031 C 64 265.546875 73.546875 256 85.332031 256 L 426.667969 256 C 438.453125 256 448 265.546875 448 277.332031 Z M 448 362.667969 "/>
  </g>
</svg>