<?xml version="1.0" encoding="UTF-8" standalone="yes"?>
<svg version="1.1" xmlns="http://www.w3.org/2000/svg" xmlns:xlink="http://www.w3.org/1999/xlink" x="0px" y="0px" viewBox="0 0 512 512" enable-background="new 0 0 512 512" xml:space="preserve">
  <g id="bounds" display="none"><rect display="inline" fill="none" width="512" height="512"/></g><g id="Layer_2">
    <path style=" stroke:none;fill-rule:nonzero;fill:rgb(0%,0%,0%);fill-opacity:1;" d="M 490.667969 85.332031 L 490.667969 213.332031 C 490.667969 225.113281 481.113281 234.667969 469.332031 234.667969 L 341.332031 234.667969 C 329.550781 234.667969 320 225.113281 320 213.332031 C 320 201.550781 329.550781 192 341.332031 192 L 413.273438 192 C 384.339844 163.796875 361.542969 141.507812 355.347656 135.324219 C 339.046875 119.019531 320.058594 106.40625 298.902344 97.828125 C 278.453125 89.535156 256.84375 85.332031 234.667969 85.332031 C 212.492188 85.332031 190.878906 89.535156 170.433594 97.828125 C 149.273438 106.40625 130.289062 119.023438 113.984375 135.324219 C 97.683594 151.621094 85.070312 170.609375 76.496094 191.765625 C 68.203125 212.214844 64 233.824219 64 256 C 64 278.175781 68.203125 299.785156 76.496094 320.234375 C 85.070312 341.390625 97.691406 360.378906 113.984375 376.675781 C 130.289062 392.980469 149.273438 405.59375 170.433594 414.171875 C 190.878906 422.464844 212.492188 426.667969 234.667969 426.667969 C 256.84375 426.667969 278.453125 422.464844 298.902344 414.171875 C 320.058594 405.59375 339.046875 392.976562 355.347656 376.675781 C 364.5 367.519531 372.59375 357.375 379.402344 346.523438 C 386.015625 335.96875 391.472656 324.65625 395.617188 312.90625 C 399.53125 301.792969 411.722656 295.960938 422.832031 299.882812 C 433.941406 303.800781 439.777344 315.988281 435.855469 327.097656 C 430.660156 341.820312 423.835938 355.972656 415.550781 369.183594 C 407.039062 382.761719 396.9375 395.433594 385.515625 406.851562 C 365.15625 427.210938 341.40625 442.976562 314.933594 453.710938 C 302.207031 458.875 288.90625 462.816406 275.398438 465.429688 C 262.015625 468.019531 248.316406 469.332031 234.667969 469.332031 C 221.019531 469.332031 207.316406 468.019531 193.9375 465.429688 C 180.425781 462.816406 167.125 458.875 154.398438 453.710938 C 127.921875 442.976562 104.175781 427.210938 83.820312 406.851562 C 63.460938 386.496094 47.691406 362.746094 36.960938 336.265625 C 31.796875 323.542969 27.855469 310.238281 25.238281 296.730469 C 22.644531 283.34375 21.332031 269.648438 21.332031 256 C 21.332031 242.351562 22.644531 228.65625 25.230469 215.269531 C 27.851562 201.761719 31.792969 188.457031 36.953125 175.734375 C 47.691406 149.253906 63.457031 125.507812 83.8125 105.152344 C 104.171875 84.792969 127.921875 69.03125 154.394531 58.292969 C 167.121094 53.128906 180.421875 49.1875 193.929688 46.574219 C 207.316406 43.980469 221.019531 42.667969 234.667969 42.667969 C 248.316406 42.667969 262.015625 43.980469 275.398438 46.570312 C 288.90625 49.183594 302.207031 53.125 314.933594 58.289062 C 341.414062 69.023438 365.15625 84.789062 385.515625 105.148438 C 391.886719 111.519531 416.835938 135.886719 448 166.265625 L 448 85.332031 C 448 73.550781 457.550781 64 469.332031 64 C 481.113281 64 490.667969 73.550781 490.667969 85.332031 Z M 490.667969 85.332031 "/>
  </g>
</svg>