<?xml version="1.0" encoding="UTF-8" standalone="yes"?>
<svg version="1.1" xmlns="http://www.w3.org/2000/svg" xmlns:xlink="http://www.w3.org/1999/xlink" x="0px" y="0px" viewBox="0 0 512 512" enable-background="new 0 0 512 512" xml:space="preserve">
  <g id="bounds" display="none"><rect display="inline" fill="none" width="512" height="512"/></g><g id="Layer_2">
    <path style=" stroke:none;fill-rule:nonzero;fill:rgb(0%,0%,0%);fill-opacity:1;" d="M 512 85.332031 L 512 213.332031 C 512 225.113281 502.449219 234.667969 490.667969 234.667969 L 362.667969 234.667969 C 350.886719 234.667969 341.332031 225.113281 341.332031 213.332031 C 341.332031 201.550781 350.886719 192 362.667969 192 L 434.609375 192 C 405.898438 164.015625 383.226562 141.867188 376.828125 135.464844 C 376.773438 135.414062 376.726562 135.367188 376.683594 135.324219 C 360.378906 119.019531 341.390625 106.40625 320.234375 97.828125 C 299.785156 89.535156 278.175781 85.332031 256 85.332031 C 233.824219 85.332031 212.214844 89.535156 191.765625 97.828125 C 170.609375 106.40625 151.621094 119.023438 135.316406 135.324219 C 133.886719 136.753906 132.480469 138.203125 131.105469 139.679688 C 117.449219 154.308594 106.628906 170.949219 98.871094 189.257812 C 97.679688 192.601562 96.199219 195.839844 95.011719 199.195312 C 91.054688 210.238281 78.90625 216.019531 67.835938 212.117188 C 56.785156 208.21875 50.960938 196.144531 54.753906 185.089844 C 56.367188 180.421875 58.1875 175.8125 60.15625 171.28125 C 64.410156 161.429688 69.417969 151.898438 75.113281 142.820312 C 82.292969 131.367188 90.609375 120.550781 99.894531 110.59375 C 101.609375 108.746094 103.359375 106.929688 105.148438 105.148438 C 125.503906 84.789062 149.253906 69.023438 175.726562 58.289062 C 188.453125 53.125 201.753906 49.183594 215.265625 46.570312 C 228.652344 43.980469 242.351562 42.667969 256 42.667969 C 269.648438 42.667969 283.347656 43.980469 296.730469 46.570312 C 310.238281 49.183594 323.542969 53.125 336.265625 58.289062 C 362.746094 69.023438 386.492188 84.789062 406.847656 105.148438 L 407.164062 105.460938 C 414 112.277344 438.65625 136.363281 469.332031 166.261719 L 469.332031 85.332031 C 469.332031 73.550781 478.886719 64 490.667969 64 C 502.449219 64 512 73.550781 512 85.332031 Z M 21.332031 448 C 33.113281 448 42.667969 438.449219 42.667969 426.667969 L 42.667969 345.734375 C 73.34375 375.632812 98 399.71875 104.835938 406.535156 L 105.152344 406.847656 C 125.507812 427.207031 149.257812 442.96875 175.734375 453.707031 C 188.457031 458.871094 201.761719 462.8125 215.269531 465.425781 C 228.652344 468.019531 242.351562 469.332031 256 469.332031 C 283.441406 469.332031 310.835938 464.019531 336.265625 453.707031 C 362.746094 442.96875 386.492188 427.207031 406.847656 406.847656 C 408.632812 405.066406 410.382812 403.246094 412.101562 401.402344 C 421.386719 391.445312 429.707031 380.628906 436.878906 369.171875 C 442.570312 360.097656 447.585938 350.566406 451.839844 340.714844 C 453.808594 336.179688 455.625 331.574219 457.242188 326.90625 C 461.035156 315.851562 455.210938 303.777344 444.160156 299.878906 C 433.089844 295.972656 420.9375 301.753906 416.980469 312.800781 C 415.796875 316.15625 414.316406 319.390625 413.125 322.734375 C 395.652344 363.957031 361.707031 397.34375 320.230469 414.171875 C 299.785156 422.464844 278.175781 426.667969 256 426.667969 C 233.824219 426.667969 212.214844 422.464844 191.765625 414.171875 C 170.609375 405.59375 151.621094 392.976562 135.316406 376.675781 C 135.269531 376.628906 135.222656 376.582031 135.171875 376.535156 C 128.773438 370.136719 106.101562 347.984375 77.390625 320 L 149.332031 320 C 161.113281 320 170.667969 310.449219 170.667969 298.667969 C 170.667969 286.886719 161.113281 277.332031 149.332031 277.332031 L 21.332031 277.332031 C 9.550781 277.332031 0 286.886719 0 298.667969 L 0 426.667969 C 0 438.449219 9.550781 448 21.332031 448 Z M 21.332031 448 "/>
  </g>
</svg>