<?xml version="1.0" encoding="UTF-8" standalone="yes"?>
<svg version="1.1" xmlns="http://www.w3.org/2000/svg" xmlns:xlink="http://www.w3.org/1999/xlink" x="0px" y="0px" viewBox="0 0 512 512" enable-background="new 0 0 512 512" xml:space="preserve">
  <g id="bounds" display="none"><rect display="inline" fill="none" width="512" height="512"/></g><g id="Layer_2">
    <path style=" stroke:none;fill-rule:nonzero;fill:rgb(0%,0%,0%);fill-opacity:1;" d="M 298.667969 192 L 94.164062 192 L 193.515625 92.65625 C 201.84375 84.324219 201.84375 70.816406 193.515625 62.484375 C 185.183594 54.15625 171.675781 54.15625 163.34375 62.484375 L 27.585938 198.246094 C 19.253906 206.574219 19.253906 220.089844 27.585938 228.414062 L 163.34375 364.179688 C 171.675781 372.511719 185.1875 372.511719 193.515625 364.179688 C 201.839844 355.851562 201.84375 342.339844 193.515625 334.011719 L 94.175781 234.667969 L 298.667969 234.667969 C 381.140625 234.667969 448 301.523438 448 384 L 448 405.332031 C 448 417.113281 457.550781 426.667969 469.332031 426.667969 C 481.113281 426.667969 490.667969 417.113281 490.667969 405.332031 L 490.667969 384 C 490.667969 277.957031 404.703125 192 298.667969 192 Z M 298.667969 192 "/>
  </g>
</svg>