<?xml version="1.0" encoding="UTF-8" standalone="yes"?>
<svg version="1.1" xmlns="http://www.w3.org/2000/svg" xmlns:xlink="http://www.w3.org/1999/xlink" x="0px" y="0px" viewBox="0 0 512 512" enable-background="new 0 0 512 512" xml:space="preserve">
  <g id="bounds" display="none"><rect display="inline" fill="none" width="512" height="512"/></g><g id="Layer_2">
    <path style=" stroke:none;fill-rule:nonzero;fill:rgb(0%,0%,0%);fill-opacity:1;" d="M 256 426.667969 C 250.539062 426.667969 245.082031 424.582031 240.910156 420.414062 L 91.578125 271.082031 C 83.246094 262.753906 83.246094 249.246094 91.578125 240.917969 L 240.910156 91.585938 C 249.242188 83.253906 262.753906 83.253906 271.082031 91.585938 C 279.414062 99.914062 279.414062 113.425781 271.082031 121.753906 L 136.835938 256 L 271.082031 390.25 C 279.414062 398.582031 279.414062 412.089844 271.082031 420.414062 C 266.921875 424.582031 261.457031 426.667969 256 426.667969 Z M 399.082031 420.414062 C 407.414062 412.085938 407.414062 398.582031 399.082031 390.25 L 264.835938 256 L 399.082031 121.753906 C 407.414062 113.425781 407.414062 99.914062 399.082031 91.585938 C 390.753906 83.253906 377.242188 83.253906 368.917969 91.585938 L 219.585938 240.917969 C 211.253906 249.246094 211.253906 262.757812 219.585938 271.082031 L 368.917969 420.414062 C 373.082031 424.582031 378.542969 426.667969 384 426.667969 C 389.457031 426.667969 394.917969 424.582031 399.082031 420.414062 Z M 399.082031 420.414062 "/>
  </g>
</svg>