<?xml version="1.0" encoding="UTF-8" standalone="yes"?>
<svg version="1.1" xmlns="http://www.w3.org/2000/svg" xmlns:xlink="http://www.w3.org/1999/xlink" x="0px" y="0px" viewBox="0 0 512 512" enable-background="new 0 0 512 512" xml:space="preserve">
  <g id="bounds" display="none"><rect display="inline" fill="none" width="512" height="512"/></g><g id="Layer_2">
    <path style=" stroke:none;fill-rule:nonzero;fill:rgb(0%,0%,0%);fill-opacity:1;" d="M 283.464844 176.761719 C 266.265625 198.554688 256 226.078125 256 256 C 256 286 248.261719 314.1875 234.667969 338.6875 C 227.1875 352.164062 217.9375 364.535156 207.222656 375.460938 C 176.25 407.054688 133.078125 426.667969 85.332031 426.667969 L 42.667969 426.667969 C 30.886719 426.667969 21.332031 417.113281 21.332031 405.332031 C 21.332031 393.550781 30.886719 384 42.667969 384 L 85.332031 384 C 126.105469 384 162.425781 364.9375 185.867188 335.238281 C 203.066406 313.445312 213.332031 285.921875 213.332031 256 C 213.332031 226 221.070312 197.8125 234.667969 173.3125 C 242.144531 159.835938 251.398438 147.464844 262.113281 136.539062 C 293.082031 104.945312 336.257812 85.332031 384 85.332031 L 417.828125 85.332031 L 368.917969 36.414062 C 360.585938 28.085938 360.585938 14.574219 368.917969 6.25 C 377.246094 -2.078125 390.757812 -2.078125 399.082031 6.25 L 484.414062 91.585938 C 492.746094 99.914062 492.746094 113.425781 484.414062 121.75 L 399.082031 207.082031 C 394.917969 211.246094 389.457031 213.332031 384 213.332031 C 378.542969 213.332031 373.082031 211.246094 368.917969 207.082031 C 360.585938 198.753906 360.585938 185.242188 368.917969 176.917969 L 417.828125 128 L 384 128 C 343.226562 128 306.90625 147.0625 283.464844 176.761719 Z M 42.667969 128 L 85.332031 128 C 126.105469 128 162.425781 147.0625 185.867188 176.761719 C 191.5625 162.539062 198.746094 149.066406 207.226562 136.542969 C 176.25 104.945312 133.078125 85.332031 85.332031 85.332031 L 42.667969 85.332031 C 30.886719 85.332031 21.332031 94.886719 21.332031 106.667969 C 21.332031 118.449219 30.886719 128 42.667969 128 Z M 399.082031 304.917969 C 390.753906 296.585938 377.242188 296.585938 368.917969 304.917969 C 360.585938 313.246094 360.585938 326.757812 368.917969 335.082031 L 417.828125 384 L 384 384 C 343.226562 384 306.90625 364.9375 283.464844 335.238281 C 277.769531 349.460938 270.585938 362.933594 262.105469 375.457031 C 293.082031 407.054688 336.257812 426.667969 384 426.667969 L 417.828125 426.667969 L 368.917969 475.585938 C 360.585938 483.914062 360.585938 497.425781 368.917969 505.75 C 373.082031 509.914062 378.542969 512 384 512 C 389.457031 512 394.917969 509.914062 399.082031 505.75 L 484.414062 420.414062 C 492.746094 412.085938 492.746094 398.574219 484.414062 390.25 Z M 399.082031 304.917969 "/>
  </g>
</svg>