<?xml version="1.0" encoding="UTF-8" standalone="yes"?>
<svg version="1.1" xmlns="http://www.w3.org/2000/svg" xmlns:xlink="http://www.w3.org/1999/xlink" x="0px" y="0px" viewBox="0 0 512 512" enable-background="new 0 0 512 512" xml:space="preserve">
  <g id="bounds" display="none"><rect display="inline" fill="none" width="512" height="512"/></g><g id="Layer_2">
    <path style=" stroke:none;fill-rule:nonzero;fill:rgb(0%,0%,0%);fill-opacity:1;" d="M 310.039062 355.914062 C 276.65625 336.332031 235.222656 336.40625 201.898438 356.078125 C 191.777344 362.078125 188.394531 375.152344 194.390625 385.308594 C 200.378906 395.441406 213.460938 398.804688 223.605469 392.816406 C 243.589844 381.003906 268.4375 380.96875 288.457031 392.710938 C 297.011719 397.71875 307.632812 396.105469 314.332031 389.40625 C 315.589844 388.148438 316.710938 386.710938 317.652344 385.09375 C 323.609375 374.949219 320.203125 361.878906 310.039062 355.914062 Z M 107.460938 266.292969 C 98.316406 273.75 97.011719 287.210938 104.480469 296.324219 C 111.945312 305.429688 125.386719 306.761719 134.5 299.308594 C 204.902344 241.601562 307.105469 241.601562 377.507812 299.289062 C 386.0625 306.289062 398.4375 305.550781 406.089844 297.882812 C 406.59375 297.382812 407.078125 296.863281 407.53125 296.296875 C 414.996094 287.183594 413.652344 273.742188 404.550781 266.277344 C 318.476562 195.753906 193.535156 195.753906 107.460938 266.292969 Z M 495.929688 176.003906 C 359.152344 55.109375 152.847656 55.109375 16.058594 176.003906 C 7.242188 183.695312 6.394531 197.285156 14.203125 206.117188 C 22 214.945312 35.476562 215.78125 44.316406 207.980469 C 164.992188 101.324219 346.996094 101.324219 467.675781 207.980469 C 476.171875 215.476562 488.964844 214.992188 496.878906 207.09375 C 497.199219 206.773438 497.492188 206.457031 497.792969 206.113281 C 505.59375 197.285156 504.761719 183.808594 495.929688 176.003906 Z M 495.929688 176.003906 "/>
  </g>
</svg>