<?xml version="1.0" encoding="UTF-8" standalone="yes"?>
<svg version="1.1" xmlns="http://www.w3.org/2000/svg" xmlns:xlink="http://www.w3.org/1999/xlink" x="0px" y="0px" viewBox="0 0 512 512" enable-background="new 0 0 512 512" xml:space="preserve">
  <g id="bounds" display="none"><rect display="inline" fill="none" width="512" height="512"/></g><g id="Layer_2">
    <path style=" stroke:none;fill-rule:nonzero;fill:rgb(0%,0%,0%);fill-opacity:1;" d="M 112.917969 420.414062 C 104.585938 412.085938 104.585938 398.574219 112.917969 390.25 L 247.164062 256 L 112.917969 121.75 C 104.585938 113.417969 104.585938 99.910156 112.917969 91.585938 C 121.246094 83.253906 134.757812 83.253906 143.082031 91.585938 L 292.414062 240.917969 C 300.746094 249.246094 300.746094 262.757812 292.414062 271.082031 L 143.082031 420.414062 C 138.917969 424.582031 133.457031 426.667969 128 426.667969 C 122.542969 426.667969 117.082031 424.582031 112.917969 420.414062 Z M 362.667969 426.667969 C 374.449219 426.667969 384 417.113281 384 405.332031 L 384 106.667969 C 384 94.886719 374.449219 85.332031 362.667969 85.332031 C 350.886719 85.332031 341.332031 94.886719 341.332031 106.667969 L 341.332031 405.332031 C 341.332031 417.113281 350.886719 426.667969 362.667969 426.667969 Z M 362.667969 426.667969 "/>
  </g>
</svg>