<?xml version="1.0" encoding="UTF-8" standalone="yes"?>
<svg version="1.1" xmlns="http://www.w3.org/2000/svg" xmlns:xlink="http://www.w3.org/1999/xlink" x="0px" y="0px" viewBox="0 0 512 512" enable-background="new 0 0 512 512" xml:space="preserve">
  <g id="bounds" display="none"><rect display="inline" fill="none" width="512" height="512"/></g><g id="Layer_2">
    <path style=" stroke:none;fill-rule:nonzero;fill:rgb(0%,0%,0%);fill-opacity:1;" d="M 377.75 91.585938 C 386.078125 99.914062 386.078125 113.425781 377.75 121.75 L 243.503906 256 L 377.75 390.25 C 386.078125 398.582031 386.078125 412.089844 377.75 420.414062 C 369.417969 428.746094 355.910156 428.746094 347.585938 420.414062 L 198.25 271.082031 C 189.921875 262.753906 189.921875 249.242188 198.25 240.917969 L 347.585938 91.585938 C 351.75 87.417969 357.210938 85.332031 362.667969 85.332031 C 368.121094 85.332031 373.585938 87.417969 377.75 91.585938 Z M 128 85.332031 C 116.21875 85.332031 106.667969 94.886719 106.667969 106.667969 L 106.667969 405.332031 C 106.667969 417.113281 116.21875 426.667969 128 426.667969 C 139.78125 426.667969 149.332031 417.113281 149.332031 405.332031 L 149.332031 106.667969 C 149.332031 94.886719 139.78125 85.332031 128 85.332031 Z M 128 85.332031 "/>
  </g>
</svg>