<?xml version="1.0" encoding="UTF-8" standalone="yes"?>
<svg version="1.1" xmlns="http://www.w3.org/2000/svg" xmlns:xlink="http://www.w3.org/1999/xlink" x="0px" y="0px" viewBox="0 0 512 512" enable-background="new 0 0 512 512" xml:space="preserve">
  <g id="bounds" display="none"><rect display="inline" fill="none" width="512" height="512"/></g><g id="Layer_2">
    <path style=" stroke:none;fill-rule:nonzero;fill:rgb(0%,0%,0%);fill-opacity:1;" d="M 426.667969 64 C 438.433594 64 448 73.566406 448 85.332031 L 448 320 C 448 331.761719 438.433594 341.328125 426.667969 341.328125 L 242.332031 341.328125 L 149.332031 407.753906 L 149.332031 341.328125 L 85.332031 341.328125 C 73.5625 341.328125 64 331.761719 64 320 L 64 85.332031 C 64 73.5625 73.566406 64 85.332031 64 L 426.667969 64 M 426.667969 21.332031 L 85.332031 21.332031 C 49.988281 21.332031 21.332031 49.988281 21.332031 85.332031 L 21.332031 320 C 21.332031 355.34375 49.988281 384 85.332031 384 L 106.667969 384 L 106.667969 490.667969 L 256 384 L 426.667969 384 C 462.011719 384 490.667969 355.34375 490.667969 320 L 490.667969 85.332031 C 490.667969 49.988281 462.011719 21.332031 426.667969 21.332031 Z M 426.667969 21.332031 "/>
  </g>
</svg>