<?xml version="1.0" encoding="UTF-8" standalone="yes"?>
<svg version="1.1" xmlns="http://www.w3.org/2000/svg" xmlns:xlink="http://www.w3.org/1999/xlink" x="0px" y="0px" viewBox="0 0 512 512" enable-background="new 0 0 512 512" xml:space="preserve">
  <g id="bounds" display="none"><rect display="inline" fill="none" width="512" height="512"/></g><g id="Layer_2">
    <path style=" stroke:none;fill-rule:nonzero;fill:rgb(0%,0%,0%);fill-opacity:1;" d="M 85.332031 405.332031 L 85.332031 131.675781 C 60.480469 140.425781 42.667969 164.105469 42.667969 192 L 42.667969 405.332031 C 42.667969 440.691406 71.308594 469.332031 106.667969 469.332031 L 320 469.332031 C 347.894531 469.332031 371.574219 451.519531 380.324219 426.667969 L 106.667969 426.667969 C 94.878906 426.667969 85.332031 417.121094 85.332031 405.332031 Z M 405.332031 42.667969 L 192 42.667969 C 156.640625 42.667969 128 71.308594 128 106.667969 L 128 320 C 128 355.359375 156.640625 384 192 384 L 405.332031 384 C 440.691406 384 469.332031 355.359375 469.332031 320 L 469.332031 106.667969 C 469.332031 71.308594 440.691406 42.667969 405.332031 42.667969 Z M 426.667969 320 C 426.667969 331.785156 417.121094 341.332031 405.332031 341.332031 L 192 341.332031 C 180.214844 341.332031 170.667969 331.785156 170.667969 320 L 170.667969 106.667969 C 170.667969 94.878906 180.214844 85.332031 192 85.332031 L 405.332031 85.332031 C 417.121094 85.332031 426.667969 94.878906 426.667969 106.667969 Z M 426.667969 320 "/>
  </g>
</svg>