<?xml version="1.0" encoding="UTF-8" standalone="yes"?>
<svg version="1.1" xmlns="http://www.w3.org/2000/svg" xmlns:xlink="http://www.w3.org/1999/xlink" x="0px" y="0px" viewBox="0 0 512 512" enable-background="new 0 0 512 512" xml:space="preserve">
  <g id="bounds" display="none"><rect display="inline" fill="none" width="512" height="512"/></g><g id="Layer_2">
    <path style=" stroke:none;fill-rule:nonzero;fill:rgb(0%,0%,0%);fill-opacity:1;" d="M 384 64 L 128 64 C 92.640625 64 64 92.640625 64 128 L 64 384 C 64 419.359375 92.640625 448 128 448 L 384 448 C 419.359375 448 448 419.359375 448 384 L 448 128 C 448 92.640625 419.359375 64 384 64 Z M 405.332031 384 C 405.332031 395.785156 395.785156 405.332031 384 405.332031 L 128 405.332031 C 116.214844 405.332031 106.667969 395.785156 106.667969 384 L 106.667969 128 C 106.667969 116.214844 116.214844 106.667969 128 106.667969 L 384 106.667969 C 395.785156 106.667969 405.332031 116.214844 405.332031 128 Z M 405.332031 384 "/>
  </g>
</svg>