<?xml version="1.0" encoding="UTF-8" standalone="yes"?>
<svg version="1.1" xmlns="http://www.w3.org/2000/svg" xmlns:xlink="http://www.w3.org/1999/xlink" x="0px" y="0px" viewBox="0 0 512 512" enable-background="new 0 0 512 512" xml:space="preserve">
  <g id="bounds" display="none"><rect display="inline" fill="none" width="512" height="512"/></g><g id="Layer_2">
    <path style=" stroke:none;fill-rule:nonzero;fill:rgb(0%,0%,0%);fill-opacity:1;" d="M 245.023438 64 L 441.75 260.734375 C 447.1875 266.164062 448 272.515625 448 275.820312 C 448 279.113281 447.1875 285.464844 441.75 290.902344 L 290.902344 441.75 C 285.460938 447.1875 279.113281 448 275.820312 448 C 272.515625 448 266.164062 447.1875 260.730469 441.75 L 64 245.019531 L 64 64 L 245.023438 64 M 262.691406 21.332031 L 21.332031 21.332031 L 21.332031 262.691406 L 230.558594 471.921875 C 243.0625 484.414062 259.441406 490.667969 275.820312 490.667969 C 292.191406 490.667969 308.574219 484.414062 321.070312 471.921875 L 471.921875 321.070312 C 496.910156 296.074219 496.910156 255.558594 471.921875 230.558594 Z M 181.332031 128 C 151.878906 128 128 151.882812 128 181.332031 C 128 210.785156 151.878906 234.667969 181.332031 234.667969 C 210.785156 234.667969 234.667969 210.785156 234.667969 181.332031 C 234.667969 151.882812 210.789062 128 181.332031 128 Z M 181.332031 192 C 175.445312 192 170.667969 187.222656 170.667969 181.332031 C 170.667969 175.445312 175.445312 170.667969 181.332031 170.667969 C 187.222656 170.667969 192 175.445312 192 181.332031 C 192 187.222656 187.226562 192 181.332031 192 Z M 181.332031 192 "/>
  </g>
</svg>