<?xml version="1.0" encoding="UTF-8" standalone="yes"?>
<svg version="1.1" xmlns="http://www.w3.org/2000/svg" xmlns:xlink="http://www.w3.org/1999/xlink" x="0px" y="0px" viewBox="0 0 512 512" enable-background="new 0 0 512 512" xml:space="preserve">
  <g id="bounds" display="none"><rect display="inline" fill="none" width="512" height="512"/></g><g id="Layer_2">
    <path style=" stroke:none;fill-rule:nonzero;fill:rgb(0%,0%,0%);fill-opacity:1;" d="M 341.332031 85.332031 L 170.667969 85.332031 C 76.425781 85.332031 0 161.761719 0 256 C 0 350.238281 76.425781 426.667969 170.667969 426.667969 L 341.332031 426.667969 C 435.574219 426.667969 512 350.238281 512 256 C 512 161.761719 435.574219 85.332031 341.332031 85.332031 Z M 341.332031 384 L 170.667969 384 C 99.972656 384 42.667969 326.691406 42.667969 256 C 42.667969 185.308594 99.972656 128 170.667969 128 L 341.332031 128 C 412.027344 128 469.332031 185.308594 469.332031 256 C 469.332031 326.691406 412.027344 384 341.332031 384 Z M 170.667969 170.667969 C 123.542969 170.667969 85.332031 208.875 85.332031 256 C 85.332031 303.125 123.542969 341.332031 170.667969 341.332031 C 217.792969 341.332031 256 303.125 256 256 C 256 208.875 217.792969 170.667969 170.667969 170.667969 Z M 170.667969 298.667969 C 147.105469 298.667969 128 279.5625 128 256 C 128 232.4375 147.105469 213.332031 170.667969 213.332031 C 194.230469 213.332031 213.332031 232.4375 213.332031 256 C 213.332031 279.5625 194.230469 298.667969 170.667969 298.667969 Z M 170.667969 298.667969 "/>
  </g>
</svg>