<?xml version="1.0" encoding="UTF-8" standalone="yes"?>
<svg version="1.1" xmlns="http://www.w3.org/2000/svg" xmlns:xlink="http://www.w3.org/1999/xlink" x="0px" y="0px" viewBox="0 0 512 512" enable-background="new 0 0 512 512" xml:space="preserve">
  <g id="bounds" display="none"><rect display="inline" fill="none" width="512" height="512"/></g><g id="Layer_2">
    <path style=" stroke:none;fill-rule:nonzero;fill:rgb(0%,0%,0%);fill-opacity:1;" d="M 362.667969 209.449219 L 362.667969 170.667969 C 362.667969 135.308594 334.027344 106.667969 298.667969 106.667969 L 64 106.667969 C 28.640625 106.667969 0 135.308594 0 170.667969 L 0 341.332031 C 0 376.691406 28.640625 405.332031 64 405.332031 L 298.667969 405.332031 C 334.027344 405.332031 362.667969 376.691406 362.667969 341.332031 L 362.667969 302.550781 L 512 384 L 512 128 Z M 320 341.332031 C 320 353.121094 310.453125 362.667969 298.667969 362.667969 L 64 362.667969 C 52.214844 362.667969 42.667969 353.121094 42.667969 341.332031 L 42.667969 170.667969 C 42.667969 158.878906 52.214844 149.332031 64 149.332031 L 298.667969 149.332031 C 310.453125 149.332031 320 158.878906 320 170.667969 Z M 469.332031 312.121094 L 366.4375 256 L 469.332031 199.878906 Z M 469.332031 312.121094 "/>
  </g>
</svg>