<?xml version="1.0" encoding="UTF-8" standalone="yes"?>
<svg version="1.1" xmlns="http://www.w3.org/2000/svg" xmlns:xlink="http://www.w3.org/1999/xlink" x="0px" y="0px" viewBox="0 0 512 512" enable-background="new 0 0 512 512" xml:space="preserve">
  <g id="bounds" display="none"><rect display="inline" fill="none" width="512" height="512"/></g><g id="Layer_2">
    <path style=" stroke:none;fill-rule:nonzero;fill:rgb(0%,0%,0%);fill-opacity:1;" d="M 64 170.667969 C 28.640625 170.667969 0 200.199219 0 235.558594 L 0 277.332031 C 0 312.691406 28.640625 341.332031 64 341.332031 L 106.667969 341.332031 L 213.332031 448 L 213.332031 64 L 106.667969 170.667969 Z M 170.660156 166.171875 L 170.667969 165.332031 L 170.667969 345.003906 L 124.332031 298.667969 L 64 298.667969 C 52.234375 298.667969 42.667969 289.097656 42.667969 277.332031 L 42.667969 235.558594 C 42.667969 223.507812 52.4375 213.332031 64 213.332031 L 124.332031 213.332031 Z M 375.222656 386.6875 C 371.492188 386.6875 367.722656 385.710938 364.292969 383.664062 C 354.179688 377.617188 350.878906 364.523438 356.929688 354.410156 C 365.625 339.855469 372.351562 324.222656 376.90625 307.945312 C 381.609375 291.148438 383.996094 273.683594 383.996094 256.054688 C 383.996094 238.421875 381.609375 220.960938 376.90625 204.160156 C 372.351562 187.882812 365.625 172.25 356.929688 157.695312 C 350.878906 147.585938 354.175781 134.484375 364.292969 128.441406 C 374.40625 122.394531 387.503906 125.691406 393.546875 135.808594 C 404.1875 153.609375 412.410156 172.734375 417.988281 192.65625 C 423.75 213.195312 426.667969 234.527344 426.667969 256.046875 C 426.667969 277.566406 423.75 298.902344 417.996094 319.449219 C 412.414062 339.371094 404.191406 358.496094 393.550781 376.296875 C 389.558594 382.980469 382.480469 386.6875 375.222656 386.6875 Z M 439.066406 445.214844 C 434.9375 445.214844 430.757812 444.015625 427.082031 441.519531 C 417.34375 434.890625 414.820312 421.621094 421.449219 411.878906 C 452.777344 365.84375 469.332031 311.960938 469.332031 256.046875 C 469.332031 200.132812 452.777344 146.25 421.449219 100.21875 C 414.820312 90.480469 417.339844 77.210938 427.082031 70.574219 C 436.820312 63.953125 450.089844 66.46875 456.726562 76.214844 C 492.886719 129.347656 512 191.535156 512 256.046875 C 512 320.558594 492.886719 382.746094 456.726562 435.882812 C 452.59375 441.945312 445.886719 445.214844 439.066406 445.214844 Z M 310.046875 326.9375 C 307.289062 326.9375 304.492188 326.398438 301.792969 325.269531 C 290.929688 320.703125 285.824219 308.203125 290.390625 297.339844 C 295.882812 284.261719 298.667969 270.367188 298.667969 256.046875 C 298.667969 241.636719 295.851562 227.675781 290.292969 214.539062 C 285.707031 203.683594 290.785156 191.167969 301.632812 186.574219 C 312.484375 181.988281 325.003906 187.066406 329.589844 197.914062 C 337.382812 216.335938 341.332031 235.894531 341.332031 256.046875 C 341.332031 276.078125 337.429688 295.53125 329.722656 313.867188 C 326.292969 322.027344 318.378906 326.9375 310.046875 326.9375 Z M 310.046875 326.9375 "/>
  </g>
</svg>