<?xml version="1.0" encoding="UTF-8" standalone="yes"?>
<svg version="1.1" xmlns="http://www.w3.org/2000/svg" xmlns:xlink="http://www.w3.org/1999/xlink" x="0px" y="0px" viewBox="0 0 512 512" enable-background="new 0 0 512 512" xml:space="preserve">
  <g id="bounds" display="none"><rect display="inline" fill="none" width="512" height="512"/></g><g id="Layer_2">
    <path style=" stroke:none;fill-rule:nonzero;fill:rgb(0%,0%,0%);fill-opacity:1;" d="M 384 112.929688 L 384 64 C 384 28.640625 355.359375 0 320 0 L 192 0 C 156.640625 0 128 28.640625 128 64 L 128 112.929688 C 88.730469 148.085938 64 199.148438 64 256 C 64 312.851562 88.730469 363.914062 128 399.070312 L 128 448 C 128 483.359375 156.640625 512 192 512 L 320 512 C 355.359375 512 384 483.359375 384 448 L 384 399.070312 C 423.269531 363.914062 448 312.851562 448 256 C 448 199.148438 423.269531 148.085938 384 112.929688 Z M 170.667969 64 C 170.667969 52.214844 180.214844 42.667969 192 42.667969 L 320 42.667969 C 331.785156 42.667969 341.332031 52.214844 341.332031 64 L 341.332031 84.003906 C 315.625 71.222656 286.660156 64 256 64 C 225.339844 64 196.378906 71.222656 170.667969 84.003906 Z M 341.332031 448 C 341.332031 459.785156 331.785156 469.332031 320 469.332031 L 192 469.332031 C 180.214844 469.332031 170.667969 459.785156 170.667969 448 L 170.667969 427.996094 C 196.378906 440.777344 225.339844 448 256 448 C 286.660156 448 315.625 440.777344 341.332031 427.996094 Z M 256 405.332031 C 173.523438 405.332031 106.667969 338.476562 106.667969 256 C 106.667969 173.523438 173.523438 106.667969 256 106.667969 C 338.476562 106.667969 405.332031 173.523438 405.332031 256 C 405.332031 338.476562 338.476562 405.332031 256 405.332031 Z M 298.667969 320 C 293.210938 320 287.75 317.914062 283.585938 313.75 L 240.917969 271.082031 C 236.917969 267.082031 234.667969 261.660156 234.667969 256 L 234.667969 170.667969 C 234.667969 158.886719 244.21875 149.332031 256 149.332031 C 267.78125 149.332031 277.332031 158.886719 277.332031 170.667969 L 277.332031 247.164062 L 313.75 283.585938 C 322.078125 291.914062 322.078125 305.425781 313.75 313.75 C 309.585938 317.914062 304.121094 320 298.667969 320 Z M 298.667969 320 "/>
  </g>
</svg>