<?xml version="1.0" encoding="UTF-8" standalone="yes"?>
<svg version="1.1" xmlns="http://www.w3.org/2000/svg" xmlns:xlink="http://www.w3.org/1999/xlink" x="0px" y="0px" viewBox="0 0 512 512" enable-background="new 0 0 512 512" xml:space="preserve">
  <g id="bounds" display="none"><rect display="inline" fill="none" width="512" height="512"/></g><g id="Layer_2">
    <path style=" stroke:none;fill-rule:nonzero;fill:rgb(0%,0%,0%);fill-opacity:1;" d="M 484.421875 454.25 L 363.347656 333.179688 C 389.625 300.332031 405.332031 258.667969 405.332031 213.332031 C 405.332031 107.296875 319.375 21.332031 213.332031 21.332031 C 107.296875 21.332031 21.332031 107.296875 21.332031 213.332031 C 21.332031 319.371094 107.296875 405.332031 213.332031 405.332031 C 258.667969 405.332031 300.332031 389.621094 333.179688 363.34375 L 454.25 484.414062 C 458.414062 488.582031 463.878906 490.667969 469.332031 490.667969 C 474.792969 490.667969 480.257812 488.582031 484.421875 484.414062 C 492.753906 476.089844 492.753906 462.574219 484.421875 454.25 Z M 213.332031 362.667969 C 130.859375 362.667969 64 295.808594 64 213.332031 C 64 130.859375 130.859375 64 213.332031 64 C 295.8125 64 362.667969 130.859375 362.667969 213.332031 C 362.667969 295.808594 295.8125 362.667969 213.332031 362.667969 Z M 298.667969 213.332031 C 298.667969 225.113281 289.121094 234.667969 277.332031 234.667969 L 234.667969 234.667969 L 234.667969 277.332031 C 234.667969 289.113281 225.121094 298.667969 213.332031 298.667969 C 201.550781 298.667969 192 289.113281 192 277.332031 L 192 234.667969 L 149.332031 234.667969 C 137.550781 234.667969 128 225.113281 128 213.332031 C 128 201.550781 137.550781 192 149.332031 192 L 192 192 L 192 149.332031 C 192 137.550781 201.550781 128 213.332031 128 C 225.121094 128 234.667969 137.550781 234.667969 149.332031 L 234.667969 192 L 277.332031 192 C 289.121094 192 298.667969 201.550781 298.667969 213.332031 Z M 298.667969 213.332031 "/>
  </g>
</svg>