<?xml version="1.0" encoding="UTF-8" standalone="no"?>
<svg
   xmlns:dc="http://purl.org/dc/elements/1.1/"
   xmlns:cc="http://creativecommons.org/ns#"
   xmlns:rdf="http://www.w3.org/1999/02/22-rdf-syntax-ns#"
   xmlns:svg="http://www.w3.org/2000/svg"
   xmlns="http://www.w3.org/2000/svg"
   xmlns:sodipodi="http://sodipodi.sourceforge.net/DTD/sodipodi-0.dtd"
   xmlns:inkscape="http://www.inkscape.org/namespaces/inkscape"
   version="1.1"
   width="130"
   height="130"
   viewBox="0 0 130 130"
   enable-background="new 0 0 24.00 24.00"
   xml:space="preserve"
   id="svg2"
   inkscape:version="0.91 r"
   sodipodi:docname="account-circle.svg"><metadata
     id="metadata10"><rdf:RDF><cc:Work
         rdf:about=""><dc:format>image/svg+xml</dc:format><dc:type
           rdf:resource="http://purl.org/dc/dcmitype/StillImage" /><dc:title /></cc:Work></rdf:RDF></metadata><defs
     id="defs8" /><sodipodi:namedview
     pagecolor="#ffffff"
     bordercolor="#666666"
     borderopacity="1"
     objecttolerance="10"
     gridtolerance="10"
     guidetolerance="10"
     inkscape:pageopacity="0"
     inkscape:pageshadow="2"
     inkscape:window-width="1920"
     inkscape:window-height="1023"
     id="namedview6"
     showgrid="false"
     inkscape:zoom="2.4583333"
     inkscape:cx="-14.358034"
     inkscape:cy="13.274349"
     inkscape:window-x="0"
     inkscape:window-y="34"
     inkscape:window-maximized="1"
     inkscape:current-layer="svg2"
     fit-margin-top="1"
     fit-margin-left="1"
     fit-margin-right="1"
     fit-margin-bottom="1" /><path
     d="m 65,111.07999 c -16.0256,0 -30.1248,-8.18496 -38.3872,-20.607357 0.1664,-12.7168 25.6256,-19.712 38.3872,-19.712 12.7616,0 38.2208,6.9952 38.3872,19.712 C 95.1248,102.89503 81.0256,111.07999 65,111.07999 Z m 0,-90.879805 c 10.5984,0 19.2,8.601536 19.2,19.2 0,10.611328 -8.6016,19.199808 -19.2,19.199808 -10.5984,0 -19.2,-8.58848 -19.2,-19.199808 0,-10.598464 8.6016,-19.2 19.2,-19.2 z M 65,1.0001831 c -35.3472,0 -64,28.6464659 -64,63.9998099 0,35.347197 28.6528,63.999997 64,63.999997 35.3472,0 64,-28.6528 64,-63.999997 C 129,29.646649 100.3472,1.0001831 65,1.0001831 Z"
     id="path4"
     class="icon-fill"
     inkscape:connector-curvature="0" /></svg>