<svg version="1" xmlns="http://www.w3.org/2000/svg" viewBox="0 0 32 32" enable-background="new 0 0 32 32">
  <path
     id="path9908" class="t-fill__2--light"
     d="M 26.125,3.219 C 26.053,3.255 26,3.362 26,3.5 L 26,6 23.5,6 c -1.126,0 -1.985,0.36 -2.781,1.156 l -0.063,0.063 -4.719,4.719 2.125,2.125 4.781,-4.781 c -0.016,0.016 0.679,-0.281 0.656,-0.281 l 2.5,0 0,2.5 c 0,0.276 0.185,0.354 0.406,0.188 l 5.188,-3.875 c 0.221,-0.166 0.221,-0.459 0,-0.625 L 26.405,3.314 C 26.295,3.231 26.196,3.184 26.124,3.22 Z" />
  <path
     id="path9906" class="t-fill__2--dark"
     d="M 0,6 0,9 5.5,9 C 5.48,9 6.17,9.295 6.156,9.281 L 20.719,23.844 C 21.515,24.64 22.374,25 23.5,25 l 2.5,0 0,2.5 c 0,0.276 0.185,0.354 0.406,0.188 l 5.188,-3.875 c 0.221,-0.166 0.221,-0.459 0,-0.625 L 26.406,19.313 C 26.185,19.147 26,19.225 26,19.501 l 0,2.5 -2.5,0 c 0.022,0 -0.672,-0.297 -0.656,-0.281 L 8.281,7.157 C 7.485,6.361 6.624,6.001 5.5,6.001 l -5.5,0 z" />
  <path
     id="path4" class="t-fill__2--light"
     d="M 10.938,16.938 6.157,21.719 C 6.17,21.706 5.478,22 5.501,22 l -5.5,0 0,3 5.5,0 c 1.126,0 1.986,-0.363 2.781,-1.156 l 4.781,-4.781 -2.125,-2.125 z" />
</svg>
