<?xml version="1.0" encoding="UTF-8" standalone="no"?>
<svg id="svg2" xmlns:rdf="http://www.w3.org/1999/02/22-rdf-syntax-ns#" xmlns="http://www.w3.org/2000/svg" viewBox="0 0 48 48" version="1" enable-background="new 0 0 32 32" xmlns:cc="http://creativecommons.org/ns#" xmlns:dc="http://purl.org/dc/elements/1.1/">
 <g id="g9904" transform="translate(3.0002 -7.0005)">
  <path id="path9908" d="m34.548 14.016c-0.09521 0.04982-0.1653 0.19791-0.1653 0.3889v3.4599h-3.3061c-1.4891 0-2.625 0.49823-3.6777 1.5999l-0.08331 0.08719-6.2405 6.531 2.8102 2.941 6.3225-6.6168c-0.02116 0.02214 0.89793-0.3889 0.86751-0.3889h3.3061v3.4599c0 0.38198 0.24465 0.48993 0.53691 0.26019l6.8608-5.3629c0.29226-0.22974 0.29226-0.63525 0-0.86499l-6.861-5.362c-0.146-0.1148-0.277-0.1799-0.372-0.1301z" class="t-fill__2--light"/>
  <path id="path9906" d="m0 17.864v4.1519h7.2734c-0.026449 0 0.88603 0.40827 0.86751 0.3889l19.258 20.155c1.0527 1.1016 2.1886 1.5999 3.6777 1.5999h3.3061v3.4599c0 0.38198 0.24465 0.48993 0.53691 0.26019l6.8608-5.3629c0.29226-0.22974 0.29226-0.63525 0-0.86499l-6.8608-5.3629c-0.29226-0.22974-0.53691-0.12179-0.53691 0.26019v3.4599h-3.3061c0.02909 0-0.88867-0.41104-0.86751-0.3889l-19.258-20.154c-1.053-1.102-2.1912-1.6002-3.6776-1.6002h-7.2734z" class="t-fill__2--dark"/>
  <path id="path4" d="m14.465 33.002-6.3228 6.617c0.017192-0.01799-0.89793 0.3889-0.86751 0.3889h-7.2734v4.1519h7.2734c1.4891 0 2.6263-0.50238 3.6777-1.5999l6.3225-6.6168-2.8102-2.941z" class="t-fill__2--light"/>
 </g>
</svg>
