<?xml version="1.0" encoding="UTF-8" standalone="no"?>
<svg
   xmlns:dc="http://purl.org/dc/elements/1.1/"
   xmlns:cc="http://creativecommons.org/ns#"
   xmlns:rdf="http://www.w3.org/1999/02/22-rdf-syntax-ns#"
   xmlns:svg="http://www.w3.org/2000/svg"
   xmlns="http://www.w3.org/2000/svg"
   id="svg2"
   xml:space="preserve"
   enable-background="new 0 0 24.00 24.00"
   viewBox="0 0 130 130"
   height="130"
   width="130"
   version="1.1"><defs
   id="defs8" /><path
   class="icon-fill"
   id="path4"
   d="m 27.181818,120.2727 c -4.542196,0 -8.476567,-2.60248 -10.393251,-6.39768 l -0.03427,0.009 L 1.5886836,58.825715 1,56.272697 c 0,-3.213265 2.6048582,-5.818124 5.8181818,-5.818124 l 26.6354622,0 L 60.233745,12.20829 C 61.286255,10.70813 63.028218,9.7273015 65,9.7273015 c 2.001455,0 3.767273,1.0108505 4.813964,2.5499915 l 26.732218,38.17728 26.635638,0 c 3.21338,0 5.81818,2.604859 5.81818,5.818124 l -0.24378,1.672145 -15.54502,55.930178 c -1.91651,3.7952 -5.85076,6.39768 -10.39302,6.39768 l -75.636362,0 z M 65,25.689192 l -17.340975,24.76544 34.682066,0 L 65,25.689192 Z m 0,48.03805 c -6.426764,0 -11.636364,5.2096 -11.636364,11.636364 0,6.426762 5.2096,11.636362 11.636364,11.636362 6.426764,0 11.636364,-5.2096 11.636364,-11.636362 0,-6.426764 -5.2096,-11.636364 -11.636364,-11.636364 z" /> /&gt;<metadata
   id="metadata4159"><rdf:RDF><cc:Work
       rdf:about=""><dc:title></dc:title></cc:Work></rdf:RDF></metadata></svg>