<?xml version="1.0" encoding="UTF-8" standalone="no"?>
<svg
   xmlns:dc="http://purl.org/dc/elements/1.1/"
   xmlns:cc="http://creativecommons.org/ns#"
   xmlns:rdf="http://www.w3.org/1999/02/22-rdf-syntax-ns#"
   xmlns:svg="http://www.w3.org/2000/svg"
   xmlns="http://www.w3.org/2000/svg"
   xmlns:sodipodi="http://sodipodi.sourceforge.net/DTD/sodipodi-0.dtd"
   xmlns:inkscape="http://www.inkscape.org/namespaces/inkscape"
   id="svg2"
   enable-background="new 0 0 48 48"
   viewBox="0 0 48 48"
   version="1"
   inkscape:version="0.91 r"
   sodipodi:docname="chat.svg">
  <metadata
     id="metadata8">
    <rdf:RDF>
      <cc:Work
         rdf:about="">
        <dc:format>image/svg+xml</dc:format>
        <dc:type
           rdf:resource="http://purl.org/dc/dcmitype/StillImage" />
        <dc:title></dc:title>
      </cc:Work>
    </rdf:RDF>
  </metadata>
  <sodipodi:namedview
     pagecolor="#ffffff"
     bordercolor="#666666"
     borderopacity="1"
     objecttolerance="10"
     gridtolerance="10"
     guidetolerance="10"
     inkscape:pageopacity="0"
     inkscape:pageshadow="2"
     inkscape:window-width="1920"
     inkscape:window-height="1053"
     id="namedview6"
     showgrid="false"
     inkscape:zoom="4.9166667"
     inkscape:cx="-8.8474576"
     inkscape:cy="24"
     inkscape:window-x="1920"
     inkscape:window-y="82"
     inkscape:window-maximized="1"
     inkscape:current-layer="svg2" />
  <defs
     id="defs14" />
  <g
     id="g9902"
     transform="matrix(0.9047619,0,0,0.9047619,2.2857144,1.3809525)">
    <path
       class="t-fill__2--dark"
       d="m 15,40 23,0 6,6 0,-21 c 0,-2.2 -1.8,-4 -4,-4 l -25,0 c -2.2,0 -4,1.8 -4,4 l 0,11 c 0,2.2 1.8,4 4,4 z"
       id="path4"
       inkscape:connector-curvature="0" />
    <path
       class="t-fill__2"
       d="M 33,25 10,25 4,31 4,8 C 4,5.8 5.8,4 8,4 l 25,0 c 2.2,0 4,1.8 4,4 l 0,13 c 0,2.2 -1.8,4 -4,4 z"
       id="path8"
       inkscape:connector-curvature="0" />
  </g>
</svg>
