<?xml version="1.0" encoding="UTF-8" standalone="no"?>
<svg
   xmlns:dc="http://purl.org/dc/elements/1.1/"
   xmlns:cc="http://creativecommons.org/ns#"
   xmlns:rdf="http://www.w3.org/1999/02/22-rdf-syntax-ns#"
   xmlns:svg="http://www.w3.org/2000/svg"
   xmlns="http://www.w3.org/2000/svg"
   xmlns:sodipodi="http://sodipodi.sourceforge.net/DTD/sodipodi-0.dtd"
   xmlns:inkscape="http://www.inkscape.org/namespaces/inkscape"
   version="1.1"
   id="Layer_1"
   x="0px"
   y="0px"
   viewBox="3.2 -6.4 30.72 41.472"
   enable-background="new 0 0 64 64"
   xml:space="preserve"
   height="48"
   width="48"
   inkscape:version="0.91 r13725"
   sodipodi:docname="noun_134300_cc.svg"><metadata
     id="metadata15"><rdf:RDF><cc:Work
         rdf:about=""><dc:format>image/svg+xml</dc:format><dc:type
           rdf:resource="http://purl.org/dc/dcmitype/StillImage" /><dc:title></dc:title></cc:Work></rdf:RDF></metadata><defs
     id="defs13" /><sodipodi:namedview
     pagecolor="#ffffff"
     bordercolor="#666666"
     borderopacity="1"
     objecttolerance="10"
     gridtolerance="10"
     guidetolerance="10"
     inkscape:pageopacity="0"
     inkscape:pageshadow="2"
     inkscape:window-width="1920"
     inkscape:window-height="1007"
     id="namedview11"
     showgrid="false"
     fit-margin-top="3"
     fit-margin-left="3.25"
     fit-margin-right="3.25"
     fit-margin-bottom="3"
     inkscape:zoom="3.337544"
     inkscape:cx="50.811101"
     inkscape:cy="35.764387"
     inkscape:window-x="0"
     inkscape:window-y="27"
     inkscape:window-maximized="1"
     inkscape:current-layer="g3" /><g
     id="g3"
     transform="translate(-0.26426662,-31.02)"><polygon
       points="28.6,13.1 28.6,20.7 14.8,26.5 14.8,37 0.9,42.9 0.9,63.5 28.6,63.5 28.6,40 35.4,40 35.4,63.5 63.1,63.5 63.1,42.9 49.2,37 49.2,26.5 35.4,20.6 35.4,13.1 42.4,13.1 42.4,6.2 35.4,6.2 35.4,0.5 28.6,0.5 28.6,6.2 21.5,6.2 21.5,13.1 "
       id="polygon5"
       class="t-fill__2--light"
       style="fill:#000000"
       transform="matrix(0.57646302,0,0,0.576,0.38118328,26.924)" /></g></svg>