<?xml version="1.0" encoding="UTF-8" standalone="no"?>
<svg
   xmlns:dc="http://purl.org/dc/elements/1.1/"
   xmlns:cc="http://creativecommons.org/ns#"
   xmlns:rdf="http://www.w3.org/1999/02/22-rdf-syntax-ns#"
   xmlns:svg="http://www.w3.org/2000/svg"
   xmlns="http://www.w3.org/2000/svg"
   xmlns:sodipodi="http://sodipodi.sourceforge.net/DTD/sodipodi-0.dtd"
   xmlns:inkscape="http://www.inkscape.org/namespaces/inkscape"
   version="1.1"
   id="svg2"
   viewBox="0 0 48 48"
   inkscape:version="0.91 r"
   sodipodi:docname="letter.svg"
   class="letter-icon"
   width="48"
   height="48">
  <sodipodi:namedview
     inkscape:zoom="9.8333331"
     inkscape:cx="0.53021732"
     inkscape:cy="27.110393"
     inkscape:window-width="1920"
     inkscape:window-height="1023"
     inkscape:window-x="0"
     inkscape:window-y="30"
     inkscape:window-maximized="1"
     inkscape:current-layer="svg2" />
  <metadata
     id="metadata73">
    <rdf:RDF>
      <cc:Work
         rdf:about="">
        <dc:format>image/svg+xml</dc:format>
        <dc:type
           rdf:resource="http://purl.org/dc/dcmitype/StillImage" />
        <dc:title />
      </cc:Work>
    </rdf:RDF>
  </metadata>
  <defs
     id="defs4" />
  <g
     id="g33" />
  <g
     transform="matrix(1.7323496,0,0,1.7323496,-18.027198,-15.610009)"
     id="g9967">
    <g
       id="g53"
       transform="matrix(1.0719207,0,0,1.0719207,-1.4621161,-0.7194944)">
      <path
         d="m 13.777,34 20.445,0 c 1.777,0 1.777,0 1.777,-1.715 l 0,-14.57 -12,-7.711 -12,7.711 0,14.57 c 0,1.715 0,1.715 1.781,1.715 m 0,0"
         id="path59"
         style="fill:#bbdaff;fill-opacity:1;fill-rule:nonzero;stroke:none"
         inkscape:connector-curvature="0" />
      <path
         d="m 14,12 0,20 19.996,0 0,-20 M 14,12"
         id="path61"
         style="fill:#f9f9f9;fill-opacity:1;fill-rule:nonzero;stroke:none;stroke-opacity:1"
         inkscape:connector-curvature="0" />
      <path
         d="m 13.777,34 20.445,0 c 1.777,0 1.777,0 1.777,-1.68 l 0,-14.316 -24,14.316 c 0,1.68 0,1.68 1.781,1.68 m -0.004,0"
         id="path63"
         style="fill:#cbe3ff;fill-opacity:1;fill-rule:nonzero;stroke:none"
         inkscape:connector-curvature="0" />
      <path
         d="m 34.22,34 -20.445,0 c -1.781,0 -1.781,0 -1.781,-1.68 l 0,-14.316 24,14.316 c 0,1.68 0,1.68 -1.77,1.68 m 0.004,0"
         id="path65"
         style="fill:#e5f2ff;fill-opacity:1;fill-rule:nonzero;stroke:none"
         inkscape:connector-curvature="0" />
    </g>
  </g>
</svg>
