<?xml version="1.0" encoding="UTF-8" standalone="no"?>
<svg
   xmlns:dc="http://purl.org/dc/elements/1.1/"
   xmlns:cc="http://creativecommons.org/ns#"
   xmlns:rdf="http://www.w3.org/1999/02/22-rdf-syntax-ns#"
   xmlns:svg="http://www.w3.org/2000/svg"
   xmlns="http://www.w3.org/2000/svg"
   xmlns:sodipodi="http://sodipodi.sourceforge.net/DTD/sodipodi-0.dtd"
   xmlns:inkscape="http://www.inkscape.org/namespaces/inkscape"
   version="1.1"
   class="letter-icon"
   id="svg2"
   viewBox="0 0 48 48"
   inkscape:version="0.91 r"
   sodipodi:docname="letter.svg">
  <sodipodi:namedview
     pagecolor="#ffffff"
     bordercolor="#666666"
     borderopacity="1"
     objecttolerance="10"
     gridtolerance="10"
     guidetolerance="10"
     inkscape:pageopacity="0"
     inkscape:pageshadow="2"
     inkscape:window-width="1920"
     inkscape:window-height="1023"
     id="namedview37"
     showgrid="false"
     inkscape:zoom="13.906433"
     inkscape:cx="17.569935"
     inkscape:cy="23.854729"
     inkscape:window-x="0"
     inkscape:window-y="30"
     inkscape:window-maximized="1"
     inkscape:current-layer="g53" />
  <metadata
     id="metadata73">
    <rdf:RDF>
      <cc:Work
         rdf:about="">
        <dc:format>image/svg+xml</dc:format>
        <dc:type
           rdf:resource="http://purl.org/dc/dcmitype/StillImage" />
        <dc:title />
      </cc:Work>
    </rdf:RDF>
  </metadata>
  <defs
     id="defs4">
    <clipPath
       id="clipPath-041403289">
      <g
         id="g12"
         transform="translate(0,-1004.3622)">
        <path
           id="path14"
           fill="#1890d0"
           transform="matrix(15.333333,0,0,11.5,414.99999,878.8622)"
           d="m -24 13 c 0 1.105 -0.672 2 -1.5 2 -0.828 0 -1.5 -0.895 -1.5 -2 0 -1.105 0.672 -2 1.5 -2 0.828 0 1.5 0.895 1.5 2 z" />
      </g>
    </clipPath>
    <clipPath
       id="clipPath-046736721">
      <g
         id="g17"
         transform="translate(0,-1004.3622)">
        <path
           id="path19"
           fill="#1890d0"
           transform="matrix(15.333333,0,0,11.5,414.99999,878.8622)"
           d="m -24 13 c 0 1.105 -0.672 2 -1.5 2 -0.828 0 -1.5 -0.895 -1.5 -2 0 -1.105 0.672 -2 1.5 -2 0.828 0 1.5 0.895 1.5 2 z" />
      </g>
    </clipPath>
  </defs>
  <g
     id="g29"
     style="stroke:none;fill:#f5f5f5;fill-opacity:1">
    <path
       style="fill:#f5f5f5;fill-opacity:1;stroke:none"
       id="path31"
       d="M 24,1 C 36.703,1 47,11.297 47,24 47,36.703 36.703,47 24,47 11.297,47 1,36.703 1,24 1,11.297 11.297,1 24,1 Z"
       inkscape:connector-curvature="0" />
  </g>
  <g
     id="g33" />
  <g
     transform="matrix(1.1313955,0,0,1.1313955,-3.4479139,-1.8692504)"
     id="g9967">
    <g
       id="g53"
       transform="matrix(1.0719207,0,0,1.0719207,-1.4621161,-0.7194944)">
      <path
         d="m 13.777,34 20.445,0 c 1.777,0 1.777,0 1.777,-1.715 l 0,-14.57 -12,-7.711 -12,7.711 0,14.57 c 0,1.715 0,1.715 1.781,1.715 m 0,0"
         id="path59"
         style="fill:#004088;fill-opacity:1;fill-rule:nonzero;stroke:none"
         inkscape:connector-curvature="0" />
      <path
         d="m 14,12 0,20 19.996,0 0,-20 M 14,12"
         id="path61"
         style="fill:#ffffff;fill-opacity:1;fill-rule:nonzero;stroke:none;stroke-opacity:1"
         inkscape:connector-curvature="0" />
      <path
         d="m 13.777,34 20.445,0 c 1.777,0 1.777,0 1.777,-1.68 l 0,-14.316 -24,14.316 c 0,1.68 0,1.68 1.781,1.68 m -0.004,0"
         id="path63"
         style="fill:#0058bb;fill-opacity:1;fill-rule:nonzero;stroke:none"
         inkscape:connector-curvature="0" />
      <path
         d="m 34.22,34 -20.445,0 c -1.781,0 -1.781,0 -1.781,-1.68 l 0,-14.316 24,14.316 c 0,1.68 0,1.68 -1.77,1.68 m 0.004,0"
         id="path65"
         style="fill:#0070ee;fill-opacity:1;fill-rule:nonzero;stroke:none"
         inkscape:connector-curvature="0" />
    </g>
  </g>
</svg>
