<?xml version="1.0" encoding="UTF-8" standalone="no"?>
<svg
   xmlns:dc="http://purl.org/dc/elements/1.1/"
   xmlns:cc="http://creativecommons.org/ns#"
   xmlns:rdf="http://www.w3.org/1999/02/22-rdf-syntax-ns#"
   xmlns:svg="http://www.w3.org/2000/svg"
   xmlns="http://www.w3.org/2000/svg"
   xmlns:sodipodi="http://sodipodi.sourceforge.net/DTD/sodipodi-0.dtd"
   xmlns:inkscape="http://www.inkscape.org/namespaces/inkscape"
   viewBox="0 0 48 48"
   id="svg2"
   version="1.1"
   inkscape:version="0.91 r"
   sodipodi:docname="pencils.svg"
   class="icon-pencils">
  <metadata
     id="metadata32">
    <rdf:RDF>
      <cc:Work
         rdf:about="">
        <dc:format>image/svg+xml</dc:format>
        <dc:type
           rdf:resource="http://purl.org/dc/dcmitype/StillImage" />
        <dc:title />
      </cc:Work>
    </rdf:RDF>
  </metadata>
  <defs
     id="defs30" />
  <sodipodi:namedview
     pagecolor="#ffffff"
     bordercolor="#666666"
     borderopacity="1"
     objecttolerance="10"
     gridtolerance="10"
     guidetolerance="10"
     inkscape:pageopacity="0"
     inkscape:pageshadow="2"
     inkscape:window-width="1920"
     inkscape:window-height="1053"
     id="namedview28"
     showgrid="false"
     fit-margin-top="5"
     fit-margin-left="5"
     fit-margin-right="5"
     fit-margin-bottom="5"
     inkscape:zoom="18.88"
     inkscape:cx="21.950908"
     inkscape:cy="21.702379"
     inkscape:window-x="1920"
     inkscape:window-y="82"
     inkscape:window-maximized="1"
     inkscape:current-layer="g9926" />
  <g
     id="g9926"
     transform="matrix(0.37999612,0,0,0.37999612,5.0000038,5)">
    <g
       id="g4">
      <path
         class="t-fill__2"
         inkscape:connector-curvature="0"
         id="path6"
         d="M 50,74.001 50,100 50.072,100 50,100.002 C 37.184,99.994 24.338,95.174 14.583,85.418 4.812,75.646 -0.008,62.838 0,50 0.009,37.184 4.829,24.338 14.583,14.583 L 33,33 c -4.682,4.683 -6.996,10.849 -7,17 -0.004,6.162 2.31,12.311 7,17 4.683,4.684 10.848,6.996 17,7.001 z"
         fill="" />
      <path
         id="path8"
         d="M 50,92 C 26.804,92 8,73.195 8,50 8,38.402 12.701,27.902 20.302,20.301 L 14.583,14.583 C 7.868,21.299 0,33.438 0,50 c 0,27.062 21.625,50 50,50 l 0,-8 z"
         inkscape:connector-curvature="0"
         class="t-fill__2--dark" />
      <path
         id="path10"
         d="m 32.928,67 c -4.689,-4.689 -7.003,-10.838 -7,-17 0.004,-6.151 2.316,-12.317 7,-17 l -5.627,-5.627 c -5.791,5.79 -9.373,13.79 -9.373,22.627 0,17.673 14.327,32 32,32 l 0,-7.999 C 43.776,73.996 37.612,71.684 32.928,67 Z"
         inkscape:connector-curvature="0"
         class="t-fill__2--light" />
      <path
         id="path12"
         d="M 63,87 50.014,74.009 50.014,74 50.006,74.001 50.005,74 50,74.001 c -3.309,0.011 -6.009,5.826 -6.009,13 0,7.181 2.709,13.001 6.022,13.001 l 0,-0.022 L 63,87 Z"
         inkscape:connector-curvature="0"
         style="fill:#efc22d" />
      <path
         id="path14"
         d="M 58.758,82.757 C 57.672,83.843 57,85.343 57,87 c 0,1.656 0.672,3.156 1.757,4.242 L 63,87 58.758,82.757 Z"
         inkscape:connector-curvature="0"
         style="fill:#2d3e4f" />
    </g>
    <g
       id="g16">
      <path
         class="t-fill__1"
         inkscape:connector-curvature="0"
         id="path18"
         d="m 50,26.001 0,-25.999 -0.072,0 L 50,0 c 12.816,0.008 25.662,4.828 35.417,14.584 9.771,9.771 14.592,22.58 14.584,35.417 -0.009,12.817 -4.829,25.663 -14.584,35.418 L 66.999,67.002 c 4.683,-4.682 6.996,-10.85 7,-17 0.004,-6.162 -2.312,-12.31 -7,-17 C 62.316,28.319 56.15,26.006 50,26.001 Z"
         fill="" />
      <path
         id="path20"
         d="m 66.999,33.002 c 4.688,4.689 7.004,10.838 7,17 -0.004,6.15 -2.317,12.318 -7,17 l 5.627,5.627 c 5.791,-5.789 9.373,-13.789 9.373,-22.627 0,-17.672 -14.326,-32 -32,-32 l 0,7.999 c 6.151,0.005 12.317,2.318 17,7.001 z"
         inkscape:connector-curvature="0"
         class="t-fill__1--dark" />
      <path
         id="path22"
         d="M 50.001,8.001 C 73.196,8.001 92,26.806 92,50.001 92,61.6 87.299,72.1 79.698,79.7 l 5.72,5.718 C 92.133,78.702 100,66.563 100,50.001 c 0,-27.062 -21.624,-50 -49.999,-50 l 0,8 z"
         inkscape:connector-curvature="0"
         class="t-fill__1--light" />
      <path
         id="path24"
         d="m 37,13.002 12.986,12.991 0,0.009 0.008,-10e-4 10e-4,10e-4 L 50,26.001 c 3.309,-0.011 6.008,-5.826 6.008,-13 C 56.008,5.821 53.299,0 49.986,0 l 0,0.021 L 37,13.002 Z"
         inkscape:connector-curvature="0"
         style="fill:#efc22d" />
      <path
         id="path26"
         d="M 41.242,17.245 C 42.328,16.159 43,14.659 43,13.002 43,11.346 42.328,9.846 41.243,8.76 L 37,13.002 l 4.242,4.243 z"
         inkscape:connector-curvature="0"
         style="fill:#2d3e4f" />
    </g>
  </g>
</svg>
