<svg version="1" xmlns="http://www.w3.org/2000/svg" viewBox="0 0 48 48" enable-background="new 0 0 48 48">
  <path
     class="t-fill__3--dark"
     d="M 21.75,8.25 C 13.056,8.25 6,15.306 6,24 L 6,39.1875 C 6,39.525 6.225,39.75 6.5625,39.75 l 14.625,0 c 0.3375,0 0.5625,-0.225 0.5625,-0.5625 l 0,-14.625 C 21.75,24.225 21.525,24 21.1875,24 l -9.5625,0 c 0,-5.706 4.419,-10.125 10.125,-10.125 l 0,-5.625 z M 42,8.25 C 33.306,8.25 26.25,15.306 26.25,24 l 0,15.1875 c 0,0.3375 0.225,0.5625 0.5625,0.5625 l 14.625,0 C 41.775,39.75 42,39.525 42,39.1875 l 0,-14.625 C 42,24.225 41.775,24 41.4375,24 L 31.875,24 C 31.875,18.294 36.294,13.875 42,13.875 L 42,8.25 Z"/>
</svg>
