<?xml version="1.0" encoding="UTF-8" standalone="no"?>
<svg
   xmlns:dc="http://purl.org/dc/elements/1.1/"
   xmlns:cc="http://creativecommons.org/ns#"
   xmlns:rdf="http://www.w3.org/1999/02/22-rdf-syntax-ns#"
   xmlns:svg="http://www.w3.org/2000/svg"
   xmlns="http://www.w3.org/2000/svg"
   xmlns:sodipodi="http://sodipodi.sourceforge.net/DTD/sodipodi-0.dtd"
   xmlns:inkscape="http://www.inkscape.org/namespaces/inkscape"
   version="1.1"
   x="0px"
   y="0px"
   width="47.999996"
   height="47.999996"
   viewBox="1.5 -26.25 47.999996 64.799995"
   enable-background="new -3.5 -16.25 100 100"
   xml:space="preserve"
   id="svg2"
   inkscape:version="0.91 r13725"
   sodipodi:docname="noun_23694_cc.svg"><metadata
     id="metadata16"><rdf:RDF><cc:Work
         rdf:about=""><dc:format>image/svg+xml</dc:format><dc:type
           rdf:resource="http://purl.org/dc/dcmitype/StillImage" /><dc:title></dc:title></cc:Work></rdf:RDF></metadata><sodipodi:namedview
     pagecolor="#ffffff"
     bordercolor="#666666"
     borderopacity="1"
     objecttolerance="10"
     gridtolerance="10"
     guidetolerance="10"
     inkscape:pageopacity="0"
     inkscape:pageshadow="2"
     inkscape:window-width="1920"
     inkscape:window-height="1007"
     id="namedview14"
     showgrid="false"
     fit-margin-top="12"
     fit-margin-left="3"
     fit-margin-right="3"
     fit-margin-bottom="12"
     inkscape:zoom="4.72"
     inkscape:cx="3.1261504"
     inkscape:cy="25.909457"
     inkscape:window-x="0"
     inkscape:window-y="27"
     inkscape:window-maximized="1"
     inkscape:current-layer="svg2" /><defs
     id="defs4" /><polygon
     points="0,0 0,2.976 0,9.682 0,50.909 1.225,50.909 1.225,9.682 14.702,9.682 14.702,0 "
     id="polygon6"
     class="t-fill__3--light"
     transform="matrix(0.61141306,0,0,0.63642972,-1.8000019,-10.049999)" /><path
     d="m 20.737295,6.2877885 0,-6.58832095 0.819293,0 0,-1.61716805 -21.36827395,0 0,1.61716805 1.32248605,0 0,22.65053445 3.8482338,0 1.104212,0 9.6548231,0 0.759375,0 2.111821,0 1.747419,0 33.578805,0 0,-14.4444095 0.584511,0 0,-1.617804 -34.162705,0 z m -9.219498,-4.408549 3.153058,0 0,2.946033 -3.153058,0 0,-2.946033 z m -4.046331,0 3.153668,0 0,2.946033 -3.153668,0 0,-2.946033 z m -4.0457199,2.946033 0,-2.946033 3.1530568,0 0,2.946033 -3.1530568,0 z m 3.0381112,16.8125645 0,-9.924485 9.6548237,0 0,9.924485 -9.6548237,0 z M 18.717186,4.8252725 l -3.153668,0 0,-2.946033 3.153668,0 0,2.946033 z m 10.818343,12.7788735 -7.978941,0 0,-5.890794 7.978941,0 0,5.890794 z m 12.436142,0 -10.305368,0 0,-5.890794 10.304756,0 0,5.890794 z m 10.091984,0 -7.979552,0 0,-5.890794 7.979552,0 0,5.890794 z"
     id="path8"
     class="t-fill__2--light"
     inkscape:connector-curvature="0" /></svg>