<?xml version="1.0" encoding="UTF-8" standalone="no"?>
<svg xmlns:rdf="http://www.w3.org/1999/02/22-rdf-syntax-ns#" xmlns="http://www.w3.org/2000/svg" viewBox="0 0 48 48" version="1" xmlns:cc="http://creativecommons.org/ns#" xmlns:dc="http://purl.org/dc/elements/1.1/" class="toggle-img toggle-school">
 <path class="t-fill__2--light" d="m3 15v30h0.74219v-24.294h8.1542v-5.7056"/>
 <path d="m19.694 30.128v-6.1019h0.6074v-1.4963h-15.829v1.4981h0.98072v20.972h39.114v-13.374h0.43333v-1.4981h-25.306zm-6.8295-4.0833h2.3363v2.7287h-2.334v-2.7269zm-2.997 0h2.337v2.7287h-2.3377v-2.7269zm-2.9955 2.7296v-2.7278h2.3355v2.7269h-2.337zm2.2503 15.568v-9.1898h7.1517v9.1898h-7.1532zm9.0754-15.569h-2.3355v-2.7269h2.3355v2.7269zm8.0147 11.833h-5.911v-5.4556h5.911v5.4537zm9.2109 0h-7.6339v-5.4556h7.6325v5.4537zm7.4754 0h-5.911v-5.4556h5.911v5.4537z" class="t-fill__2--light"/>
</svg>
