<?xml version="1.0" encoding="UTF-8" standalone="no"?>
<svg xmlns:rdf="http://www.w3.org/1999/02/22-rdf-syntax-ns#" xmlns="http://www.w3.org/2000/svg" viewBox="0 0 48.000004 48.000374" height="48" width="48" version="1" xmlns:cc="http://creativecommons.org/ns#" xmlns:dc="http://purl.org/dc/elements/1.1/" class="toggle-img toggle-search__img">
 <path style="fill-rule:evenodd" d="m32.387 27.111 11.52 11.519c1.4578 1.4593 1.4556 3.8237 0.0015 5.2778-1.4563 1.4563-3.8163 1.4593-5.2763-0.0022l-11.52-11.519c-6.1037 3.7311-14.187 2.9556-19.47-2.3259-6.1904-6.1904-6.1904-16.227 0-22.418 6.1911-6.1904 16.228-6.1904 22.419 0 5.2815 5.2815 6.0578 13.364 2.3259 19.468zm-22.107 0.31259c-4.7348-4.7333-4.7348-12.41 0-17.144 4.7333-4.7333 12.409-4.7333 17.143 0 4.7333 4.7333 4.7333 12.41 0 17.144-4.7333 4.7333-12.41 4.7333-17.144 0z" class="t-fill__white"/>
</svg>
