<svg class="svg-logo" viewBox="0 0 212.65757 67.086618">
 <g transform="translate(-31.669 -987.87)">
  <g transform="matrix(.30204 0 0 .30204 24.577 733.84)" class="logo__stmark">
   <path d="m277.94 881.44q-9.66-10.78-27.3-10.78-14.56 0-21.28 5.6-6.58 5.46-6.58 14.84 0 4.76 1.68 7.98t5.18 5.46q3.64 2.1 9.1 3.78 5.6 1.54 13.16 3.08 8.12 1.68 14.56 3.78 6.44 1.96 10.92 5.04 4.62 3.08 7 7.56 2.52 4.48 2.52 11.06t-2.66 11.48q-2.52 4.9-7.28 8.26-4.62 3.22-11.2 4.9-6.44 1.68-14.42 1.68-23.24 0-39.34-14.84l3.78-5.74q6.3 6.58 15.4 10.5 9.1 3.78 20.44 3.78 13.02 0 20.3-4.76 7.42-4.76 7.42-14.42 0-4.9-1.96-8.26-1.82-3.5-5.74-6.02t-9.8-4.34q-5.74-1.82-13.58-3.5-7.98-1.68-14.14-3.5-6.02-1.96-10.22-4.76-4.2-2.94-6.3-7t-2.1-10.22q0-6.72 2.52-11.9 2.66-5.18 7.28-8.68 4.62-3.64 11.06-5.46t14.28-1.82q9.66 0 17.22 2.94 7.56 2.8 13.72 8.68l-3.64 5.6z"/>
   <path d="m334.44 960.82q-0.56 0.28-1.96 1.12-1.26 0.7-3.36 1.4-1.96 0.7-4.48 1.26t-5.46 0.56-5.6-0.84q-2.52-0.84-4.48-2.52t-3.22-4.06q-1.12-2.38-1.12-5.6v-54.88h-10.22v-5.74h10.22v-24.92h7v24.92h17.08v5.74h-17.08v53.2q0 4.06 2.8 6.16 2.8 1.96 6.44 1.96 4.34 0 7.42-1.4 3.22-1.54 3.92-1.96l2.1 5.6z"/>
   <path d="m344.99 964.32v-11.9h6.16v11.9h-6.16z"/>
   <path d="m500.45 964.32v-85.96l-39.2 67.06h-4.48l-39.2-67.06v85.96h-7.14v-99.4h7.14l41.44 71.12 41.44-71.12h7.14v99.4h-7.14z"/>
   <path d="m549.7 965.72q-5.04 0-9.52-1.68-4.34-1.82-7.7-4.76-3.22-3.08-5.04-7.14-1.82-4.2-1.82-8.96t2.24-8.68 6.3-6.72q4.06-2.94 9.52-4.48 5.6-1.68 12.32-1.68 5.88 0 11.9 1.12 6.02 0.98 10.78 2.8v-7.14q0-10.36-5.88-16.38-5.88-6.16-15.96-6.16-5.46 0-11.48 2.24-5.88 2.24-11.9 6.44l-2.8-4.76q14.14-9.52 26.6-9.52 13.16 0 20.72 7.7 7.7 7.56 7.7 21v35.56q0 3.5 2.94 3.5v6.3q-0.7 0.14-1.4 0.14-0.56 0-1.12 0-2.52 0-4.62-1.68-2.1-1.82-2.1-4.62v-6.02q-5.04 6.58-12.88 10.08-7.7 3.5-16.8 3.5zm1.4-5.6q8.12 0 14.98-2.94 6.86-3.08 10.22-8.26 2.38-2.8 2.38-5.6v-12.88q-10.64-3.92-21.84-3.92-10.92 0-17.64 4.48t-6.72 11.76q0 3.64 1.4 6.86t3.92 5.6q2.52 2.24 5.88 3.64 3.5 1.26 7.42 1.26z"/>
   <path d="m641.55 897.82q-9.94 0.28-17.22 5.88-7.28 5.46-10.22 15.12v45.5h-7v-72.8h6.58v17.92q3.78-7.7 9.94-12.46 6.3-4.9 13.44-5.6 1.4 0 2.52 0 1.12-0.14 1.96-0.14v6.58z"/>
   <path d="m707.6 964.32-28.42-38.92-17.22 15.82v23.1h-7v-102.2h7v71.4l44.24-41.86h8.12l-30.52 29.54 31.5 43.12h-7.7z"/>
  </g>
  <g transform="matrix(.30204 0 0 .30204 24.577 733.84)" class="logo__catholic-school">
   <g>
    <path d="m234.61 1010.4q-5.7678 0-8.9319 4.3506-3.1641 4.3176-3.1641 12.063 0 16.117 12.096 16.117 5.0757 0 12.294-2.5378v8.5693q-5.9326 2.4719-13.25 2.4719-10.514 0-16.084-6.3611-5.57-6.4-5.57-18.4 0-7.5146 2.7356-13.151 2.7356-5.6689 7.8442-8.6682 5.1416-3.0322 12.03-3.0322 7.0203 0 14.106 3.3947l-3.2959 8.3057q-2.7026-1.2854-5.4382-2.2412t-5.3723-0.9558z"/>
    <path d="m279.73 1050.8-1.9446-5.0097h-0.26367q-2.5378 3.197-5.2405 4.4494-2.6697 1.2195-6.9873 1.2195-5.3064 0-8.3716-3.0322-3.0322-3.0322-3.0322-8.6353 0-5.8667 4.0869-8.6352 4.1199-2.8015 12.393-3.0982l6.394-0.1977v-1.615q0-5.603-5.7349-5.603-4.4165 0-10.382 2.6696l-3.3289-6.7895q6.3611-3.3289 14.106-3.3289 7.4158 0 11.371 3.23 3.9551 3.23 3.9551 9.8218v24.554h-7.0203zm-2.9663-17.073-3.8892 0.1318q-4.3835 0.1318-6.5259 1.582-2.1423 1.4502-2.1423 4.4165 0 4.2518 4.8779 4.2518 3.4936 0 5.5701-2.0105 2.1094-2.0105 2.1094-5.3394v-3.0322z"/>
    <path d="m312.59 1043.4q2.6367 0 6.3281-1.1536v7.4817q-3.7573 1.6809-9.2285 1.6809-6.0315 0-8.8-3.0322-2.7356-3.0652-2.7356-9.1626v-17.765h-4.812v-4.2517l5.5371-3.3618 2.9004-7.7784h6.427v7.8443h10.316v7.5476h-10.316v17.765q0 2.1423 1.1865 3.164 1.2195 1.0218 3.197 1.0218z"/>
    <path d="m360.35 1050.8h-10.052v-21.522q0-7.9761-5.9326-7.9761-4.2188 0-6.0974 2.8675-1.8787 2.8674-1.8787 9.2944v17.336h-10.052v-51.284h10.052v10.448q0 1.2195-0.23072 5.7349l-0.23071 2.9663h0.52734q3.3618-5.4053 10.679-5.4053 6.4929 0 9.8547 3.4937t3.3618 10.02v24.027z"/>
    <path d="m378.77 1032.3q0 5.4712 1.7798 8.2727 1.8127 2.8016 5.8667 2.8016 4.021 0 5.7678-2.7686 1.7798-2.8015 1.7798-8.3057 0-5.4712-1.7798-8.2067-1.7798-2.7356-5.8337-2.7356-4.021 0-5.8008 2.7356-1.7798 2.7026-1.7798 8.2067zm25.477 0q0 8.9978-4.7461 14.074-4.7461 5.0757-13.217 5.0757-5.3064 0-9.3604-2.3071-4.054-2.3401-6.2292-6.6907-2.1753-4.3506-2.1753-10.151 0-9.0307 4.7131-14.04 4.7131-5.0098 13.25-5.0098 5.3064 0 9.3604 2.3072 4.054 2.3071 6.2292 6.6247 2.1753 4.3177 2.1753 10.118z"/>
    <path d="m422.61 1050.8h-10.052v-51.284h10.052v51.284z"/>
    <path d="m432.69 1004.4q0-4.9108 5.4712-4.9108t5.4712 4.9108q0 2.3401-1.3843 3.6585-1.3513 1.2854-4.0869 1.2854-5.4712 0-5.4712-4.9439zm10.481 46.373h-10.052v-36.848h10.052v36.848z"/>
    <path d="m468.65 1051.4q-17.205 0-17.205-18.886 0-9.3933 4.6802-14.337 4.6802-4.9769 13.414-4.9769 6.394 0 11.47 2.5049l-2.9663 7.7784q-2.373-0.9559-4.4165-1.5491-2.0435-0.6262-4.0869-0.6262-7.8442 0-7.8442 11.14 0 10.81 7.8442 10.81 2.9004 0 5.3723-0.758 2.4719-0.791 4.9438-2.439v8.6023q-2.439 1.5491-4.9438 2.1423-2.4719 0.5933-6.2622 0.5933z"/>
    <path d="m535.13 1037.4q0 6.5259-4.7131 10.283-4.6802 3.7573-13.052 3.7573-7.7124 0-13.645-2.9004v-9.4922q4.8779 2.1753 8.2398 3.0652 3.3948 0.8899 6.1963 0.8899 3.3618 0 5.1416-1.2854 1.8127-1.2854 1.8127-3.8232 0-1.4173-0.79101-2.5049-0.79102-1.1206-2.3401-2.1423-1.5161-1.0218-6.2292-3.263-4.4165-2.0764-6.6248-3.988-2.2082-1.9116-3.5266-4.4495-1.3184-2.5378-1.3184-5.9326 0-6.394 4.3176-10.052 4.3506-3.6584 11.997-3.6584 3.7573 0 7.1521 0.8898 3.4277 0.8899 7.1521 2.5049l-3.2959 7.9431q-3.8562-1.582-6.394-2.2082-2.5049-0.6262-4.9438-0.6262-2.9004 0-4.4495 1.3513t-1.5491 3.5266q0 1.3513 0.62622 2.3731 0.62622 0.9887 1.9775 1.9445 1.3843 0.9229 6.4929 3.3618 6.7566 3.23 9.2615 6.493 2.5049 3.2299 2.5049 7.9431z"/>
    <path d="m558.04 1051.4q-17.205 0-17.205-18.886 0-9.3933 4.6802-14.337 4.6802-4.9769 13.414-4.9769 6.394 0 11.47 2.5049l-2.9663 7.7784q-2.373-0.9559-4.4165-1.5491-2.0434-0.6262-4.0869-0.6262-7.8442 0-7.8442 11.14 0 10.81 7.8442 10.81 2.9004 0 5.3723-0.758 2.4719-0.791 4.9438-2.439v8.6023q-2.439 1.5491-4.9438 2.1423-2.4719 0.5933-6.2622 0.5933z"/>
    <path d="m611.76 1050.8h-10.052v-21.522q0-7.9761-5.9326-7.9761-4.2188 0-6.0974 2.8675-1.8787 2.8674-1.8787 9.2944v17.336h-10.052v-51.284h10.052v10.448q0 1.2195-0.23071 5.7349l-0.23072 2.9663h0.52735q3.3618-5.4053 10.679-5.4053 6.4929 0 9.8547 3.4937t3.3618 10.02v24.027z"/>
    <path d="m630.18 1032.3q0 5.4712 1.7798 8.2727 1.8127 2.8016 5.8667 2.8016 4.021 0 5.7678-2.7686 1.7798-2.8015 1.7798-8.3057 0-5.4712-1.7798-8.2067-1.7798-2.7356-5.8337-2.7356-4.021 0-5.8008 2.7356-1.7798 2.7026-1.7798 8.2067zm25.477 0q0 8.9978-4.7461 14.074-4.7461 5.0757-13.217 5.0757-5.3064 0-9.3604-2.3071-4.054-2.3401-6.2292-6.6907-2.1753-4.3506-2.1753-10.151 0-9.0307 4.7131-14.04 4.7131-5.0098 13.25-5.0098 5.3064 0 9.3604 2.3072 4.054 2.3071 6.2292 6.6247 2.1753 4.3177 2.1753 10.118z"/>
    <path d="m671.98 1032.3q0 5.4712 1.7798 8.2727 1.8128 2.8016 5.8667 2.8016 4.021 0 5.7678-2.7686 1.7798-2.8015 1.7798-8.3057 0-5.4712-1.7798-8.2067-1.7798-2.7356-5.8337-2.7356-4.021 0-5.8008 2.7356-1.7798 2.7026-1.7798 8.2067zm25.477 0q0 8.9978-4.7461 14.074-4.7461 5.0757-13.217 5.0757-5.3064 0-9.3604-2.3071-4.054-2.3401-6.2292-6.6907-2.1753-4.3506-2.1753-10.151 0-9.0307 4.7131-14.04 4.7131-5.0098 13.25-5.0098 5.3064 0 9.3604 2.3072 4.054 2.3071 6.2292 6.6247 2.1753 4.3177 2.1753 10.118z"/>
    <path d="m715.81 1050.8h-10.052v-51.284h10.052v51.284z"/>
   </g>
  </g>
  <g transform="matrix(.28825 0 0 .28825 34.287 989.71)">
   <g style="fill:#002855" transform="translate(-203.54 31.203)">
    <rect style="fill-rule:evenodd;fill:#002855" height="208.1" width="32" y="-25.3" x="276.59"/>
    <rect style="fill-rule:evenodd;fill:#002855" height="32" width="170.59" y="21.5" x="206.75"/>
    <rect style="fill-rule:evenodd;fill:#002855" transform="rotate(-45)" height="77.975" width="77.975" y="194.12" x="141.49"/>
   </g>
   <rect style="fill-rule:evenodd;stroke:#ffe192;stroke-width:2.823;fill:#ffe192" transform="rotate(-45)" height="60.304" width="60.304" y="81.014" x="-15.955"/>
   <g transform="translate(572.26 151)">
    <g transform="translate(-305.13 32.191)">
     <rect style="fill-rule:evenodd;stroke:#ffe192;stroke-width:2.9328;fill:#002855" height="194.24" width="19.067" y="-170.16" x="-187.79"/>
     <rect style="opacity:.8;stroke:#ffe192;stroke-width:3.2436;fill:none" height="183.77" width="8.7564" y="-164.77" x="-182.71"/>
     <rect style="fill-rule:evenodd;stroke:#ffe192;stroke-width:2.7616;fill:#002855" height="19.238" width="156.87" y="-124.35" x="-257.27"/>
     <rect style="opacity:.8;fill-rule:evenodd;stroke:#ffe192;stroke-width:2.8135;fill:#002855" height="9.1865" width="145.79" y="-119.42" x="-251.79"/>
    </g>
   </g>
   <rect style="fill-rule:evenodd;stroke:#ffe192;stroke-width:2.8421;fill:#002855" height="19.158" width="19.158" y="58.777" x="79.197"/>
   <rect style="fill-rule:evenodd;stroke:#ffe192;stroke-width:2.9238;fill:#002855" height="9.0762" width="9.0762" y="63.824" x="84.258"/>
  </g>
 </g>
</svg>
