<?xml version="1.0" encoding="UTF-8" standalone="no"?>
<!-- Created with Inkscape (http://www.inkscape.org/) -->

<svg
   xmlns:dc="http://purl.org/dc/elements/1.1/"
   xmlns:cc="http://creativecommons.org/ns#"
   xmlns:rdf="http://www.w3.org/1999/02/22-rdf-syntax-ns#"
   xmlns:svg="http://www.w3.org/2000/svg"
   xmlns="http://www.w3.org/2000/svg"
   xmlns:sodipodi="http://sodipodi.sourceforge.net/DTD/sodipodi-0.dtd"
   xmlns:inkscape="http://www.inkscape.org/namespaces/inkscape"
   width="60.016693mm"
   height="18.933334mm"
   viewBox="0 0 212.65757 67.086618"
   id="svg2"
   version="1.1"
   inkscape:version="0.91 r"
   sodipodi:docname="smcs-logo.svg">
  <defs
     id="defs4" />
  <sodipodi:namedview
     id="base"
     pagecolor="#ffffff"
     bordercolor="#666666"
     borderopacity="1.0"
     inkscape:pageopacity="0.0"
     inkscape:pageshadow="2"
     inkscape:zoom="0.98994949"
     inkscape:cx="434.78601"
     inkscape:cy="115.21406"
     inkscape:document-units="px"
     inkscape:current-layer="layer1"
     showgrid="false"
     fit-margin-top="1"
     fit-margin-left="1"
     fit-margin-right="1"
     fit-margin-bottom="1"
     inkscape:window-width="1920"
     inkscape:window-height="1023"
     inkscape:window-x="0"
     inkscape:window-y="30"
     inkscape:window-maximized="1" />
  <metadata
     id="metadata7">
    <rdf:RDF>
      <cc:Work
         rdf:about="">
        <dc:format>image/svg+xml</dc:format>
        <dc:type
           rdf:resource="http://purl.org/dc/dcmitype/StillImage" />
        <dc:title></dc:title>
      </cc:Work>
    </rdf:RDF>
  </metadata>
  <g
     inkscape:label="Layer 1"
     inkscape:groupmode="layer"
     id="layer1"
     transform="translate(-31.669286,-987.8677)">
    <g
       id="text9902"
       class="logo__stmark"
       transform="matrix(0.30204441,0,0,0.30204441,24.576826,733.83819)">
      <path
         d="m 277.93999,881.4433 q -9.66,-10.78 -27.3,-10.78 -14.56,0 -21.28,5.6 -6.58,5.46 -6.58,14.84 0,4.76 1.68,7.98 1.68,3.22 5.18,5.46 3.64,2.1 9.1,3.78 5.6,1.54 13.16,3.08 8.12,1.68 14.56,3.78 6.44,1.96 10.92,5.04 4.62,3.08 7,7.56 2.52,4.48 2.52,11.06 0,6.58 -2.66,11.48 -2.52,4.9 -7.28,8.26 -4.62,3.22 -11.2,4.9 -6.44,1.68 -14.42,1.68 -23.24,0 -39.34,-14.84 l 3.78,-5.74 q 6.3,6.58 15.4,10.5 9.1,3.78 20.44,3.78 13.02,0 20.3,-4.76 7.42,-4.76 7.42,-14.42 0,-4.9 -1.96,-8.26 -1.82,-3.5 -5.74,-6.02 -3.92,-2.52 -9.8,-4.34 -5.74,-1.82 -13.58,-3.5 -7.98,-1.68 -14.14,-3.5 -6.02,-1.96 -10.22,-4.76 -4.2,-2.94 -6.3,-7 -2.1,-4.06 -2.1,-10.22 0,-6.72 2.52,-11.9 2.66,-5.18 7.28,-8.68 4.62,-3.64 11.06,-5.46 6.44,-1.82 14.28,-1.82 9.66,0 17.22,2.94 7.56,2.8 13.72,8.68 l -3.64,5.6 z"
         id="path9943"
         inkscape:connector-curvature="0" />
      <path
         d="m 334.43874,960.8233 q -0.56,0.28 -1.96,1.12 -1.26,0.7 -3.36,1.4 -1.96,0.7 -4.48,1.26 -2.52,0.56 -5.46,0.56 -2.94,0 -5.6,-0.84 -2.52,-0.84 -4.48,-2.52 -1.96,-1.68 -3.22,-4.06 -1.12,-2.38 -1.12,-5.6 l 0,-54.88 -10.22,0 0,-5.74 10.22,0 0,-24.92 7,0 0,24.92 17.08,0 0,5.74 -17.08,0 0,53.2 q 0,4.06 2.8,6.16 2.8,1.96 6.44,1.96 4.34,0 7.42,-1.4 3.22,-1.54 3.92,-1.96 l 2.1,5.6 z"
         id="path9945"
         inkscape:connector-curvature="0" />
      <path
         d="m 344.98906,964.3233 0,-11.9 6.16,0 0,11.9 -6.16,0 z"
         id="path9947"
         inkscape:connector-curvature="0" />
      <path
         d="m 500.44593,964.3233 0,-85.96 -39.2,67.06 -4.48,0 -39.2,-67.06 0,85.96 -7.14,0 0,-99.4 7.14,0 41.44,71.12 41.44,-71.12 7.14,0 0,99.4 -7.14,0 z"
         id="path9949"
         inkscape:connector-curvature="0" />
      <path
         d="m 549.69968,965.7233 q -5.04,0 -9.52,-1.68 -4.34,-1.82 -7.7,-4.76 -3.22,-3.08 -5.04,-7.14 -1.82,-4.2 -1.82,-8.96 0,-4.76 2.24,-8.68 2.24,-3.92 6.3,-6.72 4.06,-2.94 9.52,-4.48 5.6,-1.68 12.32,-1.68 5.88,0 11.9,1.12 6.02,0.98 10.78,2.8 l 0,-7.14 q 0,-10.36 -5.88,-16.38 -5.88,-6.16 -15.96,-6.16 -5.46,0 -11.48,2.24 -5.88,2.24 -11.9,6.44 l -2.8,-4.76 q 14.14,-9.52 26.6,-9.52 13.16,0 20.72,7.7 7.7,7.56 7.7,21 l 0,35.56 q 0,3.5 2.94,3.5 l 0,6.3 q -0.7,0.14 -1.4,0.14 -0.56,0 -1.12,0 -2.52,0 -4.62,-1.68 -2.1,-1.82 -2.1,-4.62 l 0,-6.02 q -5.04,6.58 -12.88,10.08 -7.7,3.5 -16.8,3.5 z m 1.4,-5.6 q 8.12,0 14.98,-2.94 6.86,-3.08 10.22,-8.26 2.38,-2.8 2.38,-5.6 l 0,-12.88 q -10.64,-3.92 -21.84,-3.92 -10.92,0 -17.64,4.48 -6.72,4.48 -6.72,11.76 0,3.64 1.4,6.86 1.4,3.22 3.92,5.6 2.52,2.24 5.88,3.64 3.5,1.26 7.42,1.26 z"
         id="path9951"
         inkscape:connector-curvature="0" />
      <path
         d="m 641.54843,897.8233 q -9.94,0.28 -17.22,5.88 -7.28,5.46 -10.22,15.12 l 0,45.5 -7,0 0,-72.8 6.58,0 0,17.92 q 3.78,-7.7 9.94,-12.46 6.3,-4.9 13.44,-5.6 1.4,0 2.52,0 1.12,-0.14 1.96,-0.14 l 0,6.58 z"
         id="path9953"
         inkscape:connector-curvature="0" />
      <path
         d="m 707.59999,964.3233 -28.42,-38.92 -17.22,15.82 0,23.1 -7,0 0,-102.2 7,0 0,71.4 44.24,-41.86 8.12,0 -30.52,29.54 31.5,43.12 -7.7,0 z"
         id="path9955"
         inkscape:connector-curvature="0" />
    </g>
    <g
       id="g9986"
       class="logo__catholic-school"
       transform="matrix(0.30204441,0,0,0.30204441,24.576826,733.83819)">
      <g
         id="text9906">
        <path
           inkscape:connector-curvature="0"
           id="path9958"
           d="m 234.60986,1010.3771 q -5.76782,0 -8.93188,4.3506 -3.16406,4.3176 -3.16406,12.0629 0,16.117 12.09594,16.117 5.07569,0 12.2937,-2.5378 l 0,8.5693 q -5.93261,2.4719 -13.24951,2.4719 -10.51391,0 -16.08398,-6.3611 Q 212,1038.6559 212,1026.7247 q 0,-7.5146 2.7356,-13.1506 2.73559,-5.6689 7.84423,-8.6682 5.14161,-3.0322 12.03003,-3.0322 7.02027,0 14.10645,3.3947 l -3.2959,8.3057 q -2.70264,-1.2854 -5.43823,-2.2412 -2.7356,-0.9558 -5.37232,-0.9558 z" />
        <path
           inkscape:connector-curvature="0"
           id="path9960"
           d="m 279.73071,1050.7518 -1.94458,-5.0097 -0.26367,0 q -2.53784,3.197 -5.24048,4.4494 -2.66968,1.2195 -6.9873,1.2195 -5.3064,0 -8.37158,-3.0322 -3.03223,-3.0322 -3.03223,-8.6353 0,-5.8667 4.08691,-8.6352 4.11988,-2.8015 12.39258,-3.0982 l 6.39404,-0.1977 0,-1.615 q 0,-5.603 -5.73486,-5.603 -4.4165,0 -10.38208,2.6696 l -3.32886,-6.7895 q 6.36109,-3.3289 14.10645,-3.3289 7.41577,0 11.37085,3.23 3.95508,3.23 3.95508,9.8218 l 0,24.5544 -7.02027,0 z m -2.96631,-17.0727 -3.88916,0.1318 q -4.38354,0.1318 -6.52587,1.582 -2.14234,1.4502 -2.14234,4.4165 0,4.2518 4.87793,4.2518 3.49365,0 5.57007,-2.0105 2.10937,-2.0105 2.10937,-5.3394 l 0,-3.0322 z" />
        <path
           inkscape:connector-curvature="0"
           id="path9962"
           d="m 312.59082,1043.402 q 2.63672,0 6.32813,-1.1536 l 0,7.4817 q -3.75733,1.6809 -9.22852,1.6809 -6.03149,0 -8.80005,-3.0322 -2.73559,-3.0652 -2.73559,-9.1626 l 0,-17.7649 -4.81202,0 0,-4.2517 5.53711,-3.3618 2.90039,-7.7784 6.42701,0 0,7.8443 10.31616,0 0,7.5476 -10.31616,0 0,17.7649 q 0,2.1423 1.18652,3.164 1.21948,1.0218 3.19702,1.0218 z" />
        <path
           inkscape:connector-curvature="0"
           id="path9964"
           d="m 360.34839,1050.7518 -10.05249,0 0,-21.5222 q 0,-7.9761 -5.93262,-7.9761 -4.21875,0 -6.09741,2.8675 -1.87866,2.8674 -1.87866,9.2944 l 0,17.3364 -10.05249,0 0,-51.28415 10.05249,0 0,10.44795 q 0,1.2195 -0.23072,5.7349 l -0.23071,2.9663 0.52734,0 q 3.36182,-5.4053 10.67872,-5.4053 6.49292,0 9.85473,3.4937 3.36182,3.4937 3.36182,10.0195 l 0,24.0271 z" />
        <path
           inkscape:connector-curvature="0"
           id="path9966"
           d="m 378.77246,1032.2618 q 0,5.4712 1.77979,8.2727 1.81274,2.8016 5.8667,2.8016 4.02099,0 5.76782,-2.7686 1.77978,-2.8015 1.77978,-8.3057 0,-5.4712 -1.77978,-8.2067 -1.77979,-2.7356 -5.83374,-2.7356 -4.021,0 -5.80078,2.7356 -1.77979,2.7026 -1.77979,8.2067 z m 25.4773,0 q 0,8.9978 -4.7461,14.0735 -4.74609,5.0757 -13.21655,5.0757 -5.3064,0 -9.36035,-2.3071 -4.05396,-2.3401 -6.22925,-6.6907 -2.17529,-4.3506 -2.17529,-10.1514 0,-9.0307 4.71313,-14.0405 4.71314,-5.0098 13.24951,-5.0098 5.3064,0 9.36035,2.3072 4.05396,2.3071 6.22925,6.6247 2.1753,4.3177 2.1753,10.1184 z" />
        <path
           inkscape:connector-curvature="0"
           id="path9968"
           d="m 422.60791,1050.7518 -10.05249,0 0,-51.28415 10.05249,0 0,51.28415 z" />
        <path
           inkscape:connector-curvature="0"
           id="path9970"
           d="m 432.69336,1004.3785 q 0,-4.91085 5.47119,-4.91085 5.47119,0 5.47119,4.91085 0,2.3401 -1.38428,3.6585 -1.35131,1.2854 -4.08691,1.2854 -5.47119,0 -5.47119,-4.9439 z m 10.48096,46.3733 -10.05249,0 0,-36.8481 10.05249,0 0,36.8481 z" />
        <path
           inkscape:connector-curvature="0"
           id="path9972"
           d="m 468.65161,1051.411 q -17.20459,0 -17.20459,-18.8855 0,-9.3933 4.68018,-14.3371 4.68017,-4.9769 13.4143,-4.9769 6.39405,0 11.46973,2.5049 l -2.96631,7.7784 q -2.37305,-0.9559 -4.4165,-1.5491 -2.04346,-0.6262 -4.08692,-0.6262 -7.84423,0 -7.84423,11.1401 0,10.8105 7.84423,10.8105 2.90039,0 5.37232,-0.758 2.47192,-0.791 4.94385,-2.439 l 0,8.6023 q -2.43897,1.5491 -4.94385,2.1423 -2.47193,0.5933 -6.26221,0.5933 z" />
        <path
           inkscape:connector-curvature="0"
           id="path9974"
           d="m 535.12988,1037.3705 q 0,6.5259 -4.71313,10.2832 -4.68018,3.7573 -13.05176,3.7573 -7.7124,0 -13.64502,-2.9004 l 0,-9.4922 q 4.87793,2.1753 8.23975,3.0652 3.39477,0.8899 6.19629,0.8899 3.36181,0 5.1416,-1.2854 1.81274,-1.2854 1.81274,-3.8232 0,-1.4173 -0.79101,-2.5049 -0.79102,-1.1206 -2.34009,-2.1423 -1.51612,-1.0218 -6.22925,-3.263 -4.4165,-2.0764 -6.62476,-3.988 -2.20825,-1.9116 -3.52661,-4.4495 -1.31836,-2.5378 -1.31836,-5.9326 0,-6.394 4.31763,-10.0525 4.35059,-3.6584 11.99707,-3.6584 3.75732,0 7.1521,0.8898 3.42773,0.8899 7.1521,2.5049 l -3.2959,7.9431 q -3.8562,-1.582 -6.39404,-2.2082 -2.50488,-0.6262 -4.94385,-0.6262 -2.90039,0 -4.44946,1.3513 -1.54907,1.3513 -1.54907,3.5266 0,1.3513 0.62622,2.3731 0.62622,0.9887 1.97754,1.9445 1.38427,0.9229 6.49292,3.3618 6.75659,3.23 9.26147,6.493 2.50488,3.2299 2.50488,7.9431 z" />
        <path
           inkscape:connector-curvature="0"
           id="path9976"
           d="m 558.03638,1051.411 q -17.20459,0 -17.20459,-18.8855 0,-9.3933 4.68017,-14.3371 4.68018,-4.9769 13.41431,-4.9769 6.39404,0 11.46973,2.5049 l -2.96631,7.7784 q -2.37305,-0.9559 -4.41651,-1.5491 -2.04345,-0.6262 -4.08691,-0.6262 -7.84424,0 -7.84424,11.1401 0,10.8105 7.84424,10.8105 2.90039,0 5.37231,-0.758 2.47193,-0.791 4.94385,-2.439 l 0,8.6023 q -2.43896,1.5491 -4.94385,2.1423 -2.47192,0.5933 -6.2622,0.5933 z" />
        <path
           inkscape:connector-curvature="0"
           id="path9978"
           d="m 611.75952,1050.7518 -10.05249,0 0,-21.5222 q 0,-7.9761 -5.93262,-7.9761 -4.21875,0 -6.09741,2.8675 -1.87866,2.8674 -1.87866,9.2944 l 0,17.3364 -10.05249,0 0,-51.28415 10.05249,0 0,10.44795 q 0,1.2195 -0.23071,5.7349 l -0.23072,2.9663 0.52735,0 q 3.36181,-5.4053 10.67871,-5.4053 6.49292,0 9.85474,3.4937 3.36181,3.4937 3.36181,10.0195 l 0,24.0271 z" />
        <path
           inkscape:connector-curvature="0"
           id="path9980"
           d="m 630.18359,1032.2618 q 0,5.4712 1.77979,8.2727 1.81274,2.8016 5.8667,2.8016 4.02099,0 5.76782,-2.7686 1.77979,-2.8015 1.77979,-8.3057 0,-5.4712 -1.77979,-8.2067 -1.77978,-2.7356 -5.83374,-2.7356 -4.021,0 -5.80078,2.7356 -1.77979,2.7026 -1.77979,8.2067 z m 25.4773,0 q 0,8.9978 -4.7461,14.0735 -4.74609,5.0757 -13.21655,5.0757 -5.30639,0 -9.36035,-2.3071 -4.05395,-2.3401 -6.22925,-6.6907 -2.17529,-4.3506 -2.17529,-10.1514 0,-9.0307 4.71313,-14.0405 4.71314,-5.0098 13.24952,-5.0098 5.30639,0 9.36035,2.3072 4.05395,2.3071 6.22925,6.6247 2.17529,4.3177 2.17529,10.1184 z" />
        <path
           inkscape:connector-curvature="0"
           id="path9982"
           d="m 671.97559,1032.2618 q 0,5.4712 1.77978,8.2727 1.81275,2.8016 5.8667,2.8016 4.021,0 5.76782,-2.7686 1.77979,-2.8015 1.77979,-8.3057 0,-5.4712 -1.77979,-8.2067 -1.77978,-2.7356 -5.83374,-2.7356 -4.02099,0 -5.80078,2.7356 -1.77978,2.7026 -1.77978,8.2067 z m 25.47729,0 q 0,8.9978 -4.74609,14.0735 -4.7461,5.0757 -13.21656,5.0757 -5.30639,0 -9.36035,-2.3071 -4.05395,-2.3401 -6.22925,-6.6907 -2.17529,-4.3506 -2.17529,-10.1514 0,-9.0307 4.71314,-14.0405 4.71313,-5.0098 13.24951,-5.0098 5.30639,0 9.36035,2.3072 4.05395,2.3071 6.22925,6.6247 2.17529,4.3177 2.17529,10.1184 z" />
        <path
           inkscape:connector-curvature="0"
           id="path9984"
           d="m 715.81104,1050.7518 -10.0525,0 0,-51.28415 10.0525,0 0,51.28415 z" />
      </g>
    </g>
    <g
       id="g9997"
       transform="matrix(0.28825208,0,0,0.28825208,34.287408,989.70945)">
      <g
         style="opacity:1;fill:#002855;fill-opacity:1"
         transform="translate(-203.53612,31.203483)"
         id="g9936">
        <rect
           style="opacity:1;fill:#002855;fill-opacity:1;fill-rule:evenodd;stroke:none;stroke-width:0.098;stroke-miterlimit:4;stroke-dasharray:none;stroke-opacity:1"
           id="rect9928"
           width="32"
           height="208.10001"
           x="276.59412"
           y="-25.300482" />
        <rect
           style="opacity:1;fill:#002855;fill-opacity:1;fill-rule:evenodd;stroke:none;stroke-width:0.098;stroke-miterlimit:4;stroke-dasharray:none;stroke-opacity:1"
           id="rect9930"
           width="170.58792"
           height="32"
           x="206.74576"
           y="21.499517" />
        <rect
           style="opacity:1;fill:#002855;fill-opacity:1;fill-rule:evenodd;stroke:none;stroke-width:0.098;stroke-miterlimit:4;stroke-dasharray:none;stroke-opacity:1"
           id="rect9934"
           width="77.974777"
           height="77.974777"
           x="141.48676"
           y="194.11671"
           transform="matrix(0.70710668,-0.70710688,0.70710668,0.70710688,0,0)" />
      </g>
      <rect
         style="opacity:1;fill:#ffe192;fill-opacity:1;fill-rule:evenodd;stroke:#ffe192;stroke-width:2.82299995;stroke-miterlimit:4;stroke-dasharray:none;stroke-opacity:1"
         id="rect9963"
         width="60.303925"
         height="60.303925"
         x="-15.954714"
         y="81.014404"
         transform="matrix(0.70710678,-0.70710678,0.70710678,0.70710678,0,0)" />
      <g
         id="g9922"
         transform="translate(572.26211,151.00026)">
        <g
           id="g9957"
           transform="translate(-305.13135,32.190678)">
          <rect
             y="-170.16248"
             x="-187.78835"
             height="194.24416"
             width="19.067169"
             id="rect9941"
             style="opacity:1;fill:#002855;fill-opacity:1;fill-rule:evenodd;stroke:#ffe192;stroke-width:2.93283081;stroke-miterlimit:4;stroke-dasharray:none;stroke-opacity:1" />
          <rect
             y="-164.76601"
             x="-182.71298"
             height="183.77129"
             width="8.7564373"
             id="rect9955"
             style="opacity:0.8;fill:none;fill-opacity:1;fill-rule:evenodd;stroke:#ffe192;stroke-width:3.24356294;stroke-miterlimit:4;stroke-dasharray:none;stroke-opacity:1" />
          <rect
             y="-124.35416"
             x="-257.26825"
             height="19.238445"
             width="156.8716"
             id="rect9951"
             style="opacity:1;fill:#002855;fill-opacity:1;fill-rule:evenodd;stroke:#ffe192;stroke-width:2.761554;stroke-miterlimit:4;stroke-dasharray:none;stroke-opacity:1" />
          <rect
             y="-119.42216"
             x="-251.78812"
             height="9.1864977"
             width="145.7905"
             id="rect9953"
             style="opacity:0.8;fill:#002855;fill-opacity:1;fill-rule:evenodd;stroke:#ffe192;stroke-width:2.81350136;stroke-miterlimit:4;stroke-dasharray:none;stroke-opacity:1" />
        </g>
      </g>
      <rect
         style="opacity:1;fill:#002855;fill-opacity:1;fill-rule:evenodd;stroke:#ffe192;stroke-width:2.84211898;stroke-miterlimit:4;stroke-dasharray:none;stroke-opacity:1"
         id="rect9965"
         width="19.157881"
         height="19.157881"
         x="79.19706"
         y="58.777061" />
      <rect
         style="opacity:1;fill:#002855;fill-opacity:1;fill-rule:evenodd;stroke:#ffe192;stroke-width:2.92380309;stroke-miterlimit:4;stroke-dasharray:none;stroke-opacity:1"
         id="rect9965-8"
         width="9.0761967"
         height="9.0761967"
         x="84.257904"
         y="63.823902" />
    </g>
  </g>
</svg>
