<?xml version="1.0" encoding="UTF-8" standalone="no"?>
<svg
   xmlns:dc="http://purl.org/dc/elements/1.1/"
   xmlns:cc="http://creativecommons.org/ns#"
   xmlns:rdf="http://www.w3.org/1999/02/22-rdf-syntax-ns#"
   xmlns:svg="http://www.w3.org/2000/svg"
   xmlns="http://www.w3.org/2000/svg"
   xmlns:sodipodi="http://sodipodi.sourceforge.net/DTD/sodipodi-0.dtd"
   xmlns:inkscape="http://www.inkscape.org/namespaces/inkscape"
   viewBox="0 0 208.14788 56.000001"
   class="svg-logo"
   id="svg2"
   version="1.1"
   inkscape:version="0.91 r"
   sodipodi:docname="smcs-logo2.svg">
  <metadata
     id="metadata44">
    <rdf:RDF>
      <cc:Work
         rdf:about="">
        <dc:format>image/svg+xml</dc:format>
        <dc:type
           rdf:resource="http://purl.org/dc/dcmitype/StillImage" />
      </cc:Work>
    </rdf:RDF>
  </metadata>
  <defs
     id="defs42" />
  <sodipodi:namedview
     pagecolor="#ffffff"
     bordercolor="#666666"
     borderopacity="1"
     objecttolerance="10"
     gridtolerance="10"
     guidetolerance="10"
     inkscape:pageopacity="0"
     inkscape:pageshadow="2"
     inkscape:window-width="1920"
     inkscape:window-height="1023"
     id="namedview40"
     showgrid="false"
     inkscape:zoom="4.0357984"
     inkscape:cx="88.985666"
     inkscape:cy="24.063104"
     inkscape:window-x="0"
     inkscape:window-y="30"
     inkscape:window-maximized="1"
     inkscape:current-layer="svg2" />
  <g
     fill="#002855"
     fill-rule="evenodd"
     id="g4">
    <path
       d="M19.124 1h8.304v54h-8.304z"
       id="path6" />
    <path
       d="M1 13.144h44.268v8.304H1z"
       id="path8" />
    <path
       d="M8.93 17.22L23.24 2.917 37.546 17.22l-14.31 14.31z"
       id="path10" />
  </g>
  <path
     d="M12.106 17.26L23.17 6.196 34.234 17.26 23.17 28.326z"
     fill="#ffe192"
     fill-rule="evenodd"
     stroke="#ffe192"
     stroke-width=".733"
     id="path12" />
  <g
     stroke="#ffe192"
     id="g14">
    <path
       d="M20.756 2.85h4.947v50.404h-4.947z"
       fill="#002855"
       fill-rule="evenodd"
       stroke-width=".7607028"
       id="path16" />
    <path
       d="M22.074 4.248h2.272v47.688h-2.272z"
       opacity=".8"
       fill="none"
       stroke-width=".8417244"
       id="path18" />
    <path
       d="M2.726 14.736h40.707v4.993H2.726z"
       fill="#002855"
       fill-rule="evenodd"
       stroke-width=".7165910400000001"
       id="path20" />
    <path
       d="M4.148 16.016H41.98V18.4H4.148z"
       opacity=".8"
       fill="#002855"
       fill-rule="evenodd"
       stroke-width=".7300946400000001"
       id="path22" />
  </g>
  <path
     d="M20.72 14.72h4.97v4.972h-4.972z"
     fill="#002855"
     fill-rule="evenodd"
     stroke="#ffe192"
     stroke-width=".737"
     id="path24" />
  <path
     d="M22.03 16.03h2.357v2.355H22.03z"
     fill="#002855"
     fill-rule="evenodd"
     stroke="#ffe192"
     stroke-width=".759"
     id="path26" />
  <g
     class="title--color"
     id="g28"
     transform="translate(0,2)">
    <path
       style="-inkscape-font-specification:'Cinzel Bold'"
       d="m 54.33,22.19 q 0,-2.457 1.06,-4.198 l 0.306,0 q -0.034,0.274 -0.034,0.548 0,2.354 1.672,4.128 1.707,1.74 4.64,1.74 2.286,0 3.55,-1.092 1.295,-1.092 1.295,-2.764 0,-0.99 -0.65,-1.774 -0.613,-0.786 -2.08,-1.74 l -5.938,-3.925 q -3.308,-2.217 -3.308,-5.457 0,-0.343 0.068,-0.684 Q 55.117,4.276 56.993,2.639 58.904,1 62.077,1 q 1.876,0 4.64,0.342 l 2.15,0 -0.445,5.016 -0.34,0 q 0,-1.775 -1.33,-2.832 -1.297,-1.093 -3.48,-1.093 -2.662,0 -3.856,1.64 -0.614,0.783 -0.614,1.57 0,0.782 0.307,1.328 0.476,0.89 2.08,1.912 l 6.517,4.23 q 3.07,2.013 3.07,5.255 0,3.616 -2.49,5.56 -2.457,1.91 -6.552,1.91 -2.318,0 -4.298,-0.545 -1.945,-0.58 -2.866,-1.536 -0.24,-0.647 -0.24,-1.57 z m 37.776,-12.452 0,-0.31 q 0,-1.467 -0.82,-2.32 -0.82,-0.853 -2.284,-0.888 l -3.957,0 0,17.026 q 0.034,0.75 0.58,1.262 0.545,0.51 1.296,0.51 l 0.375,0 0,0.342 -9.418,0 0,-0.34 0.34,0 q 0.785,0 1.33,-0.513 0.548,-0.513 0.548,-1.297 l 0,-16.992 -3.926,0 q -1.5,0.035 -2.318,0.89 -0.82,0.85 -0.82,2.318 l 0,0.307 -0.34,0 0,-5.393 q 0.477,0.17 1.57,0.34 1.125,0.173 2.013,0.173 l 12.59,0 q 1.5,0 2.456,-0.205 0.99,-0.24 1.126,-0.307 l 0,5.392 -0.34,0 z m 3.832,15.25 q -0.717,0.717 -1.74,0.717 -1.024,0 -1.74,-0.717 -0.717,-0.717 -0.717,-1.74 0,-1.024 0.716,-1.74 0.717,-0.75 1.74,-0.75 1.024,0 1.74,0.75 0.75,0.716 0.75,1.74 0,1.023 -0.75,1.74 z m 42.91,0.033 0.544,0 0,0.343 -10.234,0 0,-0.307 0.512,0 q 0.58,-0.034 0.99,-0.478 0.41,-0.443 0.34,-0.99 l -1.33,-12.384 -6.414,11.055 q -1.263,2.114 -1.297,3.785 l -0.34,0 -8.77,-14.74 -1.33,12.283 q -0.07,0.546 0.34,1.023 0.41,0.446 0.99,0.446 l 0.512,0 0,0.307 -7.13,0 0,-0.34 0.545,0 q 0.955,0 1.637,-0.58 0.716,-0.58 0.853,-1.57 l 2.832,-21.87 0.307,0 10.577,17.4 L 133.15,1 l 0.307,0 2.9,21.87 q 0.17,0.99 0.854,1.57 0.715,0.58 1.637,0.58 z"
       id="path30"
       inkscape:connector-curvature="0" />
    <path
       style="-inkscape-font-specification:'Cinzel Bold'"
       d="m 161.778,25.02 0.273,0 0,0.343 -10.03,0 0,-0.34 0.272,0 q 0.683,0 0.99,-0.41 0.307,-0.41 0.307,-0.75 0,-0.342 -0.137,-0.717 l -1.33,-3.14 -7.234,0 -1.366,3.174 q -0.136,0.34 -0.136,0.716 0,0.34 0.306,0.75 0.342,0.376 1.024,0.376 l 0.272,0 0,0.342 -6.823,0 0,-0.34 0.273,0 q 0.715,0 1.43,-0.445 0.718,-0.444 1.16,-1.33 l 7.064,-15.15 q 1.5,-3.378 1.57,-4.16 l 0.305,0 9.143,19.174 q 0.444,0.99 1.16,1.466 0.75,0.444 1.502,0.444 z m -16.31,-6.344 6.074,0 -3.003,-7.13 -3.07,7.13 z m 25.234,-12.386 -1.092,0 0,16.924 q 0,0.82 0.548,1.33 0.58,0.48 1.296,0.48 l 0.375,0 0,0.34 -9.382,0 0,-0.34 0.41,0 q 0.75,0 1.262,-0.514 0.546,-0.513 0.546,-1.263 l 0,-16.24 q 0,-0.75 -0.546,-1.262 -0.512,-0.512 -1.23,-0.512 l -0.442,0 0,-0.34 10.475,0 q 3.068,0 5.15,1.194 2.32,1.33 2.32,4.4 0,1.98 -1.193,3.583 -1.195,1.57 -3.548,1.91 0.92,0.308 1.808,1.16 0.92,0.853 1.466,1.74 1.09,1.946 2.286,3.583 1.194,1.604 1.91,2.082 0.75,0.478 1.808,0.478 l 0,0.342 -2.866,0 q -2.832,0 -4.368,-0.682 -1.5,-0.683 -2.694,-2.593 -1.843,-2.934 -2.286,-4.64 -0.41,-1.024 -0.99,-1.536 -0.545,-0.512 -1.057,-0.58 l 0,-0.273 0.852,0 q 2.898,-0.033 3.548,-3.41 0.136,-0.513 0.136,-0.888 0,-0.374 -0.035,-1.023 -0.035,-0.685 -0.444,-1.503 -0.376,-0.853 -0.99,-1.23 -1.06,-0.646 -2.184,-0.68 -0.374,-0.035 -0.852,-0.035 z"
       id="path32"
       inkscape:connector-curvature="0" />
    <path
       style="-inkscape-font-specification:'Cinzel Bold'"
       d="m 184.663,25.363 0,-0.34 0.34,0 q 1.094,0 1.64,-0.888 0.24,-0.41 0.272,-0.92 l 0,-16.175 q -0.034,-1.056 -0.955,-1.568 -0.444,-0.24 -0.956,-0.24 l -0.375,0 0,-0.34 9.45,0 0,0.34 -0.376,0 q -0.752,0 -1.332,0.513 -0.546,0.512 -0.58,1.262 l 0,16.207 q 0.034,0.75 0.58,1.296 0.546,0.51 1.33,0.51 l 0.34,0 0.035,0.342 -9.416,0 z m 22.485,0 -2.63,0 q -4.74,0 -6.753,-2.627 -0.17,-0.273 -1.5,-2.08 -3.447,-4.812 -3.447,-4.846 l 6.996,-9.28 q 0.374,-0.478 0.135,-0.887 -0.24,-0.444 -0.82,-0.444 l -0.306,0 0,-0.31 6.96,0 0,0.311 -0.137,0 q -1.844,0 -3.07,1.227 l -5.665,6.687 7.164,9.963 q 1.366,1.945 3.072,1.98 l 0,0.306 z"
       id="path34"
       inkscape:connector-curvature="0" />
  </g>
  <g
     class="title--color2"
     id="g36"
     transform="translate(0,-1.003)">
    <path
       d="m 56.578,39.634 q -0.387,0.36 -0.67,0.516 -0.284,0.155 -0.568,0.026 -0.257,-0.13 -0.36,-0.207 -0.104,-0.078 -0.413,-0.49 -0.284,-0.44 -0.36,-0.542 -1.316,-1.624 -3.404,-1.624 -2.063,0 -3.893,1.34 -1.805,1.315 -2.913,3.48 -1.11,2.167 -1.11,4.513 0,2.887 1.91,4.718 1.932,1.83 5.103,1.83 3.197,0 5.595,-1.78 0.387,-0.282 0.825,-0.824 0.464,-0.54 0.774,-0.772 0.335,-0.232 0.618,-0.206 0.31,0.025 0.85,0.18 -1.108,2.166 -3.71,3.378 -2.58,1.185 -5.854,1.185 -3.274,0 -5.543,-1.83 -2.27,-1.83 -2.27,-5.31 0,-2.167 0.723,-4.178 0.722,-2.036 1.985,-3.583 1.29,-1.573 3.197,-2.5 1.934,-0.93 4.177,-0.93 3.996,0 5.31,3.61 z m 12.072,7.142 -0.128,2.965 q 0,2.244 0.516,3.017 0.31,0.516 0.85,0.516 0.155,0 0.44,-0.078 0.54,-0.154 0.9,0.155 -0.18,0.902 -1.804,0.902 -1.108,0 -1.47,-0.928 -0.283,-0.696 -0.412,-1.727 -0.13,-1.057 -0.206,-1.444 -1.676,3.197 -3.248,3.893 -0.8,0.36 -1.857,0.36 -1.056,0 -1.65,-1.004 -0.566,-1.032 -0.566,-2.99 0,-1.96 0.645,-4.1 0.643,-2.166 1.88,-3.636 1.238,-1.495 2.708,-1.495 2.114,0 2.81,1.754 0.593,1.496 0.593,3.842 z m -6.316,-0.825 q -0.36,1.393 -0.54,2.656 -0.18,1.238 -0.18,2.217 0,0.954 0.385,1.65 0.412,0.697 1.056,0.697 1.393,0 2.682,-2.63 1.29,-2.63 1.29,-4.9 0,-1.468 -0.775,-2.422 -0.515,-0.62 -1.366,-0.62 -0.825,0 -1.52,0.98 -0.672,0.955 -1.033,2.373 z m 9.776,-2.553 q -1.16,0 -1.57,-0.567 0,-0.41 0.334,-0.643 0.36,-0.232 0.773,-0.284 0.413,-0.077 1.34,-0.13 0.078,-0.695 0.078,-1.778 0.026,-1.108 0.052,-1.882 0.077,-2.037 0.618,-2.5 0.233,-0.207 0.49,-0.207 0.284,0 0.49,0.052 0.078,1.856 0.078,2.243 l -0.155,3.868 q 0.05,0.026 0.283,0.026 l 1.858,-0.078 q 2.01,0 2.01,0.62 0,0.876 -0.72,1.03 -0.336,0.078 -0.8,0.078 -0.44,0 -1.16,-0.103 -0.697,-0.128 -1.006,-0.128 -0.31,0 -0.413,0.025 -0.078,0.748 -0.078,1.496 0,0.722 0.026,1.83 0.05,1.083 0.206,2.604 0.18,1.52 0.748,2.63 0.567,1.083 1.444,1.083 0.438,0 1.03,-0.335 0.594,-0.36 0.903,-0.36 0.334,0 0.566,0.153 0.258,0.13 0.258,0.31 0,0.54 -1.108,1.057 -1.083,0.49 -1.857,0.49 -2.837,0 -3.533,-5.363 -0.206,-1.547 -0.31,-5.31 -0.412,0.076 -0.876,0.076 z m 9.345,5.466 0.232,-11.55 q 0,-1.34 -0.155,-1.83 0.464,-0.413 1.418,-0.413 0.387,2.76 0.387,7.09 0,1.29 -0.232,5.982 1.212,-6.523 4.33,-6.523 1.11,0 1.703,1.185 0.62,1.16 0.773,2.836 0.156,1.677 0.26,3.353 0.257,4.022 1.443,4.022 0.026,0 0.49,-0.155 1.03,-0.31 1.16,-0.155 0,0.284 -0.8,0.722 -0.798,0.413 -1.47,0.413 -1.133,0 -1.752,-1.16 -0.592,-1.186 -0.747,-2.862 -0.13,-1.676 -0.206,-3.326 -0.05,-1.676 -0.335,-2.836 Q 87.67,42.471 87,42.471 q -0.825,0 -1.52,1.805 -0.67,1.78 -1.058,3.944 -0.387,2.165 -0.954,3.97 -0.54,1.78 -1.11,1.78 -0.9,0 -0.9,-5.106 z M 94.766,43.5 q 1.314,-2.01 3.79,-2.01 2.474,0 3.944,2.01 1.495,2.012 1.495,4.59 0,2.553 -1.624,4.332 -1.623,1.78 -4.124,1.78 -2.5,0 -3.635,-1.393 -1.134,-1.42 -1.134,-3.972 0,-3.326 1.29,-5.337 z m 1.134,1.37 q -0.335,1.005 -0.516,2.01 -0.154,1.006 -0.154,1.883 0,0.852 0.13,1.574 0.127,0.696 0.437,1.392 0.31,0.67 0.928,1.083 0.62,0.385 1.47,0.385 1.727,0 2.887,-1.418 1.186,-1.418 1.186,-3.43 0,-2.01 -1.083,-3.892 -1.057,-1.907 -2.604,-1.907 -0.927,0 -1.623,0.644 -0.696,0.645 -1.057,1.676 z m 11.48,-6.087 q 0,-2.552 -0.697,-3.428 0.335,-0.49 1.16,-0.49 0.154,0 0.335,0.025 0.644,0.645 0.644,3.74 0,1.675 -0.154,3.892 -0.31,3.867 -0.31,5.672 0,4.872 1.882,4.872 l 0.954,-0.18 q 0.232,0 0.387,0.206 -0.076,0.928 -1.52,0.928 -1.418,0 -2.19,-0.85 -0.775,-0.877 -0.98,-2.166 -0.182,-1.315 -0.182,-2.166 0,-0.85 0.026,-1.856 0.026,-1.03 0.232,-2.94 0.413,-3.866 0.413,-5.26 z m 7.122,-3.557 q -0.026,0.593 -0.026,1.314 0,0.722 0.077,1.496 -0.36,0.412 -0.98,0.412 -0.773,0 -0.773,-1.237 l 0,-0.386 0,-0.593 q 0.026,-0.283 0.103,-0.643 0.18,-0.62 0.8,-0.62 0.618,0 0.8,0.26 z m -1.65,12.633 q 0,-5.055 0.515,-5.828 0.18,-0.284 0.44,-0.284 0.256,0 0.85,0.284 -0.13,2.19 -0.13,4.77 l 0.052,5.697 q 0,0.798 -0.362,1.134 -0.335,0.31 -0.644,0.31 -0.284,0 -0.593,-0.156 -0.128,-3.35 -0.128,-5.93 z m 13.618,-3.326 q -0.49,0.49 -0.98,0.49 -0.49,0 -0.8,-0.413 -0.283,-0.438 -0.463,-0.928 -0.18,-0.516 -0.67,-0.928 -0.464,-0.438 -1.186,-0.438 -1.005,0.103 -1.83,1.443 -0.825,1.314 -1.212,2.913 -0.386,1.598 -0.386,3.016 0,1.39 0.773,2.422 0.8,1.006 2.14,1.006 1.547,0 2.475,-1.083 0.387,-0.464 0.722,-0.928 0.825,-1.083 1.495,-1.083 0.232,0 0.67,0.13 0,0.953 -1.753,2.526 -1.727,1.547 -3.764,1.547 -2.036,0 -3.222,-1.29 -1.16,-1.314 -1.16,-3.377 0,-2.655 1.29,-5.31 0.643,-1.29 1.752,-2.115 1.108,-0.85 2.475,-0.85 1.366,0 2.19,0.927 0.852,0.903 1.445,2.32 z m 10.748,-7.683 q 0.98,-0.645 2.14,-0.954 1.16,-0.31 2.294,-0.31 1.134,0 2.114,0.155 1.006,0.13 2.037,0.465 1.057,0.335 1.727,1.032 0.67,0.696 0.748,1.65 0.026,0.386 -0.31,0.593 -0.31,0.18 -0.72,0.18 -0.388,0 -0.594,-0.18 -0.18,-0.207 -0.36,-0.593 -0.98,-1.986 -4.28,-1.986 -2.244,0 -3.688,0.955 -1.418,0.954 -1.418,2.785 0,1.03 0.645,1.78 0.644,0.72 1.676,1.133 1.056,0.413 2.293,0.748 1.263,0.336 2.5,0.748 1.264,0.413 2.295,0.98 1.057,0.567 1.702,1.598 0.645,1.006 0.645,2.424 0,2.062 -2.037,3.506 -2.01,1.444 -5.08,1.444 -2.37,0 -4.64,-1.005 -2.27,-1.006 -2.27,-2.063 0,-0.284 0.337,-0.516 0.335,-0.257 0.644,-0.257 0.334,0 0.618,0.205 0.283,0.18 0.644,0.515 0.36,0.336 0.645,0.516 1.96,1.238 4.383,1.238 1.7,0 3.326,-1.032 1.624,-1.057 1.624,-2.81 0,-1.186 -0.877,-1.96 -0.876,-0.798 -2.19,-1.134 -1.316,-0.36 -2.863,-0.8 -1.52,-0.437 -2.836,-0.9 -1.315,-0.465 -2.19,-1.497 -0.878,-1.03 -0.878,-2.448 0,-1.444 0.593,-2.5 0.618,-1.083 1.598,-1.702 z m 22.738,7.683 q -0.49,0.49 -0.98,0.49 -0.49,0 -0.8,-0.413 -0.283,-0.438 -0.463,-0.928 -0.18,-0.516 -0.67,-0.928 -0.465,-0.438 -1.187,-0.438 -1.005,0.103 -1.83,1.443 -0.825,1.314 -1.212,2.913 -0.387,1.598 -0.387,3.016 0,1.39 0.774,2.422 0.8,1.006 2.14,1.006 1.548,0 2.476,-1.083 0.387,-0.464 0.722,-0.928 0.825,-1.083 1.495,-1.083 0.232,0 0.67,0.13 0,0.953 -1.753,2.526 -1.727,1.547 -3.764,1.547 -2.037,0 -3.223,-1.29 -1.16,-1.314 -1.16,-3.377 0,-2.655 1.29,-5.31 0.644,-1.29 1.752,-2.115 1.11,-0.85 2.475,-0.85 1.367,0 2.192,0.927 0.85,0.903 1.444,2.32 z m 2.974,4.331 0.23,-11.55 q 0,-1.34 -0.154,-1.83 0.464,-0.413 1.418,-0.413 0.387,2.76 0.387,7.09 0,1.29 -0.23,5.982 1.21,-6.523 4.33,-6.523 1.108,0 1.7,1.185 0.62,1.16 0.775,2.836 0.155,1.677 0.258,3.353 0.258,4.022 1.443,4.022 0.026,0 0.49,-0.155 1.032,-0.31 1.16,-0.155 0,0.284 -0.8,0.722 -0.798,0.413 -1.468,0.413 -1.135,0 -1.753,-1.16 -0.593,-1.186 -0.748,-2.862 -0.13,-1.676 -0.206,-3.326 -0.05,-1.676 -0.334,-2.836 -0.284,-1.186 -0.954,-1.186 -0.825,0 -1.522,1.805 -0.67,1.78 -1.057,3.944 -0.386,2.165 -0.953,3.97 -0.542,1.78 -1.11,1.78 -0.9,0 -0.9,-5.106 z M 176.24,43.5 q 1.314,-2.01 3.79,-2.01 2.474,0 3.944,2.01 1.495,2.012 1.495,4.59 0,2.553 -1.625,4.332 -1.625,1.78 -4.125,1.78 -2.5,0 -3.636,-1.393 -1.134,-1.42 -1.134,-3.972 0,-3.326 1.29,-5.337 z m 1.133,1.368 q -0.335,1.005 -0.515,2.01 -0.155,1.006 -0.155,1.883 0,0.852 0.13,1.574 0.128,0.696 0.437,1.392 0.31,0.67 0.928,1.083 0.62,0.385 1.47,0.385 1.727,0 2.888,-1.418 1.185,-1.418 1.185,-3.43 0,-2.01 -1.08,-3.892 -1.058,-1.907 -2.605,-1.907 -0.928,0 -1.624,0.644 -0.696,0.645 -1.057,1.676 z M 188.878,43.5 q 1.315,-2.01 3.79,-2.01 2.475,0 3.944,2.01 1.496,2.012 1.496,4.59 0,2.553 -1.624,4.332 -1.625,1.78 -4.125,1.78 -2.502,0 -3.637,-1.393 -1.134,-1.42 -1.134,-3.972 0,-3.326 1.288,-5.337 z m 1.134,1.368 q -0.335,1.005 -0.515,2.01 -0.155,1.006 -0.155,1.883 0,0.852 0.13,1.574 0.128,0.696 0.437,1.392 0.31,0.67 0.927,1.083 0.62,0.385 1.47,0.385 1.727,0 2.888,-1.418 1.185,-1.418 1.185,-3.43 0,-2.01 -1.082,-3.892 -1.057,-1.907 -2.604,-1.907 -0.928,0 -1.625,0.644 -0.697,0.645 -1.058,1.676 z m 11.478,-6.085 q 0,-2.552 -0.695,-3.428 0.335,-0.49 1.16,-0.49 0.155,0 0.335,0.025 0.645,0.645 0.645,3.74 0,1.675 -0.155,3.892 -0.31,3.867 -0.31,5.672 0,4.872 1.883,4.872 l 0.954,-0.18 q 0.232,0 0.387,0.206 -0.078,0.928 -1.52,0.928 -1.42,0 -2.193,-0.85 -0.772,-0.877 -0.98,-2.166 -0.18,-1.315 -0.18,-2.166 0,-0.85 0.027,-1.856 0.026,-1.03 0.232,-2.94 0.41,-3.866 0.41,-5.26 z"
       style="-inkscape-font-specification:Handlee"
       id="path38"
       inkscape:connector-curvature="0" />
  </g>
</svg>
