<?xml version="1.0" encoding="UTF-8" standalone="no"?>
<svg
   xmlns:dc="http://purl.org/dc/elements/1.1/"
   xmlns:cc="http://creativecommons.org/ns#"
   xmlns:rdf="http://www.w3.org/1999/02/22-rdf-syntax-ns#"
   xmlns:svg="http://www.w3.org/2000/svg"
   xmlns="http://www.w3.org/2000/svg"
   xmlns:sodipodi="http://sodipodi.sourceforge.net/DTD/sodipodi-0.dtd"
   xmlns:inkscape="http://www.inkscape.org/namespaces/inkscape"
   version="1"
   class="toggle-img toggle-sports"
   viewBox="0 0 48 48"
   enable-background="new 0 0 48 48"
   id="svg2"
   inkscape:version="0.91 r"
   sodipodi:docname="sports.svg">
  <metadata
     id="metadata18">
    <rdf:RDF>
      <cc:Work
         rdf:about="">
        <dc:format>image/svg+xml</dc:format>
        <dc:type
           rdf:resource="http://purl.org/dc/dcmitype/StillImage" />
        <dc:title></dc:title>
      </cc:Work>
    </rdf:RDF>
  </metadata>
  <defs
     id="defs16" />
  <sodipodi:namedview
     pagecolor="#ffffff"
     bordercolor="#666666"
     borderopacity="1"
     objecttolerance="10"
     gridtolerance="10"
     guidetolerance="10"
     inkscape:pageopacity="0"
     inkscape:pageshadow="2"
     inkscape:window-width="1920"
     inkscape:window-height="1053"
     id="namedview14"
     showgrid="false"
     inkscape:zoom="4.9166667"
     inkscape:cx="24"
     inkscape:cy="24"
     inkscape:window-x="1920"
     inkscape:window-y="82"
     inkscape:window-maximized="1"
     inkscape:current-layer="svg2" />
  <g
     id="g9912"
     transform="translate(-1.3379466,1)">
    <circle
       class="t-fill__2--light"
       id="circle4"
       r="5.25"
       cy="7.25"
       cx="28.996876" />
    <path
       inkscape:connector-curvature="0"
       class="t-fill__2--dark"
       id="path6"
       d="m 30.046875,26.465 -9.66,-4.305 c -1.05,-0.525 -1.575,1.05 -2.1,2.1 -0.525,1.05 -4.305,7.56 -3.99,8.715 0.315,0.945 1.155,1.47 1.995,1.47 0.21,0 0.42,0 0.63,-0.105 l 12.915,-3.99 c 0.84,-0.21 1.47,-1.05 1.47,-1.89 0,-0.84 -0.525,-1.68 -1.26,-1.995 z" />
    <path
       inkscape:connector-curvature="0"
       class="t-fill__2"
       id="path8"
       d="m 27.736875,13.76 -2.31,-1.05 c -1.365,-0.63 -3.045,0 -3.675,1.365 l -12.495,26.88 c -0.525,1.05 0,2.31 1.05,2.835 0.315,0.105 0.63,0.21 0.945,0.21 0.84,0 1.575,-0.42 1.89,-1.155 0,0 10.08,-13.965 10.92,-15.645 0.84,-1.68 5.145,-9.765 5.145,-9.765 0.525,-1.365 0,-3.045 -1.47,-3.675 z" />
    <path
       inkscape:connector-curvature="0"
       class="t-fill__2--light"
       id="path10"
       d="m 42.121875,14.285 c -0.735,-0.84 -2.1,-1.05 -2.94,-0.315 l -5.25,4.41 -6.72,-3.675 c -1.155,-0.63 -2.73,-0.42 -3.465,0.945 -0.84,1.365 -0.42,3.045 0.84,3.57 l 8.715,3.57 c 0.315,0.105 0.63,0.21 0.945,0.21 0.525,0 0.945,-0.21 1.365,-0.525 l 6.3,-5.25 c 0.84,-0.735 0.945,-1.995 0.21,-2.94 z" />
    <path
       inkscape:connector-curvature="0"
       class="t-fill__2--light"
       id="path12"
       d="m 11.881875,22.055 3.57,-5.355 4.83,0.63 1.575,-3.255 c 0.42,-0.945 1.26,-1.47 2.205,-1.575 -0.105,0 -0.21,0 -0.21,0 l -9.45,0 c -0.735,0 -1.365,0.315 -1.785,0.945 l -4.2,6.3 c -0.63,0.945 -0.42,2.31 0.63,2.94 0.21,0.21 0.63,0.315 1.05,0.315 0.63,0 1.365,-0.315 1.785,-0.945 z" />
  </g>
</svg>
