<?xml version="1.0" encoding="UTF-8" standalone="yes"?>
<svg version="1.1" xmlns="http://www.w3.org/2000/svg" xmlns:xlink="http://www.w3.org/1999/xlink" x="0px" y="0px" viewBox="0 0 512 512" enable-background="new 0 0 512 512" xml:space="preserve">
	<g id="bounds" display="none"><rect display="inline" fill="none" width="512" height="512"/></g>
	<g id="Layer_2">
		<path d="M 195.714844 138 C 198.761719 138 201.382812 136.90625 203.570312 134.714844 C 205.761719 132.523438 206.855469 129.90625 206.855469 126.855469 C 206.855469 123.808594 205.761719 121.191406 203.570312 119 C 201.382812 116.808594 198.761719 115.714844 195.714844 115.714844 C 192.667969 115.714844 190.09375 116.808594 188 119 C 185.90625 121.191406 184.855469 123.808594 184.855469 126.855469 C 184.855469 129.90625 185.90625 132.523438 188 134.714844 C 190.09375 136.90625 192.667969 138 195.714844 138 Z M 316.285156 138 C 319.332031 138 321.90625 136.90625 324 134.714844 C 326.09375 132.523438 327.144531 129.90625 327.144531 126.855469 C 327.144531 123.808594 326.09375 121.191406 324 119 C 321.90625 116.808594 319.332031 115.714844 316.285156 115.714844 C 313.238281 115.714844 310.617188 116.808594 308.429688 119 C 306.238281 121.191406 305.144531 123.808594 305.144531 126.855469 C 305.144531 129.90625 306.238281 132.523438 308.429688 134.714844 C 310.617188 136.90625 313.238281 138 316.285156 138 Z M 84.285156 190.570312 C 92.285156 190.570312 99.144531 193.429688 104.855469 199.144531 C 110.570312 204.855469 113.429688 211.714844 113.429688 219.714844 L 113.429688 342.570312 C 113.429688 350.761719 110.617188 357.714844 105 363.429688 C 99.382812 369.144531 92.476562 372 84.285156 372 C 76.09375 372 69.144531 369.144531 63.429688 363.429688 C 57.714844 357.714844 54.855469 350.761719 54.855469 342.570312 L 54.855469 219.714844 C 54.855469 211.714844 57.714844 204.855469 63.429688 199.144531 C 69.144531 193.429688 76.09375 190.570312 84.285156 190.570312 Z M 387.144531 196 L 387.144531 386.285156 C 387.144531 395.046875 384.09375 402.476562 378 408.570312 C 371.90625 414.667969 364.570312 417.714844 356 417.714844 L 334.570312 417.714844 L 334.570312 482.570312 C 334.570312 490.761719 331.714844 497.714844 326 503.429688 C 320.285156 509.144531 313.332031 512 305.144531 512 C 296.953125 512 290 509.144531 284.285156 503.429688 C 278.570312 497.714844 275.714844 490.761719 275.714844 482.570312 L 275.714844 417.714844 L 236.285156 417.714844 L 236.285156 482.570312 C 236.285156 490.761719 233.429688 497.714844 227.714844 503.429688 C 222 509.144531 215.046875 512 206.855469 512 C 198.855469 512 192 509.144531 186.285156 503.429688 C 180.570312 497.714844 177.714844 490.761719 177.714844 482.570312 L 177.429688 417.714844 L 156.285156 417.714844 C 147.523438 417.714844 140.09375 414.667969 134 408.570312 C 127.90625 402.476562 124.855469 395.046875 124.855469 386.285156 L 124.855469 196 Z M 320.855469 80.285156 C 341.238281 90.761719 357.523438 105.382812 369.714844 124.144531 C 381.90625 142.90625 388 163.429688 388 185.714844 L 123.714844 185.714844 C 123.714844 163.429688 129.808594 142.90625 142 124.144531 C 154.191406 105.382812 170.570312 90.761719 191.144531 80.285156 L 170.855469 42.855469 C 169.523438 40.382812 170 38.476562 172.285156 37.144531 C 174.761719 36 176.667969 36.570312 178 38.855469 L 198.570312 76.570312 C 216.667969 68.570312 235.808594 64.570312 256 64.570312 C 276.191406 64.570312 295.332031 68.570312 313.429688 76.570312 L 334 38.855469 C 335.332031 36.570312 337.238281 36 339.714844 37.144531 C 342 38.476562 342.476562 40.382812 341.144531 42.855469 Z M 457.144531 219.714844 L 457.144531 342.570312 C 457.144531 350.761719 454.285156 357.714844 448.570312 363.429688 C 442.855469 369.144531 435.90625 372 427.714844 372 C 419.714844 372 412.855469 369.144531 407.144531 363.429688 C 401.429688 357.714844 398.570312 350.761719 398.570312 342.570312 L 398.570312 219.714844 C 398.570312 211.523438 401.429688 204.617188 407.144531 199 C 412.855469 193.382812 419.714844 190.570312 427.714844 190.570312 C 435.90625 190.570312 442.855469 193.382812 448.570312 199 C 454.285156 204.617188 457.144531 211.523438 457.144531 219.714844 Z M 457.144531 219.714844 "/>
	</g>
</svg>
