<?xml version="1.0" encoding="UTF-8" standalone="yes"?>
<svg version="1.1" xmlns="http://www.w3.org/2000/svg" xmlns:xlink="http://www.w3.org/1999/xlink" x="0px" y="0px" viewBox="0 0 512 512" enable-background="new 0 0 512 512" xml:space="preserve">
  <g id="bounds" display="none"><rect display="inline" fill="none" width="512" height="512"/></g><g id="Layer_2">
    <path style=" stroke:none;fill-rule:nonzero;fill:rgb(0%,0%,0%);fill-opacity:1;" d="M 452.855469 347.144531 C 445.429688 370.953125 433.714844 394.761719 417.714844 418.570312 C 393.144531 455.90625 368.667969 474.570312 344.285156 474.570312 C 334.953125 474.570312 321.617188 471.523438 304.285156 465.429688 C 287.90625 459.332031 273.523438 456.285156 261.144531 456.285156 C 249.523438 456.285156 236 459.429688 220.570312 465.714844 C 205.144531 472.191406 192.570312 475.429688 182.855469 475.429688 C 153.90625 475.429688 125.238281 450.761719 96.855469 401.429688 C 68.855469 351.714844 54.855469 303.808594 54.855469 257.714844 C 54.855469 214.285156 65.617188 178.667969 87.144531 150.855469 C 108.476562 123.429688 135.523438 109.714844 168.285156 109.714844 C 182 109.714844 198.855469 112.570312 218.855469 118.285156 C 238.667969 124 251.808594 126.855469 258.285156 126.855469 C 266.855469 126.855469 280.476562 123.617188 299.144531 117.144531 C 318.570312 110.667969 335.046875 107.429688 348.570312 107.429688 C 371.238281 107.429688 391.523438 113.617188 409.429688 126 C 419.332031 132.855469 429.238281 142.382812 439.144531 154.570312 C 424.09375 167.332031 413.238281 178.570312 406.570312 188.285156 C 394.191406 206.191406 388 225.90625 388 247.429688 C 388 271.046875 394.570312 292.285156 407.714844 311.144531 C 420.855469 330 435.90625 342 452.855469 347.144531 Z M 345.429688 12 C 345.429688 23.617188 342.667969 36.570312 337.144531 50.855469 C 331.429688 65.144531 322.570312 78.285156 310.570312 90.285156 C 300.285156 100.570312 290 107.429688 279.714844 110.855469 C 272.667969 112.953125 262.761719 114.570312 250 115.714844 C 250.570312 87.332031 258 62.855469 272.285156 42.285156 C 286.382812 21.90625 310.191406 7.808594 343.714844 0 C 343.90625 0.570312 344.144531 1.617188 344.429688 3.144531 C 344.714844 4.667969 344.953125 5.714844 345.144531 6.285156 C 345.144531 7.046875 345.191406 8 345.285156 9.144531 C 345.382812 10.285156 345.429688 11.238281 345.429688 12 Z M 345.429688 12 "/>
  </g>
</svg>