<?xml version="1.0" encoding="UTF-8" standalone="yes"?>
<svg version="1.1" xmlns="http://www.w3.org/2000/svg" xmlns:xlink="http://www.w3.org/1999/xlink" x="0px" y="0px" viewBox="0 0 512 512" enable-background="new 0 0 512 512" xml:space="preserve">
  <g id="bounds" display="none"><rect display="inline" fill="none" width="512" height="512"/></g><g id="Layer_2">
    <path style=" stroke:none;fill-rule:nonzero;fill:rgb(0%,0%,0%);fill-opacity:1;" d="M 491.429688 96.855469 L 345.429688 96.855469 L 345.429688 132.285156 L 491.429688 132.285156 Z M 419.429688 218.570312 C 402.285156 218.570312 388.382812 223.570312 377.714844 233.570312 C 367.046875 243.570312 361.144531 257.144531 360 274.285156 L 476.570312 274.285156 C 473.144531 237.144531 454.09375 218.570312 419.429688 218.570312 Z M 424 385.714844 C 436 385.714844 447.617188 382.667969 458.855469 376.570312 C 470.09375 370.476562 477.332031 362.191406 480.570312 351.714844 L 543.714844 351.714844 C 524.667969 410.191406 484 439.429688 421.714844 439.429688 C 380.953125 439.429688 348.523438 426.855469 324.429688 401.714844 C 300.332031 376.570312 288.285156 343.523438 288.285156 302.570312 C 288.285156 262.953125 300.714844 230.046875 325.570312 203.855469 C 350.429688 177.667969 382.476562 164.570312 421.714844 164.570312 C 448 164.570312 470.90625 171.046875 490.429688 184 C 509.953125 196.953125 524.523438 214 534.144531 235.144531 C 543.761719 256.285156 548.570312 279.90625 548.570312 306 C 548.570312 309.238281 548.382812 313.714844 548 319.429688 L 360 319.429688 C 360 340.570312 365.476562 356.90625 376.429688 368.429688 C 387.382812 379.953125 403.238281 385.714844 424 385.714844 Z M 42.570312 371.429688 L 127.144531 371.429688 C 166.191406 371.429688 185.714844 355.523438 185.714844 323.714844 C 185.714844 289.429688 166.761719 272.285156 128.855469 272.285156 L 42.570312 272.285156 Z M 42.570312 218 L 122.855469 218 C 137.714844 218 149.476562 214.523438 158.144531 207.570312 C 166.808594 200.617188 171.144531 189.808594 171.144531 175.144531 C 171.144531 147.714844 153.046875 134 116.855469 134 L 42.570312 134 Z M -36.570312 72.570312 L 133.144531 72.570312 C 149.714844 72.570312 164.476562 73.90625 177.429688 76.570312 C 190.382812 79.238281 202.429688 83.761719 213.570312 90.144531 C 224.714844 96.523438 233.285156 105.714844 239.285156 117.714844 C 245.285156 129.714844 248.285156 144.382812 248.285156 161.714844 C 248.285156 196.191406 231.90625 221.238281 199.144531 236.855469 C 220.855469 242.953125 237.238281 253.90625 248.285156 269.714844 C 259.332031 285.523438 264.855469 304.953125 264.855469 328 C 264.855469 342.285156 262.523438 355.285156 257.855469 367 C 253.191406 378.714844 246.90625 388.570312 239 396.570312 C 231.09375 404.570312 221.714844 411.332031 210.855469 416.855469 C 200 422.382812 188.476562 426.382812 176.285156 428.855469 C 164.09375 431.332031 151.332031 432.570312 138 432.570312 L -36.570312 432.570312 Z M -36.570312 72.570312 "/>
  </g>
</svg>
