<?xml version="1.0" encoding="UTF-8" standalone="yes"?>
<svg version="1.1" xmlns="http://www.w3.org/2000/svg" xmlns:xlink="http://www.w3.org/1999/xlink" x="0px" y="0px" viewBox="0 0 512 512" enable-background="new 0 0 512 512" xml:space="preserve">
  <g id="bounds" display="none"><rect display="inline" fill="none" width="512" height="512"/></g><g id="Layer_2">
    <path style=" stroke:none;fill-rule:nonzero;fill:rgb(0%,0%,0%);fill-opacity:1;" d="M 287.714844 245.429688 C 289.238281 257.429688 284.429688 267.046875 273.285156 274.285156 C 262.144531 281.523438 251.523438 282.09375 241.429688 276 C 234 272.761719 228.90625 267.238281 226.144531 259.429688 C 223.382812 251.617188 223.332031 243.808594 226 236 C 228.667969 228.191406 233.617188 222.667969 240.855469 219.429688 C 247.714844 216 254.617188 214.855469 261.570312 216 C 268.523438 217.144531 274.617188 220.523438 279.855469 226.144531 C 285.09375 231.761719 287.714844 238.191406 287.714844 245.429688 Z M 319.429688 239.429688 C 316.761719 219.046875 306 203.429688 287.144531 192.570312 C 268.285156 181.714844 249.523438 180.476562 230.855469 188.855469 C 218.855469 194.191406 209.285156 202.617188 202.144531 214.144531 C 195 225.667969 191.714844 238 192.285156 251.144531 C 193.046875 268.476562 200.429688 283.238281 214.429688 295.429688 C 228.429688 307.617188 244.191406 312.953125 261.714844 311.429688 C 279.046875 309.90625 293.523438 301.90625 305.144531 287.429688 C 316.761719 272.953125 321.523438 256.953125 319.429688 239.429688 Z M 387.714844 84.570312 C 383.90625 79.429688 378.570312 75.191406 371.714844 71.855469 C 364.855469 68.523438 359.332031 66.429688 355.144531 65.570312 C 350.953125 64.714844 344.191406 63.523438 334.855469 62 C 279.429688 53.046875 225.523438 53.238281 173.144531 62.570312 C 164.953125 63.90625 158.667969 65.046875 154.285156 66 C 149.90625 66.953125 144.667969 69.046875 138.570312 72.285156 C 132.476562 75.523438 127.714844 79.617188 124.285156 84.570312 C 130 89.90625 137.238281 94.238281 146 97.570312 C 154.761719 100.90625 161.761719 103 167 103.855469 C 172.238281 104.714844 180.570312 105.808594 192 107.144531 C 235.429688 112.667969 278.09375 112.761719 320 107.429688 C 332 105.90625 340.523438 104.761719 345.570312 104 C 350.617188 103.238281 357.523438 101.191406 366.285156 97.855469 C 375.046875 94.523438 382.191406 90.09375 387.714844 84.570312 Z M 404 380.285156 C 402.476562 385.238281 401 392.523438 399.570312 402.144531 C 398.144531 411.761719 396.808594 419.761719 395.570312 426.144531 C 394.332031 432.523438 391.617188 439.191406 387.429688 446.144531 C 383.238281 453.09375 377.714844 458.476562 370.855469 462.285156 C 354.476562 471.429688 336.429688 478.238281 316.714844 482.714844 C 297 487.191406 277.761719 489.285156 259 489 C 240.238281 488.714844 221.046875 486.953125 201.429688 483.714844 C 192.667969 482.191406 184.90625 480.476562 178.144531 478.570312 C 171.382812 476.667969 164.09375 474.09375 156.285156 470.855469 C 148.476562 467.617188 141.523438 463.476562 135.429688 458.429688 C 129.332031 453.382812 124.382812 447.523438 120.570312 440.855469 C 115.808594 422.570312 110.382812 394.761719 104.285156 357.429688 L 106 352.855469 L 111.144531 350.285156 C 153.617188 378.476562 201.855469 392.570312 255.855469 392.570312 C 309.855469 392.570312 358.191406 378.476562 400.855469 350.285156 C 404.855469 351.429688 407.144531 353.617188 407.714844 356.855469 C 408.285156 360.09375 407.808594 364.382812 406.285156 369.714844 C 404.761719 375.046875 404 378.570312 404 380.285156 Z M 455.714844 105.714844 C 450.761719 137.523438 440.191406 199.90625 424 292.855469 C 423.046875 298.570312 420.476562 303.90625 416.285156 308.855469 C 412.09375 313.808594 407.953125 317.617188 403.855469 320.285156 C 399.761719 322.953125 394.570312 325.90625 388.285156 329.144531 C 340.285156 353.144531 282.191406 361.523438 214 354.285156 C 166.761719 349.144531 129.238281 335.90625 101.429688 314.570312 C 98.570312 312.285156 96.144531 309.761719 94.144531 307 C 92.144531 304.238281 90.523438 300.90625 89.285156 297 C 88.046875 293.09375 87.191406 289.855469 86.714844 287.285156 C 86.238281 284.714844 85.667969 280.953125 85 276 C 84.332031 271.046875 83.808594 267.714844 83.429688 266 C 81.714844 256.476562 79.191406 242.191406 75.855469 223.144531 C 72.523438 204.09375 69.855469 188.714844 67.855469 177 C 65.855469 165.285156 63.617188 151.238281 61.144531 134.855469 C 58.667969 118.476562 56.570312 103.429688 54.855469 89.714844 C 55.429688 84.761719 57.09375 80.144531 59.855469 75.855469 C 62.617188 71.570312 65.617188 68 68.855469 65.144531 C 72.09375 62.285156 76.382812 59.429688 81.714844 56.570312 C 87.046875 53.714844 91.429688 51.570312 94.855469 50.144531 C 98.285156 48.714844 102.855469 46.953125 108.570312 44.855469 C 132.382812 36.09375 162.191406 30 198 26.570312 C 270.191406 19.523438 334.570312 24.285156 391.144531 40.855469 C 420.667969 49.617188 441.144531 61.238281 452.570312 75.714844 C 455.617188 79.523438 457.191406 84.382812 457.285156 90.285156 C 457.382812 96.191406 456.855469 101.332031 455.714844 105.714844 Z M 455.714844 105.714844 "/>
  </g>
</svg>