<?xml version="1.0" encoding="UTF-8" standalone="yes"?>
<svg version="1.1" xmlns="http://www.w3.org/2000/svg" xmlns:xlink="http://www.w3.org/1999/xlink" x="0px" y="0px" viewBox="0 0 512 512" enable-background="new 0 0 512 512" xml:space="preserve">
  <g id="bounds" display="none"><rect display="inline" fill="none" width="512" height="512"/></g><g id="Layer_2">
    <path style=" stroke:none;fill-rule:nonzero;fill:rgb(0%,0%,0%);fill-opacity:1;" d="M 61.714844 334 L 234 448.855469 L 234 346.285156 L 138.570312 282.570312 Z M 44 292.855469 L 99.144531 256 L 44 219.144531 Z M 278 448.855469 L 450.285156 334 L 373.429688 282.570312 L 278 346.285156 Z M 256 308 L 333.714844 256 L 256 204 L 178.285156 256 Z M 138.570312 229.429688 L 234 165.714844 L 234 63.144531 L 61.714844 178 Z M 412.855469 256 L 468 292.855469 L 468 219.144531 Z M 373.429688 229.429688 L 450.285156 178 L 278 63.144531 L 278 165.714844 Z M 512 178 L 512 334 C 512 341.808594 508.761719 347.90625 502.285156 352.285156 L 268.285156 508.285156 C 264.285156 510.761719 260.191406 512 256 512 C 251.808594 512 247.714844 510.761719 243.714844 508.285156 L 9.714844 352.285156 C 3.238281 347.90625 0 341.808594 0 334 L 0 178 C 0 170.191406 3.238281 164.09375 9.714844 159.714844 L 243.714844 3.714844 C 247.714844 1.238281 251.808594 0 256 0 C 260.191406 0 264.285156 1.238281 268.285156 3.714844 L 502.285156 159.714844 C 508.761719 164.09375 512 170.191406 512 178 Z M 512 178 "/>
  </g>
</svg>
