<?xml version="1.0" encoding="UTF-8" standalone="yes"?>
<svg version="1.1" xmlns="http://www.w3.org/2000/svg" xmlns:xlink="http://www.w3.org/1999/xlink" x="0px" y="0px" viewBox="0 0 512 512" enable-background="new 0 0 512 512" xml:space="preserve">
  <g id="bounds" display="none"><rect display="inline" fill="none" width="512" height="512"/></g><g id="Layer_2">
    <path style=" stroke:none;fill-rule:nonzero;fill:rgb(0%,0%,0%);fill-opacity:1;" d="M 457.144531 393.144531 L 457.144531 256 L 256 256 L 256 54.855469 L 118.855469 54.855469 C 101.144531 54.855469 86.046875 61.09375 73.570312 73.570312 C 61.09375 86.046875 54.855469 101.144531 54.855469 118.855469 L 54.855469 256 L 256 256 L 256 457.144531 L 393.144531 457.144531 C 410.855469 457.144531 425.953125 450.90625 438.429688 438.429688 C 450.90625 425.953125 457.144531 410.855469 457.144531 393.144531 Z M 475.429688 118.855469 L 475.429688 393.144531 C 475.429688 415.808594 467.382812 435.191406 451.285156 451.285156 C 435.191406 467.382812 415.808594 475.429688 393.144531 475.429688 L 118.855469 475.429688 C 96.191406 475.429688 76.808594 467.382812 60.714844 451.285156 C 44.617188 435.191406 36.570312 415.808594 36.570312 393.144531 L 36.570312 118.855469 C 36.570312 96.191406 44.617188 76.808594 60.714844 60.714844 C 76.808594 44.617188 96.191406 36.570312 118.855469 36.570312 L 393.144531 36.570312 C 415.808594 36.570312 435.191406 44.617188 451.285156 60.714844 C 467.382812 76.808594 475.429688 96.191406 475.429688 118.855469 Z M 475.429688 118.855469 "/>
  </g>
</svg>