<?xml version="1.0" encoding="UTF-8" standalone="yes"?>
<svg version="1.1" xmlns="http://www.w3.org/2000/svg" xmlns:xlink="http://www.w3.org/1999/xlink" x="0px" y="0px" viewBox="0 0 512 512" enable-background="new 0 0 512 512" xml:space="preserve">
  <g id="bounds" display="none"><rect display="inline" fill="none" width="512" height="512"/></g><g id="Layer_2">
    <path style=" stroke:none;fill-rule:nonzero;fill:rgb(0%,0%,0%);fill-opacity:1;" d="M 57.144531 80.570312 L 115.429688 80.570312 L 115.429688 361.429688 L -36.570312 361.429688 L -36.570312 162.285156 L 57.144531 162.285156 Z M 57.144531 314.570312 L 57.144531 209.144531 L 22 209.144531 L 22 314.570312 Z M 138.855469 162.285156 L 138.855469 361.429688 L 197.429688 361.429688 L 197.429688 162.285156 Z M 138.855469 80.570312 L 138.855469 138.855469 L 197.429688 138.855469 L 197.429688 80.570312 Z M 220.855469 162.285156 L 373.144531 162.285156 L 373.144531 431.429688 L 220.855469 431.429688 L 220.855469 384.855469 L 314.570312 384.855469 L 314.570312 361.429688 L 220.855469 361.429688 Z M 314.570312 314.570312 L 314.570312 209.144531 L 279.429688 209.144531 L 279.429688 314.570312 Z M 396.570312 162.285156 L 548.570312 162.285156 L 548.570312 431.429688 L 396.570312 431.429688 L 396.570312 384.855469 L 490 384.855469 L 490 361.429688 L 396.570312 361.429688 Z M 490 314.570312 L 490 209.144531 L 454.855469 209.144531 L 454.855469 314.570312 Z M 490 314.570312 "/>
  </g>
</svg>