<?xml version="1.0" encoding="UTF-8" standalone="yes"?>
<svg version="1.1" xmlns="http://www.w3.org/2000/svg" xmlns:xlink="http://www.w3.org/1999/xlink" x="0px" y="0px" viewBox="0 0 512 512" enable-background="new 0 0 512 512" xml:space="preserve">
  <g id="bounds" display="none"><rect display="inline" fill="none" width="512" height="512"/></g><g id="Layer_2">
    <path style=" stroke:none;fill-rule:nonzero;fill:rgb(0%,0%,0%);fill-opacity:1;" d="M 329.144531 428.570312 C 321.144531 382.667969 307.808594 335.238281 289.144531 286.285156 L 288.570312 286.285156 L 288 286.570312 C 284.953125 287.714844 280.855469 289.285156 275.714844 291.285156 C 270.570312 293.285156 260.953125 297.953125 246.855469 305.285156 C 232.761719 312.617188 219.714844 320.429688 207.714844 328.714844 C 195.714844 337 183.238281 347.90625 170.285156 361.429688 C 157.332031 374.953125 147.523438 389.046875 140.855469 403.714844 L 136.570312 400.570312 C 171.617188 429.144531 211.429688 443.429688 256 443.429688 C 281.144531 443.429688 305.523438 438.476562 329.144531 428.570312 Z M 276.285156 255.144531 C 272.285156 245.808594 267.238281 235.238281 261.144531 223.429688 C 201.90625 241.144531 137.808594 250 68.855469 250 C 68.667969 251.332031 68.570312 253.332031 68.570312 256 C 68.570312 279.617188 72.761719 302.144531 81.144531 323.570312 C 89.523438 345 101.332031 364.191406 116.570312 381.144531 C 126.09375 364.191406 137.855469 348.332031 151.855469 333.570312 C 165.855469 318.808594 179.429688 306.953125 192.570312 298 C 205.714844 289.046875 218.144531 281.332031 229.855469 274.855469 C 241.570312 268.382812 251.046875 263.808594 258.285156 261.144531 L 268.855469 257.429688 C 269.617188 257.238281 270.855469 256.90625 272.570312 256.429688 C 274.285156 255.953125 275.523438 255.523438 276.285156 255.144531 Z M 245.714844 194.570312 C 222.855469 154 199.617188 118 176 86.570312 C 149.714844 98.953125 127.429688 116.667969 109.144531 139.714844 C 90.855469 162.761719 78.667969 188.667969 72.570312 217.429688 C 130.09375 217.429688 187.808594 209.808594 245.714844 194.570312 Z M 441.144531 285.714844 C 401.144531 274.285156 362.191406 271.523438 324.285156 277.429688 C 340.855469 322.953125 353.046875 367.617188 360.855469 411.429688 C 382 397.144531 399.617188 379.09375 413.714844 357.285156 C 427.808594 335.476562 436.953125 311.617188 441.144531 285.714844 Z M 211.144531 74 C 210.953125 74 210.761719 74.09375 210.570312 74.285156 C 210.761719 74.09375 210.953125 74 211.144531 74 Z M 379.714844 115.429688 C 344.476562 84.191406 303.238281 68.570312 256 68.570312 C 241.523438 68.570312 226.761719 70.382812 211.714844 74 C 236.667969 106.382812 260.09375 142.761719 282 183.144531 C 295.144531 178.191406 307.523438 172.429688 319.144531 165.855469 C 330.761719 159.285156 339.953125 153.429688 346.714844 148.285156 C 353.476562 143.144531 359.714844 137.714844 365.429688 132 C 371.144531 126.285156 374.714844 122.429688 376.144531 120.429688 Z M 443.429688 254 C 442.855469 209.808594 428.667969 170.761719 400.855469 136.855469 L 400.570312 137.144531 C 398.855469 139.429688 397.046875 141.761719 395.144531 144.144531 C 393.238281 146.523438 389.09375 150.761719 382.714844 156.855469 C 376.332031 162.953125 369.570312 168.714844 362.429688 174.144531 C 355.285156 179.570312 345.761719 185.761719 333.855469 192.714844 C 321.953125 199.667969 309.429688 205.808594 296.285156 211.144531 C 301.046875 221.238281 305.238281 230.285156 308.855469 238.285156 C 309.238281 239.429688 309.855469 241.09375 310.714844 243.285156 C 311.570312 245.476562 312.285156 247.046875 312.855469 248 C 319.714844 247.046875 326.808594 246.382812 334.144531 246 C 341.476562 245.617188 348.476562 245.429688 355.144531 245.429688 C 361.808594 245.429688 368.382812 245.570312 374.855469 245.855469 C 381.332031 246.144531 387.429688 246.523438 393.144531 247 C 398.855469 247.476562 404.238281 248 409.285156 248.570312 C 414.332031 249.144531 418.90625 249.761719 423 250.429688 C 427.09375 251.09375 430.570312 251.667969 433.429688 252.144531 C 436.285156 252.617188 438.667969 253.046875 440.570312 253.429688 Z M 475.429688 256 C 475.429688 295.808594 465.617188 332.523438 446 366.144531 C 426.382812 399.761719 399.761719 426.382812 366.144531 446 C 332.523438 465.617188 295.808594 475.429688 256 475.429688 C 216.191406 475.429688 179.476562 465.617188 145.855469 446 C 112.238281 426.382812 85.617188 399.761719 66 366.144531 C 46.382812 332.523438 36.570312 295.808594 36.570312 256 C 36.570312 216.191406 46.382812 179.476562 66 145.855469 C 85.617188 112.238281 112.238281 85.617188 145.855469 66 C 179.476562 46.382812 216.191406 36.570312 256 36.570312 C 295.808594 36.570312 332.523438 46.382812 366.144531 66 C 399.761719 85.617188 426.382812 112.238281 446 145.855469 C 465.617188 179.476562 475.429688 216.191406 475.429688 256 Z M 475.429688 256 "/>
  </g>
</svg>