<?xml version="1.0" encoding="UTF-8" standalone="yes"?>
<svg version="1.1" xmlns="http://www.w3.org/2000/svg" xmlns:xlink="http://www.w3.org/1999/xlink" x="0px" y="0px" viewBox="0 0 512 512" enable-background="new 0 0 512 512" xml:space="preserve">
  <g id="bounds" display="none"><rect display="inline" fill="none" width="512" height="512"/></g><g id="Layer_2">
    <path style=" stroke:none;fill-rule:nonzero;fill:rgb(0%,0%,0%);fill-opacity:1;" d="M 114.855469 202 L 256 289.144531 L 158.285156 370.570312 L 18.285156 279.429688 Z M 396.570312 360.570312 L 396.570312 391.429688 L 256.570312 475.144531 L 256.570312 475.429688 L 256.285156 475.144531 L 256 475.429688 L 256 475.144531 L 116.285156 391.429688 L 116.285156 360.570312 L 158.285156 388 L 256 306.855469 L 256 306.285156 L 256.285156 306.570312 L 256.570312 306.285156 L 256.570312 306.855469 L 354.570312 388 Z M 158.285156 33.714844 L 256 115.144531 L 114.855469 202 L 18.285156 124.855469 Z M 397.144531 202 L 493.714844 279.429688 L 354 370.570312 L 256 289.144531 Z M 354 33.714844 L 493.714844 124.855469 L 397.144531 202 L 256 115.144531 Z M 354 33.714844 "/>
  </g>
</svg>
