<?xml version="1.0" encoding="UTF-8" standalone="yes"?>
<svg version="1.1" xmlns="http://www.w3.org/2000/svg" xmlns:xlink="http://www.w3.org/1999/xlink" x="0px" y="0px" viewBox="0 0 512 512" enable-background="new 0 0 512 512" xml:space="preserve">
  <g id="bounds" display="none"><rect display="inline" fill="none" width="512" height="512"/></g><g id="Layer_2">
    <path style=" stroke:none;fill-rule:nonzero;fill:rgb(0%,0%,0%);fill-opacity:1;" d="M 451.144531 36.570312 C 457.808594 36.570312 463.523438 38.953125 468.285156 43.714844 C 473.046875 48.476562 475.429688 54.191406 475.429688 60.855469 L 475.429688 451.144531 C 475.429688 457.808594 473.046875 463.523438 468.285156 468.285156 C 463.523438 473.046875 457.808594 475.429688 451.144531 475.429688 L 339.429688 475.429688 L 339.429688 305.429688 L 396.285156 305.429688 L 404.855469 239.144531 L 339.429688 239.144531 L 339.429688 196.855469 C 339.429688 186.191406 341.667969 178.191406 346.144531 172.855469 C 350.617188 167.523438 359.332031 164.855469 372.285156 164.855469 L 407.144531 164.570312 L 407.144531 105.429688 C 395.144531 103.714844 378.191406 102.855469 356.285156 102.855469 C 330.382812 102.855469 309.667969 110.476562 294.144531 125.714844 C 278.617188 140.953125 270.855469 162.476562 270.855469 190.285156 L 270.855469 239.144531 L 213.714844 239.144531 L 213.714844 305.429688 L 270.855469 305.429688 L 270.855469 475.429688 L 60.855469 475.429688 C 54.191406 475.429688 48.476562 473.046875 43.714844 468.285156 C 38.953125 463.523438 36.570312 457.808594 36.570312 451.144531 L 36.570312 60.855469 C 36.570312 54.191406 38.953125 48.476562 43.714844 43.714844 C 48.476562 38.953125 54.191406 36.570312 60.855469 36.570312 Z M 451.144531 36.570312 "/>
  </g>
</svg>