<?xml version="1.0" encoding="UTF-8" standalone="yes"?>
<svg version="1.1" xmlns="http://www.w3.org/2000/svg" xmlns:xlink="http://www.w3.org/1999/xlink" x="0px" y="0px" viewBox="0 0 512 512" enable-background="new 0 0 512 512" xml:space="preserve">
  <g id="bounds" display="none"><rect display="inline" fill="none" width="512" height="512"/></g><g id="Layer_2">
    <path style=" stroke:none;fill-rule:nonzero;fill:rgb(0%,0%,0%);fill-opacity:1;" d="M 393.144531 36.570312 C 415.808594 36.570312 435.191406 44.617188 451.285156 60.714844 C 467.382812 76.808594 475.429688 96.191406 475.429688 118.855469 L 475.429688 393.144531 C 475.429688 415.808594 467.382812 435.191406 451.285156 451.285156 C 435.191406 467.382812 415.808594 475.429688 393.144531 475.429688 L 118.855469 475.429688 C 96.191406 475.429688 76.808594 467.382812 60.714844 451.285156 C 44.617188 435.191406 36.570312 415.808594 36.570312 393.144531 L 36.570312 118.855469 C 36.570312 96.191406 44.617188 76.808594 60.714844 60.714844 C 76.808594 44.617188 96.191406 36.570312 118.855469 36.570312 Z M 236 256 C 236 239.238281 230.09375 224.953125 218.285156 213.144531 C 206.476562 201.332031 192.191406 195.429688 175.429688 195.429688 C 158.667969 195.429688 144.382812 201.332031 132.570312 213.144531 C 120.761719 224.953125 114.855469 239.238281 114.855469 256 C 114.855469 272.761719 120.761719 287.046875 132.570312 298.855469 C 144.382812 310.667969 158.667969 316.570312 175.429688 316.570312 C 192.191406 316.570312 206.476562 310.667969 218.285156 298.855469 C 230.09375 287.046875 236 272.761719 236 256 Z M 397.144531 256 C 397.144531 239.238281 391.238281 224.953125 379.429688 213.144531 C 367.617188 201.332031 353.332031 195.429688 336.570312 195.429688 C 319.808594 195.429688 305.523438 201.332031 293.714844 213.144531 C 281.90625 224.953125 276 239.238281 276 256 C 276 272.761719 281.90625 287.046875 293.714844 298.855469 C 305.523438 310.667969 319.808594 316.570312 336.570312 316.570312 C 353.332031 316.570312 367.617188 310.667969 379.429688 298.855469 C 391.238281 287.046875 397.144531 272.761719 397.144531 256 Z M 397.144531 256 "/>
  </g>
</svg>
