<?xml version="1.0" encoding="UTF-8" standalone="yes"?>
<svg version="1.1" xmlns="http://www.w3.org/2000/svg" xmlns:xlink="http://www.w3.org/1999/xlink" x="0px" y="0px" viewBox="0 0 512 512" enable-background="new 0 0 512 512" xml:space="preserve">
  <g id="bounds" display="none"><rect display="inline" fill="none" width="512" height="512"/></g><g id="Layer_2">
    <path style=" stroke:none;fill-rule:nonzero;fill:rgb(0%,0%,0%);fill-opacity:1;" d="M 358.855469 124 L 369.429688 68.570312 C 370.382812 64.191406 369.523438 60.382812 366.855469 57.144531 C 364.191406 53.90625 360.855469 52.285156 356.855469 52.285156 L 153.429688 52.285156 C 149.046875 52.285156 145.382812 53.90625 142.429688 57.144531 C 139.476562 60.382812 138 63.90625 138 67.714844 L 138 382.285156 C 138 383.617188 138.570312 383.714844 139.714844 382.570312 L 222.855469 282 C 227.238281 277.046875 230.855469 273.855469 233.714844 272.429688 C 236.570312 271 241.144531 270.285156 247.429688 270.285156 L 315.714844 270.285156 C 319.90625 270.285156 323.429688 268.90625 326.285156 266.144531 C 329.144531 263.382812 330.855469 260.570312 331.429688 257.714844 C 336 232.953125 339.523438 214.761719 342 203.144531 C 342.761719 199.144531 341.667969 195.332031 338.714844 191.714844 C 335.761719 188.09375 332.285156 186.285156 328.285156 186.285156 L 244.285156 186.285156 C 238.761719 186.285156 234.191406 184.476562 230.570312 180.855469 C 226.953125 177.238281 225.144531 172.667969 225.144531 167.144531 L 225.144531 155.144531 C 225.144531 149.617188 226.953125 145.09375 230.570312 141.570312 C 234.191406 138.046875 238.761719 136.285156 244.285156 136.285156 L 343.144531 136.285156 C 346.570312 136.285156 349.90625 135 353.144531 132.429688 C 356.382812 129.855469 358.285156 127.046875 358.855469 124 Z M 423.714844 60.570312 C 420.855469 74.476562 415.761719 99.855469 408.429688 136.714844 C 401.09375 173.570312 394.476562 206.90625 388.570312 236.714844 C 382.667969 266.523438 379.332031 283.046875 378.570312 286.285156 C 377.429688 290.476562 376.570312 293.570312 376 295.570312 C 375.429688 297.570312 374.09375 300.667969 372 304.855469 C 369.90625 309.046875 367.570312 312.191406 365 314.285156 C 362.429688 316.382812 358.761719 318.382812 354 320.285156 C 349.238281 322.191406 343.714844 323.144531 337.429688 323.144531 L 260 323.144531 C 257.523438 323.144531 255.429688 324.09375 253.714844 326 C 252.191406 327.714844 211.617188 374.761719 132 467.144531 C 127.808594 471.90625 122.238281 474.617188 115.285156 475.285156 C 108.332031 475.953125 103.714844 475.429688 101.429688 473.714844 C 90.953125 469.523438 85.714844 460.191406 85.714844 445.714844 L 85.714844 42.855469 C 85.714844 32.382812 89.332031 22.617188 96.570312 13.570312 C 103.808594 4.523438 115.238281 0 130.855469 0 L 384.570312 0 C 402.667969 0 414.761719 5.046875 420.855469 15.144531 C 426.953125 25.238281 427.90625 40.382812 423.714844 60.570312 Z M 423.714844 60.570312 L 378.570312 286.285156 C 379.332031 283.046875 382.667969 266.523438 388.570312 236.714844 C 394.476562 206.90625 401.09375 173.570312 408.429688 136.714844 C 415.761719 99.855469 420.855469 74.476562 423.714844 60.570312 Z M 423.714844 60.570312 "/>
  </g>
</svg>