<?xml version="1.0" encoding="UTF-8" standalone="yes"?>
<svg version="1.1" xmlns="http://www.w3.org/2000/svg" xmlns:xlink="http://www.w3.org/1999/xlink" x="0px" y="0px" viewBox="0 0 512 512" enable-background="new 0 0 512 512" xml:space="preserve">
  <g id="bounds" display="none"><rect display="inline" fill="none" width="512" height="512"/></g><g id="Layer_2">
    <path style=" stroke:none;fill-rule:nonzero;fill:rgb(0%,0%,0%);fill-opacity:1;" d="M 170 432.570312 C 170 413.523438 154.285156 404 122.855469 404 C 92.761719 404 77.714844 413.90625 77.714844 433.714844 C 77.714844 452.953125 94.09375 462.570312 126.855469 462.570312 C 155.617188 462.570312 170 452.570312 170 432.570312 Z M 153.144531 216.855469 C 153.144531 205.238281 150.285156 195.523438 144.570312 187.714844 C 138.855469 179.90625 130.382812 176 119.144531 176 C 95.523438 176 83.714844 189.808594 83.714844 217.429688 C 83.714844 243.144531 95.523438 256 119.144531 256 C 141.808594 256 153.144531 242.953125 153.144531 216.855469 Z M 230 124.285156 L 230 182 C 223.144531 184.285156 215.617188 186.382812 207.429688 188.285156 C 210.476562 196.476562 212 204.476562 212 212.285156 C 212 236.476562 205.046875 257.09375 191.144531 274.144531 C 177.238281 291.191406 158.476562 301.90625 134.855469 306.285156 C 127.238281 307.808594 121.570312 310.382812 117.855469 314 C 114.144531 317.617188 112.285156 323.144531 112.285156 330.570312 C 112.285156 336.476562 114.429688 341.382812 118.714844 345.285156 C 123 349.191406 128.523438 352.238281 135.285156 354.429688 C 142.046875 356.617188 149.523438 358.714844 157.714844 360.714844 C 165.90625 362.714844 174.09375 365.144531 182.285156 368 C 190.476562 370.855469 197.953125 374.429688 204.714844 378.714844 C 211.476562 383 217 389.09375 221.285156 397 C 225.570312 404.90625 227.714844 414.285156 227.714844 425.144531 C 227.714844 483.046875 193.144531 512 124 512 C 110.855469 512 98.476562 510.808594 86.855469 508.429688 C 75.238281 506.046875 64.191406 502.144531 53.714844 496.714844 C 43.238281 491.285156 34.90625 483.476562 28.714844 473.285156 C 22.523438 463.09375 19.429688 450.953125 19.429688 436.855469 C 19.429688 405.429688 36.761719 384 71.429688 372.570312 L 71.429688 371.429688 C 58.667969 363.617188 52.285156 351.617188 52.285156 335.429688 C 52.285156 314.667969 58.285156 301.617188 70.285156 296.285156 L 70.285156 295.144531 C 56.570312 290.570312 45.191406 280.238281 36.144531 264.144531 C 27.09375 248.046875 22.570312 232.285156 22.570312 216.855469 C 22.570312 190.382812 31.617188 168.332031 49.714844 150.714844 C 67.808594 133.09375 90.191406 124.285156 116.855469 124.285156 C 135.144531 124.285156 152.09375 128.761719 167.714844 137.714844 C 186.382812 137.714844 207.144531 133.238281 230 124.285156 Z M 320.855469 376 L 257.429688 376 C 258.191406 367.429688 258.570312 354.667969 258.570312 337.714844 L 258.570312 163.714844 C 258.570312 145.808594 258.191406 133.617188 257.429688 127.144531 L 320.855469 127.144531 C 320.09375 133.429688 319.714844 145.238281 319.714844 162.570312 L 319.714844 337.714844 C 319.714844 354.667969 320.09375 367.429688 320.855469 376 Z M 492.570312 312.570312 L 492.570312 368.570312 C 479.046875 376 462.476562 379.714844 442.855469 379.714844 C 431.046875 379.714844 420.855469 377.808594 412.285156 374 C 403.714844 370.191406 397.046875 365.429688 392.285156 359.714844 C 387.523438 354 383.761719 346.570312 381 337.429688 C 378.238281 328.285156 376.476562 319.523438 375.714844 311.144531 C 374.953125 302.761719 374.570312 292.953125 374.570312 281.714844 L 374.570312 181.429688 L 375.144531 181.429688 L 375.144531 180.285156 C 373.808594 180.285156 372 180.191406 369.714844 180 C 367.429688 179.808594 365.714844 179.714844 364.570312 179.714844 C 360.570312 179.714844 354.953125 180.285156 347.714844 181.429688 L 347.714844 127.144531 L 375.144531 127.144531 L 375.144531 105.429688 C 375.144531 95.144531 374.570312 86.667969 373.429688 80 L 438.285156 80 C 437.144531 87.808594 436.570312 103.523438 436.570312 127.144531 L 485.429688 127.144531 L 485.429688 181.429688 C 482.570312 181.429688 478.429688 181.238281 473 180.855469 C 467.570312 180.476562 463.523438 180.285156 460.855469 180.285156 L 436.570312 180.285156 L 436.570312 284.570312 C 436.570312 309.523438 444.855469 322 461.429688 322 C 473.046875 322 483.429688 318.855469 492.570312 312.570312 Z M 328 42 C 328 53.046875 324.285156 62.714844 316.855469 71 C 309.429688 79.285156 300.285156 83.429688 289.429688 83.429688 C 278.382812 83.429688 269.046875 79.285156 261.429688 71 C 253.808594 62.714844 250 53.046875 250 42 C 250 30.761719 253.761719 20.953125 261.285156 12.570312 C 268.808594 4.191406 278.191406 0 289.429688 0 C 300.476562 0 309.667969 4.238281 317 12.714844 C 324.332031 21.191406 328 30.953125 328 42 Z M 328 42 "/>
  </g>
</svg>