<?xml version="1.0" encoding="UTF-8" standalone="yes"?>
<svg version="1.1" xmlns="http://www.w3.org/2000/svg" xmlns:xlink="http://www.w3.org/1999/xlink" x="0px" y="0px" viewBox="0 0 512 512" enable-background="new 0 0 512 512" xml:space="preserve">
  <g id="bounds" display="none"><rect display="inline" fill="none" width="512" height="512"/></g><g id="Layer_2">
    <path style=" stroke:none;fill-rule:nonzero;fill:rgb(0%,0%,0%);fill-opacity:1;" d="M 475.429688 256 C 475.429688 303.808594 461.476562 346.808594 433.570312 385 C 405.667969 423.191406 369.617188 449.617188 325.429688 464.285156 C 320.285156 465.238281 316.523438 464.570312 314.144531 462.285156 C 311.761719 460 310.570312 457.144531 310.570312 453.714844 L 310.570312 393.429688 C 310.570312 374.953125 305.617188 361.429688 295.714844 352.855469 C 306.570312 351.714844 316.332031 350 325 347.714844 C 333.667969 345.429688 342.617188 341.714844 351.855469 336.570312 C 361.09375 331.429688 368.808594 325.09375 375 317.570312 C 381.191406 310.046875 386.238281 300.046875 390.144531 287.570312 C 394.046875 275.09375 396 260.761719 396 244.570312 C 396 221.523438 388.476562 201.90625 373.429688 185.714844 C 380.476562 168.382812 379.714844 148.953125 371.144531 127.429688 C 365.808594 125.714844 358.09375 126.761719 348 130.570312 C 337.90625 134.382812 329.144531 138.570312 321.714844 143.144531 L 310.855469 150 C 293.144531 145.046875 274.855469 142.570312 256 142.570312 C 237.144531 142.570312 218.855469 145.046875 201.144531 150 C 198.09375 147.90625 194.046875 145.332031 189 142.285156 C 183.953125 139.238281 176 135.570312 165.144531 131.285156 C 154.285156 127 146.09375 125.714844 140.570312 127.429688 C 132.191406 148.953125 131.523438 168.382812 138.570312 185.714844 C 123.523438 201.90625 116 221.523438 116 244.570312 C 116 260.761719 117.953125 275.046875 121.855469 287.429688 C 125.761719 299.808594 130.761719 309.808594 136.855469 317.429688 C 142.953125 325.046875 150.617188 331.429688 159.855469 336.570312 C 169.09375 341.714844 178.046875 345.429688 186.714844 347.714844 C 195.382812 350 205.144531 351.714844 216 352.855469 C 208.382812 359.714844 203.714844 369.523438 202 382.285156 C 198 384.191406 193.714844 385.617188 189.144531 386.570312 C 184.570312 387.523438 179.144531 388 172.855469 388 C 166.570312 388 160.332031 385.953125 154.144531 381.855469 C 147.953125 377.761719 142.667969 371.808594 138.285156 364 C 134.667969 357.90625 130.046875 352.953125 124.429688 349.144531 C 118.808594 345.332031 114.09375 343.046875 110.285156 342.285156 L 104.570312 341.429688 C 100.570312 341.429688 97.808594 341.855469 96.285156 342.714844 C 94.761719 343.570312 94.285156 344.667969 94.855469 346 C 95.429688 347.332031 96.285156 348.667969 97.429688 350 C 98.570312 351.332031 99.808594 352.476562 101.144531 353.429688 L 103.144531 354.855469 C 107.332031 356.761719 111.476562 360.382812 115.570312 365.714844 C 119.667969 371.046875 122.667969 375.90625 124.570312 380.285156 L 127.429688 386.855469 C 129.90625 394.09375 134.09375 399.953125 140 404.429688 C 145.90625 408.90625 152.285156 411.761719 159.144531 413 C 166 414.238281 172.617188 414.90625 179 415 C 185.382812 415.09375 190.667969 414.761719 194.855469 414 L 201.429688 412.855469 C 201.429688 420.09375 201.476562 428.570312 201.570312 438.285156 C 201.667969 448 201.714844 453.144531 201.714844 453.714844 C 201.714844 457.144531 200.476562 460 198 462.285156 C 195.523438 464.570312 191.714844 465.238281 186.570312 464.285156 C 142.382812 449.617188 106.332031 423.191406 78.429688 385 C 50.523438 346.808594 36.570312 303.808594 36.570312 256 C 36.570312 216.191406 46.382812 179.476562 66 145.855469 C 85.617188 112.238281 112.238281 85.617188 145.855469 66 C 179.476562 46.382812 216.191406 36.570312 256 36.570312 C 295.808594 36.570312 332.523438 46.382812 366.144531 66 C 399.761719 85.617188 426.382812 112.238281 446 145.855469 C 465.617188 179.476562 475.429688 216.191406 475.429688 256 Z M 475.429688 256 "/>
  </g>
</svg>