<?xml version="1.0" encoding="UTF-8" standalone="yes"?>
<svg version="1.1" xmlns="http://www.w3.org/2000/svg" xmlns:xlink="http://www.w3.org/1999/xlink" x="0px" y="0px" viewBox="0 0 512 512" enable-background="new 0 0 512 512" xml:space="preserve">
  <g id="bounds" display="none"><rect display="inline" fill="none" width="512" height="512"/></g><g id="Layer_2">
    <path style=" stroke:none;fill-rule:nonzero;fill:rgb(0%,0%,0%);fill-opacity:1;" d="M 353.429688 382.570312 C 353.429688 377.808594 352.761719 373.144531 351.429688 368.570312 C 350.09375 364 348.714844 360 347.285156 356.570312 C 345.855469 353.144531 343.285156 349.191406 339.570312 344.714844 C 335.855469 340.238281 333.046875 336.90625 331.144531 334.714844 C 329.238281 332.523438 325.570312 329.238281 320.144531 324.855469 C 314.714844 320.476562 311.238281 317.714844 309.714844 316.570312 C 308.191406 315.429688 304.238281 312.570312 297.855469 308 C 291.476562 303.429688 288 300.953125 287.429688 300.570312 C 284.382812 300.191406 279.714844 300 273.429688 300 C 263.332031 300 253.382812 300.667969 243.570312 302 C 233.761719 303.332031 223.570312 305.714844 213 309.144531 C 202.429688 312.570312 193.191406 316.953125 185.285156 322.285156 C 177.382812 327.617188 170.855469 334.714844 165.714844 343.570312 C 160.570312 352.429688 158 362.476562 158 373.714844 C 158 384.382812 160.238281 394.09375 164.714844 402.855469 C 169.191406 411.617188 175 418.808594 182.144531 424.429688 C 189.285156 430.046875 197.570312 434.808594 207 438.714844 C 216.429688 442.617188 225.953125 445.382812 235.570312 447 C 245.191406 448.617188 254.855469 449.429688 264.570312 449.429688 C 275.617188 449.429688 286.238281 448.191406 296.429688 445.714844 C 306.617188 443.238281 316.046875 439.523438 324.714844 434.570312 C 333.382812 429.617188 340.332031 422.667969 345.570312 413.714844 C 350.808594 404.761719 353.429688 394.382812 353.429688 382.570312 Z M 320 137.429688 C 320 126.191406 318.382812 114.238281 315.144531 101.570312 C 311.90625 88.90625 307.332031 76.617188 301.429688 64.714844 C 295.523438 52.808594 287.523438 42.953125 277.429688 35.144531 C 267.332031 27.332031 256.191406 23.429688 244 23.429688 C 236 23.429688 228.144531 25.285156 220.429688 29 C 212.714844 32.714844 206.382812 37.714844 201.429688 44 C 192.667969 55.238281 188.285156 70.476562 188.285156 89.714844 C 188.285156 98.476562 189.238281 107.761719 191.144531 117.570312 C 193.046875 127.382812 196.046875 137.191406 200.144531 147 C 204.238281 156.808594 209.191406 165.617188 215 173.429688 C 220.808594 181.238281 227.953125 187.617188 236.429688 192.570312 C 244.90625 197.523438 254.09375 200 264 200 C 271.046875 200 278.429688 198.429688 286.144531 195.285156 C 293.855469 192.144531 300.09375 188 304.855469 182.855469 C 314.953125 172.191406 320 157.046875 320 137.429688 Z M 288 0 L 407.144531 0 L 368 25.144531 L 330.285156 25.144531 C 344.570312 37.144531 355.332031 49.808594 362.570312 63.144531 C 369.808594 76.476562 373.429688 91.714844 373.429688 108.855469 C 373.429688 122.570312 371.09375 134.90625 366.429688 145.855469 C 361.761719 156.808594 356.09375 165.667969 349.429688 172.429688 C 342.761719 179.191406 336.144531 185.382812 329.570312 191 C 323 196.617188 317.382812 202.476562 312.714844 208.570312 C 308.046875 214.667969 305.714844 220.953125 305.714844 227.429688 C 305.714844 234.285156 308.761719 241 314.855469 247.570312 C 320.953125 254.144531 328.285156 260.617188 336.855469 267 C 345.429688 273.382812 354.046875 280.382812 362.714844 288 C 371.382812 295.617188 378.761719 305.523438 384.855469 317.714844 C 390.953125 329.90625 394 343.429688 394 358.285156 C 394 375.617188 389.332031 392.09375 380 407.714844 C 366.476562 430.953125 346.523438 448.046875 320.144531 459 C 293.761719 469.953125 265.332031 475.429688 234.855469 475.429688 C 209.714844 475.429688 186.238281 471.476562 164.429688 463.570312 C 142.617188 455.667969 126.191406 442.570312 115.144531 424.285156 C 108.285156 413.046875 104.855469 400.570312 104.855469 386.855469 C 104.855469 371.429688 109.09375 357.144531 117.570312 344 C 126.046875 330.855469 137.332031 319.90625 151.429688 311.144531 C 176.382812 295.523438 214.855469 286 266.855469 282.570312 C 260.761719 274.761719 256.238281 267.761719 253.285156 261.570312 C 250.332031 255.382812 248.855469 248.382812 248.855469 240.570312 C 248.855469 232.953125 250.855469 224.855469 254.855469 216.285156 C 246.09375 217.046875 239.617188 217.429688 235.429688 217.429688 C 207.238281 217.429688 183.476562 208.238281 164.144531 189.855469 C 144.808594 171.476562 135.144531 148.191406 135.144531 120 C 135.144531 104.382812 138.570312 89.238281 145.429688 74.570312 C 152.285156 59.90625 161.714844 47.429688 173.714844 37.144531 C 188.191406 24.570312 205.523438 15.238281 225.714844 9.144531 C 245.90625 3.046875 266.667969 0 288 0 Z M 288 0 "/>
  </g>
</svg>