<?xml version="1.0" encoding="UTF-8" standalone="yes"?>
<svg version="1.1" xmlns="http://www.w3.org/2000/svg" xmlns:xlink="http://www.w3.org/1999/xlink" x="0px" y="0px" viewBox="0 0 512 512" enable-background="new 0 0 512 512" xml:space="preserve">
  <g id="bounds" display="none"><rect display="inline" fill="none" width="512" height="512"/></g><g id="Layer_2">
    <path style=" stroke:none;fill-rule:nonzero;fill:rgb(0%,0%,0%);fill-opacity:1;" d="M 172 167.714844 C 175.617188 179.332031 178.570312 191.09375 180.855469 203 C 183.144531 214.90625 184.761719 228.382812 185.714844 243.429688 C 186.667969 258.476562 185.332031 273.617188 181.714844 288.855469 C 178.09375 304.09375 172.191406 317.90625 164 330.285156 C 160 314.855469 153.617188 299.90625 144.855469 285.429688 C 136.09375 270.953125 127 258.855469 117.570312 249.144531 C 108.144531 239.429688 98.714844 230.808594 89.285156 223.285156 C 79.855469 215.761719 72.382812 210.285156 66.855469 206.855469 C 61.332031 203.429688 58.191406 201.617188 57.429688 201.429688 C 45.617188 194.953125 37.855469 185.429688 34.144531 172.855469 C 30.429688 160.285156 31.808594 148.09375 38.285156 136.285156 C 44.761719 124.476562 54.382812 116.714844 67.144531 113 C 79.90625 109.285156 92.191406 110.667969 104 117.144531 C 130.285156 132.953125 152.953125 149.808594 172 167.714844 Z M 264.855469 85.714844 C 266.953125 90.476562 268.90625 94.855469 270.714844 98.855469 C 272.523438 102.855469 276 112.429688 281.144531 127.570312 C 286.285156 142.714844 290.332031 157.046875 293.285156 170.570312 C 296.238281 184.09375 298.667969 201.191406 300.570312 221.855469 C 302.476562 242.523438 302.476562 262.09375 300.570312 280.570312 C 298.667969 299.046875 294.144531 319 287 340.429688 C 279.855469 361.855469 269.808594 381.714844 256.855469 400 C 247.144531 413.714844 234 420.570312 217.429688 420.570312 C 207.144531 420.570312 197.808594 417.617188 189.429688 411.714844 C 178.570312 404.09375 172 393.714844 169.714844 380.570312 C 167.429688 367.429688 170.09375 355.332031 177.714844 344.285156 C 189.144531 328.09375 196.855469 309.523438 200.855469 288.570312 C 204.855469 267.617188 206.09375 248.617188 204.570312 231.570312 C 203.046875 214.523438 200 197.332031 195.429688 180 C 190.855469 162.667969 187.144531 150.476562 184.285156 143.429688 C 181.429688 136.382812 179.332031 131.429688 178 128.570312 C 172.09375 116.570312 171.285156 104.238281 175.570312 91.570312 C 179.855469 78.90625 188 69.617188 200 63.714844 C 206.476562 60.476562 213.617188 58.855469 221.429688 58.855469 C 230.382812 58.855469 238.808594 61.238281 246.714844 66 C 254.617188 70.761719 260.667969 77.332031 264.855469 85.714844 Z M 356.570312 276.855469 C 353.332031 307.332031 346.476562 336.953125 336 365.714844 C 332.761719 340.761719 326.761719 317.332031 318 295.429688 C 322.761719 262.285156 322.285156 227.90625 316.570312 192.285156 C 311.429688 158.382812 302.476562 125.808594 289.714844 94.570312 C 311.429688 111.714844 331.617188 131.808594 350.285156 154.855469 C 352 161.90625 353.429688 169.523438 354.570312 177.714844 C 359.523438 211.808594 360.191406 244.855469 356.570312 276.855469 Z M 434.285156 27.429688 C 436 30.667969 438.238281 35.382812 441 41.570312 C 443.761719 47.761719 447.90625 58.953125 453.429688 75.144531 C 458.953125 91.332031 463.761719 108.285156 467.855469 126 C 471.953125 143.714844 475.191406 165.382812 477.570312 191 C 479.953125 216.617188 480.429688 242.238281 479 267.855469 C 477.570312 293.476562 473.09375 322.046875 465.570312 353.570312 C 458.046875 385.09375 447.332031 415.90625 433.429688 446 C 429.238281 455.144531 422.953125 462.332031 414.570312 467.570312 C 406.191406 472.808594 397.144531 475.429688 387.429688 475.429688 C 380 475.429688 372.953125 473.90625 366.285156 470.855469 C 353.523438 464.953125 344.714844 455.429688 339.855469 442.285156 C 335 429.144531 335.429688 416.191406 341.144531 403.429688 C 352.191406 379.429688 360.761719 354.90625 366.855469 329.855469 C 372.953125 304.808594 376.523438 282 377.570312 261.429688 C 378.617188 240.855469 378.285156 220.523438 376.570312 200.429688 C 374.855469 180.332031 372.332031 163.144531 369 148.855469 C 365.667969 134.570312 362 121.382812 358 109.285156 C 354 97.191406 350.90625 88.617188 348.714844 83.570312 C 346.523438 78.523438 345.046875 75.429688 344.285156 74.285156 C 337.808594 61.90625 336.714844 49 341 35.570312 C 345.285156 22.144531 353.617188 12.191406 366 5.714844 C 373.046875 1.90625 380.761719 0 389.144531 0 C 398.476562 0 407.191406 2.429688 415.285156 7.285156 C 423.382812 12.144531 429.714844 18.855469 434.285156 27.429688 Z M 434.285156 27.429688 "/>
  </g>
</svg>