<?xml version="1.0" encoding="UTF-8" standalone="yes"?>
<svg version="1.1" xmlns="http://www.w3.org/2000/svg" xmlns:xlink="http://www.w3.org/1999/xlink" x="0px" y="0px" viewBox="0 0 512 512" enable-background="new 0 0 512 512" xml:space="preserve">
  <g id="bounds" display="none"><rect display="inline" fill="none" width="512" height="512"/></g><g id="Layer_2">
    <path style=" stroke:none;fill-rule:nonzero;fill:rgb(0%,0%,0%);fill-opacity:1;" d="M 228.285156 227.429688 C 228.285156 234.285156 231.332031 241 237.429688 247.570312 C 243.523438 254.144531 250.90625 260.617188 259.570312 267 C 268.238281 273.382812 276.855469 280.382812 285.429688 288 C 294 295.617188 301.332031 305.523438 307.429688 317.714844 C 313.523438 329.90625 316.570312 343.429688 316.570312 358.285156 C 316.570312 375.429688 312 391.90625 302.855469 407.714844 C 289.144531 430.953125 269.046875 448.046875 242.570312 459 C 216.09375 469.953125 187.714844 475.429688 157.429688 475.429688 C 132.285156 475.429688 108.808594 471.476562 87 463.570312 C 65.191406 455.667969 48.855469 442.570312 38 424.285156 C 30.953125 412.855469 27.429688 400.382812 27.429688 386.855469 C 27.429688 371.429688 31.667969 357.144531 40.144531 344 C 48.617188 330.855469 59.90625 319.90625 74 311.144531 C 98.953125 295.523438 137.429688 286 189.429688 282.570312 C 183.332031 274.570312 178.808594 267.523438 175.855469 261.429688 C 172.90625 255.332031 171.429688 248.382812 171.429688 240.570312 C 171.429688 233.714844 173.429688 225.617188 177.429688 216.285156 C 168.667969 217.046875 162.191406 217.429688 158 217.429688 C 129.808594 217.429688 106.046875 208.238281 86.714844 189.855469 C 67.382812 171.476562 57.714844 148.191406 57.714844 120 C 57.714844 104.382812 61.144531 89.238281 68 74.570312 C 74.855469 59.90625 84.285156 47.429688 96.285156 37.144531 C 110.953125 24.570312 128.332031 15.238281 148.429688 9.144531 C 168.523438 3.046875 189.238281 0 210.570312 0 L 330 0 L 290.570312 25.144531 L 253.144531 25.144531 C 267.238281 37.144531 277.90625 49.808594 285.144531 63.144531 C 292.382812 76.476562 296 91.714844 296 108.855469 C 296 122.570312 293.667969 134.90625 289 145.855469 C 284.332031 156.808594 278.714844 165.667969 272.144531 172.429688 C 265.570312 179.191406 258.953125 185.382812 252.285156 191 C 245.617188 196.617188 239.953125 202.476562 235.285156 208.570312 C 230.617188 214.667969 228.285156 220.953125 228.285156 227.429688 Z M 186.570312 200 C 193.808594 200 201.238281 198.429688 208.855469 195.285156 C 216.476562 192.144531 222.761719 188 227.714844 182.855469 C 237.808594 172 242.855469 156.855469 242.855469 137.429688 C 242.855469 126.382812 241.238281 114.476562 238 101.714844 C 234.761719 88.953125 230.144531 76.617188 224.144531 64.714844 C 218.144531 52.808594 210.09375 42.953125 200 35.144531 C 189.90625 27.332031 178.761719 23.429688 166.570312 23.429688 C 158.570312 23.429688 150.714844 25.285156 143 29 C 135.285156 32.714844 129.046875 37.714844 124.285156 44 C 115.332031 55.238281 110.855469 70.476562 110.855469 89.714844 C 110.855469 98.476562 111.808594 107.761719 113.714844 117.570312 C 115.617188 127.382812 118.617188 137.191406 122.714844 147 C 126.808594 156.808594 131.761719 165.617188 137.570312 173.429688 C 143.382812 181.238281 150.523438 187.617188 159 192.570312 C 167.476562 197.523438 176.667969 200 186.570312 200 Z M 187.144531 449.429688 C 198.191406 449.429688 208.808594 448.191406 219 445.714844 C 229.191406 443.238281 238.617188 439.523438 247.285156 434.570312 C 255.953125 429.617188 262.90625 422.667969 268.144531 413.714844 C 273.382812 404.761719 276 394.382812 276 382.570312 C 276 377.808594 275.332031 373.144531 274 368.570312 C 272.667969 364 271.285156 360 269.855469 356.570312 C 268.429688 353.144531 265.855469 349.191406 262.144531 344.714844 C 258.429688 340.238281 255.617188 336.90625 253.714844 334.714844 C 251.808594 332.523438 248.144531 329.238281 242.714844 324.855469 C 237.285156 320.476562 233.808594 317.714844 232.285156 316.570312 C 230.761719 315.429688 226.808594 312.570312 220.429688 308 C 214.046875 303.429688 210.570312 300.953125 210 300.570312 C 206.953125 300.191406 202.382812 300 196.285156 300 C 186.191406 300 176.191406 300.667969 166.285156 302 C 156.382812 303.332031 146.144531 305.714844 135.570312 309.144531 C 125 312.570312 115.761719 316.953125 107.855469 322.285156 C 99.953125 327.617188 93.429688 334.714844 88.285156 343.570312 C 83.144531 352.429688 80.570312 362.476562 80.570312 373.714844 C 80.570312 387.046875 83.90625 398.808594 90.570312 409 C 97.238281 419.191406 105.953125 427.09375 116.714844 432.714844 C 127.476562 438.332031 138.808594 442.523438 150.714844 445.285156 C 162.617188 448.046875 174.761719 449.429688 187.144531 449.429688 Z M 418.570312 199.144531 L 479.429688 199.144531 L 479.429688 230 L 418.570312 230 L 418.570312 292.570312 L 388.570312 292.570312 L 388.570312 230 L 328 230 L 328 199.144531 L 388.570312 199.144531 L 388.570312 137.144531 L 418.570312 137.144531 Z M 418.570312 199.144531 "/>
  </g>
</svg>