<?xml version="1.0" encoding="UTF-8" standalone="yes"?>
<svg version="1.1" xmlns="http://www.w3.org/2000/svg" xmlns:xlink="http://www.w3.org/1999/xlink" x="0px" y="0px" viewBox="0 0 512 512" enable-background="new 0 0 512 512" xml:space="preserve">
  <g id="bounds" display="none"><rect display="inline" fill="none" width="512" height="512"/></g><g id="Layer_2">
    <path style=" stroke:none;fill-rule:nonzero;fill:rgb(0%,0%,0%);fill-opacity:1;" d="M 272.285156 282.570312 L 370.285156 114.570312 L 327.429688 114.570312 C 323.429688 122 317.382812 133.285156 309.285156 148.429688 C 301.191406 163.570312 294.714844 175.808594 289.855469 185.144531 C 285 194.476562 279.332031 205.761719 272.855469 219 C 266.382812 232.238281 260.667969 244.476562 255.714844 255.714844 L 254.855469 255.714844 C 250.855469 246.570312 246.617188 237.332031 242.144531 228 C 237.667969 218.667969 232.714844 208.617188 227.285156 197.855469 C 221.855469 187.09375 217.429688 178.332031 214 171.570312 C 210.570312 164.808594 205.429688 154.855469 198.570312 141.714844 C 191.714844 128.570312 187.046875 119.523438 184.570312 114.570312 L 141.714844 114.570312 L 234 282.855469 L 234 407.144531 L 272.285156 407.144531 Z M 475.429688 118.855469 L 475.429688 393.144531 C 475.429688 415.808594 467.382812 435.191406 451.285156 451.285156 C 435.191406 467.382812 415.808594 475.429688 393.144531 475.429688 L 118.855469 475.429688 C 96.191406 475.429688 76.808594 467.382812 60.714844 451.285156 C 44.617188 435.191406 36.570312 415.808594 36.570312 393.144531 L 36.570312 118.855469 C 36.570312 96.191406 44.617188 76.808594 60.714844 60.714844 C 76.808594 44.617188 96.191406 36.570312 118.855469 36.570312 L 393.144531 36.570312 C 415.808594 36.570312 435.191406 44.617188 451.285156 60.714844 C 467.382812 76.808594 475.429688 96.191406 475.429688 118.855469 Z M 475.429688 118.855469 "/>
  </g>
</svg>