<?xml version="1.0" encoding="UTF-8" standalone="yes"?>
<svg version="1.1" xmlns="http://www.w3.org/2000/svg" xmlns:xlink="http://www.w3.org/1999/xlink" x="0px" y="0px" viewBox="0 0 512 512" enable-background="new 0 0 512 512" xml:space="preserve">
  <g id="bounds" display="none"><rect display="inline" fill="none" width="512" height="512"/></g><g id="Layer_2">
    <path style=" stroke:none;fill-rule:nonzero;fill:rgb(0%,0%,0%);fill-opacity:1;" d="M 425.714844 407.429688 L 425.714844 222.285156 L 387.144531 222.285156 C 390.953125 234.285156 392.855469 246.761719 392.855469 259.714844 C 392.855469 283.714844 386.761719 305.855469 374.570312 326.144531 C 362.382812 346.429688 345.808594 362.476562 324.855469 374.285156 C 303.90625 386.09375 281.046875 392 256.285156 392 C 218.761719 392 186.667969 379.09375 160 353.285156 C 133.332031 327.476562 120 296.285156 120 259.714844 C 120 246.761719 121.90625 234.285156 125.714844 222.285156 L 85.429688 222.285156 L 85.429688 407.429688 C 85.429688 412.382812 87.09375 416.523438 90.429688 419.855469 C 93.761719 423.191406 97.90625 424.855469 102.855469 424.855469 L 408.285156 424.855469 C 413.046875 424.855469 417.144531 423.191406 420.570312 419.855469 C 424 416.523438 425.714844 412.382812 425.714844 407.429688 Z M 344.570312 255.144531 C 344.570312 231.523438 335.953125 211.382812 318.714844 194.714844 C 301.476562 178.046875 280.667969 169.714844 256.285156 169.714844 C 232.09375 169.714844 211.382812 178.046875 194.144531 194.714844 C 176.90625 211.382812 168.285156 231.523438 168.285156 255.144531 C 168.285156 278.761719 176.90625 298.90625 194.144531 315.570312 C 211.382812 332.238281 232.09375 340.570312 256.285156 340.570312 C 280.667969 340.570312 301.476562 332.238281 318.714844 315.570312 C 335.953125 298.90625 344.570312 278.761719 344.570312 255.144531 Z M 425.714844 152.285156 L 425.714844 105.144531 C 425.714844 99.808594 423.808594 95.191406 420 91.285156 C 416.191406 87.382812 411.523438 85.429688 406 85.429688 L 356.285156 85.429688 C 350.761719 85.429688 346.09375 87.382812 342.285156 91.285156 C 338.476562 95.191406 336.570312 99.808594 336.570312 105.144531 L 336.570312 152.285156 C 336.570312 157.808594 338.476562 162.476562 342.285156 166.285156 C 346.09375 170.09375 350.761719 172 356.285156 172 L 406 172 C 411.523438 172 416.191406 170.09375 420 166.285156 C 423.808594 162.476562 425.714844 157.808594 425.714844 152.285156 Z M 475.429688 92.855469 L 475.429688 419.144531 C 475.429688 434.570312 469.90625 447.808594 458.855469 458.855469 C 447.808594 469.90625 434.570312 475.429688 419.144531 475.429688 L 92.855469 475.429688 C 77.429688 475.429688 64.191406 469.90625 53.144531 458.855469 C 42.09375 447.808594 36.570312 434.570312 36.570312 419.144531 L 36.570312 92.855469 C 36.570312 77.429688 42.09375 64.191406 53.144531 53.144531 C 64.191406 42.09375 77.429688 36.570312 92.855469 36.570312 L 419.144531 36.570312 C 434.570312 36.570312 447.808594 42.09375 458.855469 53.144531 C 469.90625 64.191406 475.429688 77.429688 475.429688 92.855469 Z M 475.429688 92.855469 "/>
  </g>
</svg>