<?xml version="1.0" encoding="UTF-8" standalone="yes"?>
<svg version="1.1" xmlns="http://www.w3.org/2000/svg" xmlns:xlink="http://www.w3.org/1999/xlink" x="0px" y="0px" viewBox="0 0 512 512" enable-background="new 0 0 512 512" xml:space="preserve">
  <g id="bounds" display="none"><rect display="inline" fill="none" width="512" height="512"/></g><g id="Layer_2">
    <path style=" stroke:none;fill-rule:nonzero;fill:rgb(0%,0%,0%);fill-opacity:1;" d="M 477.714844 220.570312 C 498.855469 229.332031 515.953125 243.191406 529 262.144531 C 542.046875 281.09375 548.570312 302.191406 548.570312 325.429688 C 548.570312 356.667969 537.332031 383.382812 514.855469 405.570312 C 492.382812 427.761719 465.238281 438.855469 433.429688 438.855469 C 432.667969 438.855469 431.570312 438.808594 430.144531 438.714844 C 428.714844 438.617188 427.714844 438.570312 427.144531 438.570312 L 79.429688 438.570312 C 47.046875 436.667969 19.617188 424.714844 -2.855469 402.714844 C -25.332031 380.714844 -36.570312 354 -36.570312 322.570312 C -36.570312 301.617188 -31.332031 282.285156 -20.855469 264.570312 C -10.382812 246.855469 3.617188 232.855469 21.144531 222.570312 C 18.855469 215.144531 17.714844 207.332031 17.714844 199.144531 C 17.714844 177.238281 25.523438 158.570312 41.144531 143.144531 C 56.761719 127.714844 75.714844 120 98 120 C 116.09375 120 132.476562 125.523438 147.144531 136.570312 C 161.429688 107.238281 182.617188 83.617188 210.714844 65.714844 C 238.808594 47.808594 269.90625 38.855469 304 38.855469 C 335.617188 38.855469 364.761719 46.523438 391.429688 61.855469 C 418.09375 77.191406 439.191406 98 454.714844 124.285156 C 470.238281 150.570312 478 179.238281 478 210.285156 C 478 211.429688 477.953125 213.144531 477.855469 215.429688 C 477.761719 217.714844 477.714844 219.429688 477.714844 220.570312 Z M 97.144531 296.570312 C 97.144531 319.808594 105.144531 338.191406 121.144531 351.714844 C 137.144531 365.238281 156.953125 372 180.570312 372 C 206.667969 372 229.523438 362.570312 249.144531 343.714844 C 246.09375 339.90625 241.570312 334.523438 235.570312 327.570312 C 229.570312 320.617188 225.429688 315.808594 223.144531 313.144531 C 210.382812 325.523438 196.667969 331.714844 182 331.714844 C 171.523438 331.714844 162.617188 328.523438 155.285156 322.144531 C 147.953125 315.761719 144.285156 307.429688 144.285156 297.144531 C 144.285156 287.046875 147.953125 278.761719 155.285156 272.285156 C 162.617188 265.808594 171.332031 262.570312 181.429688 262.570312 C 189.808594 262.570312 197.855469 264.570312 205.570312 268.570312 C 213.285156 272.570312 220.238281 277.808594 226.429688 284.285156 C 232.617188 290.761719 238.808594 297.90625 245 305.714844 C 251.191406 313.523438 257.761719 321.332031 264.714844 329.144531 C 271.667969 336.953125 279 344.09375 286.714844 350.570312 C 294.429688 357.046875 303.667969 362.285156 314.429688 366.285156 C 325.191406 370.285156 336.761719 372.285156 349.144531 372.285156 C 372.191406 372.285156 391.667969 365.476562 407.570312 351.855469 C 423.476562 338.238281 431.429688 320.09375 431.429688 297.429688 C 431.429688 274.382812 423.429688 256.09375 407.429688 242.570312 C 391.429688 229.046875 371.714844 222.285156 348.285156 222.285156 C 321.046875 222.285156 298.09375 231.523438 279.429688 250 C 282.09375 253.046875 284.90625 256.285156 287.855469 259.714844 C 290.808594 263.144531 294.09375 266.953125 297.714844 271.144531 C 301.332031 275.332031 304.09375 278.570312 306 280.855469 C 318.570312 268.667969 332.09375 262.570312 346.570312 262.570312 C 356.476562 262.570312 365.238281 265.714844 372.855469 272 C 380.476562 278.285156 384.285156 286.285156 384.285156 296 C 384.285156 306.855469 380.761719 315.570312 373.714844 322.144531 C 366.667969 328.714844 357.714844 332 346.855469 332 C 338.667969 332 330.808594 330 323.285156 326 C 315.761719 322 308.90625 316.761719 302.714844 310.285156 C 296.523438 303.808594 290.285156 296.667969 284 288.855469 C 277.714844 281.046875 271.09375 273.238281 264.144531 265.429688 C 257.191406 257.617188 249.808594 250.476562 242 244 C 234.191406 237.523438 225 232.285156 214.429688 228.285156 C 203.855469 224.285156 192.570312 222.285156 180.570312 222.285156 C 157.332031 222.285156 137.617188 229 121.429688 242.429688 C 105.238281 255.855469 97.144531 273.90625 97.144531 296.570312 Z M 97.144531 296.570312 "/>
  </g>
</svg>