<?xml version="1.0" encoding="UTF-8" standalone="yes"?>
<svg version="1.1" xmlns="http://www.w3.org/2000/svg" xmlns:xlink="http://www.w3.org/1999/xlink" x="0px" y="0px" viewBox="0 0 512 512" enable-background="new 0 0 512 512" xml:space="preserve">
  <g id="bounds" display="none"><rect display="inline" fill="none" width="512" height="512"/></g><g id="Layer_2">
    <path style=" stroke:none;fill-rule:nonzero;fill:rgb(0%,0%,0%);fill-opacity:1;" d="M 136.285156 178.570312 L 136.285156 461.714844 L 42 461.714844 L 42 178.570312 Z M 142.285156 91.144531 C 142.476562 105.046875 137.667969 116.667969 127.855469 126 C 118.046875 135.332031 105.144531 140 89.144531 140 L 88.570312 140 C 72.953125 140 60.382812 135.332031 50.855469 126 C 41.332031 116.667969 36.570312 105.046875 36.570312 91.144531 C 36.570312 77.046875 41.476562 65.382812 51.285156 56.144531 C 61.09375 46.90625 73.90625 42.285156 89.714844 42.285156 C 105.523438 42.285156 118.191406 46.90625 127.714844 56.144531 C 137.238281 65.382812 142.09375 77.046875 142.285156 91.144531 Z M 475.429688 299.429688 L 475.429688 461.714844 L 381.429688 461.714844 L 381.429688 310.285156 C 381.429688 290.285156 377.570312 274.617188 369.855469 263.285156 C 362.144531 251.953125 350.09375 246.285156 333.714844 246.285156 C 321.714844 246.285156 311.667969 249.570312 303.570312 256.144531 C 295.476562 262.714844 289.429688 270.855469 285.429688 280.570312 C 283.332031 286.285156 282.285156 294 282.285156 303.714844 L 282.285156 461.714844 L 188.285156 461.714844 C 188.667969 385.714844 188.855469 324.09375 188.855469 276.855469 C 188.855469 229.617188 188.761719 201.429688 188.570312 192.285156 L 188.285156 178.570312 L 282.285156 178.570312 L 282.285156 219.714844 L 281.714844 219.714844 C 285.523438 213.617188 289.429688 208.285156 293.429688 203.714844 C 297.429688 199.144531 302.808594 194.191406 309.570312 188.855469 C 316.332031 183.523438 324.617188 179.382812 334.429688 176.429688 C 344.238281 173.476562 355.144531 172 367.144531 172 C 399.714844 172 425.90625 182.808594 445.714844 204.429688 C 465.523438 226.046875 475.429688 257.714844 475.429688 299.429688 Z M 475.429688 299.429688 "/>
  </g>
</svg>