<?xml version="1.0" encoding="UTF-8" standalone="yes"?>
<svg version="1.1" xmlns="http://www.w3.org/2000/svg" xmlns:xlink="http://www.w3.org/1999/xlink" x="0px" y="0px" viewBox="0 0 512 512" enable-background="new 0 0 512 512" xml:space="preserve">
  <g id="bounds" display="none"><rect display="inline" fill="none" width="512" height="512"/></g><g id="Layer_2">
    <path style=" stroke:none;fill-rule:nonzero;fill:rgb(0%,0%,0%);fill-opacity:1;" d="M 512 380.570312 L 512 440.285156 L 328.570312 440.285156 L 328.570312 380.570312 L 366.855469 380.570312 L 366.855469 116 L 365.144531 116 L 275.429688 440.285156 L 206 440.285156 L 117.429688 116 L 115.144531 116 L 115.144531 380.570312 L 153.714844 380.570312 L 153.714844 440.285156 L 0 440.285156 L 0 380.570312 L 19.714844 380.570312 C 23.714844 380.570312 27.808594 378.714844 32 375 C 36.191406 371.285156 38.285156 367.714844 38.285156 364.285156 L 38.285156 112.570312 C 38.285156 109.144531 36.191406 105.332031 32 101.144531 C 27.808594 96.953125 23.714844 94.855469 19.714844 94.855469 L 0 94.855469 L 0 35.144531 L 192 35.144531 L 255.144531 269.714844 L 256.855469 269.714844 L 320.570312 35.144531 L 512 35.144531 L 512 94.855469 L 491.714844 94.855469 C 488.09375 94.855469 484.191406 96.953125 480 101.144531 C 475.808594 105.332031 473.714844 109.144531 473.714844 112.570312 L 473.714844 364.285156 C 473.714844 367.714844 475.761719 371.285156 479.855469 375 C 483.953125 378.714844 487.90625 380.570312 491.714844 380.570312 Z M 512 380.570312 "/>
  </g>
</svg>