<?xml version="1.0" encoding="UTF-8" standalone="yes"?>
<svg version="1.1" xmlns="http://www.w3.org/2000/svg" xmlns:xlink="http://www.w3.org/1999/xlink" x="0px" y="0px" viewBox="0 0 512 512" enable-background="new 0 0 512 512" xml:space="preserve">
  <g id="bounds" display="none"><rect display="inline" fill="none" width="512" height="512"/></g><g id="Layer_2">
    <path style=" stroke:none;fill-rule:nonzero;fill:rgb(0%,0%,0%);fill-opacity:1;" d="M 317.714844 127.429688 C 317.714844 97.144531 295.144531 82 250 82 L 230 82 C 223.90625 82 218.238281 84.046875 213 88.144531 C 207.761719 92.238281 204.476562 97.238281 203.144531 103.144531 L 185.144531 182 C 184.761719 182.953125 184.570312 184.476562 184.570312 186.570312 C 184.570312 191.144531 186.191406 194.90625 189.429688 197.855469 C 192.667969 200.808594 196.570312 202.285156 201.144531 202.285156 L 216.285156 202.285156 C 229.429688 202.285156 241.667969 201.046875 253 198.570312 C 264.332031 196.09375 275.046875 192.191406 285.144531 186.855469 C 295.238281 181.523438 303.191406 173.761719 309 163.570312 C 314.808594 153.382812 317.714844 141.332031 317.714844 127.429688 Z M 490.285156 170.855469 C 490.285156 221.332031 469.332031 262.09375 427.429688 293.144531 C 385.714844 323.808594 327.429688 339.144531 252.570312 339.144531 L 235.144531 339.144531 C 229.046875 339.144531 223.429688 341.191406 218.285156 345.285156 C 213.144531 349.382812 209.90625 354.382812 208.570312 360.285156 L 187.714844 450.570312 C 186.191406 457.429688 182.332031 463.285156 176.144531 468.144531 C 169.953125 473 163.332031 475.429688 156.285156 475.429688 L 95.429688 475.429688 C 89.523438 475.429688 84.476562 473.523438 80.285156 469.714844 C 76.09375 465.90625 74 461.046875 74 455.144531 C 74 453.238281 75.238281 447.046875 77.714844 436.570312 L 120.855469 436.570312 C 127.332031 436.570312 133.429688 434.332031 139.144531 429.855469 C 144.855469 425.382812 148.476562 420 150 413.714844 L 170.855469 323.429688 C 172.382812 317.144531 175.953125 311.714844 181.570312 307.144531 C 187.191406 302.570312 193.238281 300.285156 199.714844 300.285156 L 217.144531 300.285156 C 291.429688 300.285156 349.238281 285.046875 390.570312 254.570312 C 431.90625 224.09375 452.570312 184 452.570312 134.285156 C 452.570312 109.714844 447.714844 90 438 75.144531 C 472.855469 92.667969 490.285156 124.570312 490.285156 170.855469 Z M 438 118 C 438 168.285156 416.953125 209.046875 374.855469 240.285156 C 333.332031 270.953125 275.046875 286.285156 200 286.285156 L 182.855469 286.285156 C 176.761719 286.285156 171.09375 288.382812 165.855469 292.570312 C 160.617188 296.761719 157.332031 301.808594 156 307.714844 L 135.144531 397.714844 C 133.617188 404.570312 129.808594 410.429688 123.714844 415.285156 C 117.617188 420.144531 111.046875 422.570312 104 422.570312 L 42.855469 422.570312 C 36.953125 422.570312 31.953125 420.714844 27.855469 417 C 23.761719 413.285156 21.714844 408.382812 21.714844 402.285156 C 21.714844 400.761719 21.90625 398.855469 22.285156 396.570312 L 108 24.855469 C 109.523438 18 113.382812 12.144531 119.570312 7.285156 C 125.761719 2.429688 132.382812 0 139.429688 0 L 266.285156 0 C 279.238281 0 291.144531 0.382812 302 1.144531 C 312.855469 1.90625 324.332031 3.332031 336.429688 5.429688 C 348.523438 7.523438 359.332031 10.382812 368.855469 14 C 378.382812 17.617188 387.570312 22.429688 396.429688 28.429688 C 405.285156 34.429688 412.667969 41.476562 418.570312 49.570312 C 424.476562 57.667969 429.191406 67.523438 432.714844 79.144531 C 436.238281 90.761719 438 103.714844 438 118 Z M 438 118 "/>
  </g>
</svg>