<?xml version="1.0" encoding="UTF-8" standalone="yes"?>
<svg version="1.1" xmlns="http://www.w3.org/2000/svg" xmlns:xlink="http://www.w3.org/1999/xlink" x="0px" y="0px" viewBox="0 0 512 512" enable-background="new 0 0 512 512" xml:space="preserve">
  <g id="bounds" display="none"><rect display="inline" fill="none" width="512" height="512"/></g><g id="Layer_2">
    <path style=" stroke:none;fill-rule:nonzero;fill:rgb(0%,0%,0%);fill-opacity:1;" d="M 73.144531 170.570312 C 73.144531 150 76.714844 130.617188 83.855469 112.429688 C 91 94.238281 100.855469 78.382812 113.429688 64.855469 C 126 51.332031 140.476562 39.617188 156.855469 29.714844 C 173.238281 19.808594 190.855469 12.382812 209.714844 7.429688 C 228.570312 2.476562 247.808594 0 267.429688 0 C 297.523438 0 325.523438 6.332031 351.429688 19 C 377.332031 31.667969 398.382812 50.09375 414.570312 74.285156 C 430.761719 98.476562 438.855469 125.808594 438.855469 156.285156 C 438.855469 174.570312 437.046875 192.476562 433.429688 210 C 429.808594 227.523438 424.09375 244.382812 416.285156 260.570312 C 408.476562 276.761719 398.953125 291 387.714844 303.285156 C 376.476562 315.570312 362.667969 325.382812 346.285156 332.714844 C 329.90625 340.046875 311.90625 343.714844 292.285156 343.714844 C 279.332031 343.714844 266.476562 340.667969 253.714844 334.570312 C 240.953125 328.476562 231.808594 320.09375 226.285156 309.429688 C 224.382812 316.855469 221.714844 327.570312 218.285156 341.570312 C 214.855469 355.570312 212.617188 364.617188 211.570312 368.714844 C 210.523438 372.808594 208.570312 379.570312 205.714844 389 C 202.855469 398.429688 200.382812 405.191406 198.285156 409.285156 C 196.191406 413.382812 193.144531 419.332031 189.144531 427.144531 C 185.144531 434.953125 180.761719 442.332031 176 449.285156 C 171.238281 456.238281 165.332031 464.476562 158.285156 474 L 154.285156 475.429688 L 151.714844 472.570312 C 148.855469 442.667969 147.429688 424.761719 147.429688 418.855469 C 147.429688 401.332031 149.476562 381.667969 153.570312 359.855469 C 157.667969 338.046875 164 310.667969 172.570312 277.714844 C 181.144531 244.761719 186.09375 225.429688 187.429688 219.714844 C 181.332031 207.332031 178.285156 191.238281 178.285156 171.429688 C 178.285156 155.617188 183.238281 140.761719 193.144531 126.855469 C 203.046875 112.953125 215.617188 106 230.855469 106 C 242.476562 106 251.523438 109.855469 258 117.570312 C 264.476562 125.285156 267.714844 135.046875 267.714844 146.855469 C 267.714844 159.429688 263.523438 177.617188 255.144531 201.429688 C 246.761719 225.238281 242.570312 243.046875 242.570312 254.855469 C 242.570312 266.855469 246.855469 276.808594 255.429688 284.714844 C 264 292.617188 274.382812 296.570312 286.570312 296.570312 C 297.046875 296.570312 306.761719 294.191406 315.714844 289.429688 C 324.667969 284.667969 332.144531 278.191406 338.144531 270 C 344.144531 261.808594 349.476562 252.761719 354.144531 242.855469 C 358.808594 232.953125 362.429688 222.429688 365 211.285156 C 367.570312 200.144531 369.476562 189.570312 370.714844 179.570312 C 371.953125 169.570312 372.570312 160.09375 372.570312 151.144531 C 372.570312 118.191406 362.144531 92.523438 341.285156 74.144531 C 320.429688 55.761719 293.238281 46.570312 259.714844 46.570312 C 221.617188 46.570312 189.808594 58.90625 164.285156 83.570312 C 138.761719 108.238281 126 139.523438 126 177.429688 C 126 185.808594 127.191406 193.90625 129.570312 201.714844 C 131.953125 209.523438 134.523438 215.714844 137.285156 220.285156 C 140.046875 224.855469 142.617188 229.191406 145 233.285156 C 147.382812 237.382812 148.570312 240.285156 148.570312 242 C 148.570312 247.332031 147.144531 254.285156 144.285156 262.855469 C 141.429688 271.429688 137.90625 275.714844 133.714844 275.714844 C 133.332031 275.714844 131.714844 275.429688 128.855469 274.855469 C 119.144531 272 110.523438 266.667969 103 258.855469 C 95.476562 251.046875 89.667969 242.046875 85.570312 231.855469 C 81.476562 221.667969 78.382812 211.382812 76.285156 201 C 74.191406 190.617188 73.144531 180.476562 73.144531 170.570312 Z M 73.144531 170.570312 "/>
  </g>
</svg>