<?xml version="1.0" encoding="UTF-8" standalone="yes"?>
<svg version="1.1" xmlns="http://www.w3.org/2000/svg" xmlns:xlink="http://www.w3.org/1999/xlink" x="0px" y="0px" viewBox="0 0 512 512" enable-background="new 0 0 512 512" xml:space="preserve">
  <g id="bounds" display="none"><rect display="inline" fill="none" width="512" height="512"/></g><g id="Layer_2">
    <path style=" stroke:none;fill-rule:nonzero;fill:rgb(0%,0%,0%);fill-opacity:1;" d="M 358 408.285156 C 358 410.953125 356.855469 413.714844 354.570312 416.570312 C 344.667969 427.808594 330.617188 435.714844 312.429688 440.285156 C 294.238281 444.855469 275.523438 447.144531 256.285156 447.144531 C 208.285156 447.144531 175.332031 436.953125 157.429688 416.570312 C 155.144531 413.714844 154 410.953125 154 408.285156 C 154 405.046875 155.144531 402.238281 157.429688 399.855469 C 159.714844 397.476562 162.476562 396.285156 165.714844 396.285156 C 168.570312 396.285156 171.429688 397.429688 174.285156 399.714844 C 185.332031 409.046875 197.285156 415.332031 210.144531 418.570312 C 223 421.808594 238.191406 423.429688 255.714844 423.429688 C 273.238281 423.429688 288.476562 421.808594 301.429688 418.570312 C 314.382812 415.332031 326.476562 409.046875 337.714844 399.714844 C 340.570312 397.429688 343.429688 396.285156 346.285156 396.285156 C 349.523438 396.285156 352.285156 397.476562 354.570312 399.855469 C 356.855469 402.238281 358 405.046875 358 408.285156 Z M 206.285156 296.570312 C 206.285156 308.191406 202.191406 318.09375 194 326.285156 C 185.808594 334.476562 175.90625 338.570312 164.285156 338.570312 C 152.855469 338.570312 142.90625 334.429688 134.429688 326.144531 C 125.953125 317.855469 121.714844 308 121.714844 296.570312 C 121.714844 284.953125 125.90625 274.953125 134.285156 266.570312 C 142.667969 258.191406 152.667969 254 164.285156 254 C 175.90625 254 185.808594 258.191406 194 266.570312 C 202.191406 274.953125 206.285156 284.953125 206.285156 296.570312 Z M 390.285156 296.570312 C 390.285156 308.191406 386.191406 318.09375 378 326.285156 C 369.808594 334.476562 359.90625 338.570312 348.285156 338.570312 C 336.855469 338.570312 326.90625 334.429688 318.429688 326.144531 C 309.953125 317.855469 305.714844 308 305.714844 296.570312 C 305.714844 284.953125 309.90625 274.953125 318.285156 266.570312 C 326.667969 258.191406 336.667969 254 348.285156 254 C 359.90625 254 369.808594 258.191406 378 266.570312 C 386.191406 274.953125 390.285156 284.953125 390.285156 296.570312 Z M 45.429688 212.285156 C 38 207.144531 29.617188 204.570312 20.285156 204.570312 C 7.714844 204.570312 -3.046875 209.046875 -12 218 C -20.953125 226.953125 -25.429688 237.714844 -25.429688 250.285156 C -25.429688 264 -20.285156 275.523438 -10 284.855469 C 0.09375 258 18.570312 233.808594 45.429688 212.285156 Z M 504 329.714844 C 504 287.429688 480.285156 250.570312 432.855469 219.144531 C 408.476562 202.953125 380.714844 190.90625 349.570312 183 C 318.429688 175.09375 286.855469 171.144531 254.855469 171.144531 C 222.855469 171.144531 191.285156 175.09375 160.144531 183 C 129 190.90625 101.144531 202.953125 76.570312 219.144531 C 29.144531 250.570312 5.429688 287.429688 5.429688 329.714844 C 5.429688 372 29.144531 408.855469 76.570312 440.285156 C 101.144531 456.476562 129 468.523438 160.144531 476.429688 C 191.285156 484.332031 222.855469 488.285156 254.855469 488.285156 C 286.855469 488.285156 318.429688 484.332031 349.570312 476.429688 C 380.714844 468.523438 408.476562 456.476562 432.855469 440.285156 C 480.285156 408.855469 504 372 504 329.714844 Z M 537.429688 250.285156 C 537.429688 237.714844 532.953125 226.953125 524 218 C 515.046875 209.046875 504.285156 204.570312 491.714844 204.570312 C 482.191406 204.570312 473.332031 207.429688 465.144531 213.144531 C 491.808594 234.855469 510.09375 259.238281 520 286.285156 C 531.617188 277.144531 537.429688 265.144531 537.429688 250.285156 Z M 496.285156 57.429688 C 496.285156 48.09375 493 40.144531 486.429688 33.570312 C 479.855469 27 472 23.714844 462.855469 23.714844 C 453.523438 23.714844 445.570312 27 439 33.570312 C 432.429688 40.144531 429.144531 48.09375 429.144531 57.429688 C 429.144531 66.570312 432.429688 74.429688 439 81 C 445.570312 87.570312 453.523438 90.855469 462.855469 90.855469 C 472 90.855469 479.855469 87.570312 486.429688 81 C 493 74.429688 496.285156 66.570312 496.285156 57.429688 Z M 561.144531 250.285156 C 561.144531 262.667969 558 274.285156 551.714844 285.144531 C 545.429688 296 536.953125 304.570312 526.285156 310.855469 C 527.238281 317.523438 527.714844 323.808594 527.714844 329.714844 C 527.714844 356.191406 520.191406 380.523438 505.144531 402.714844 C 490.09375 424.90625 470.285156 444.09375 445.714844 460.285156 C 419.046875 477.808594 389.191406 490.808594 356.144531 499.285156 C 323.09375 507.761719 289.332031 512 254.855469 512 C 220.382812 512 186.570312 507.761719 153.429688 499.285156 C 120.285156 490.808594 90.382812 477.808594 63.714844 460.285156 C 39.144531 444.09375 19.332031 424.90625 4.285156 402.714844 C -10.761719 380.523438 -18.285156 356.191406 -18.285156 329.714844 C -18.285156 322.855469 -17.714844 316.09375 -16.570312 309.429688 C -26.667969 303.144531 -34.617188 294.714844 -40.429688 284.144531 C -46.238281 273.570312 -49.144531 262.285156 -49.144531 250.285156 C -49.144531 231.238281 -42.382812 214.90625 -28.855469 201.285156 C -15.332031 187.667969 1.046875 180.855469 20.285156 180.855469 C 37.617188 180.855469 52.761719 186.570312 65.714844 198 C 116.191406 165.617188 176.953125 148.761719 248 147.429688 L 289.144531 17.144531 C 291.046875 11.617188 294.855469 8.855469 300.570312 8.855469 C 305.144531 8.855469 341.714844 17.429688 410.285156 34.570312 C 414.855469 24.09375 421.90625 15.714844 431.429688 9.429688 C 440.953125 3.144531 451.429688 0 462.855469 0 C 478.476562 0 491.90625 5.617188 503.144531 16.855469 C 514.382812 28.09375 520 41.617188 520 57.429688 C 520 73.238281 514.382812 86.714844 503.144531 97.855469 C 491.90625 109 478.476562 114.570312 462.855469 114.570312 C 447.046875 114.570312 433.570312 109 422.429688 97.855469 C 411.285156 86.714844 405.617188 73.332031 405.429688 57.714844 L 308.570312 34.855469 L 272.855469 147.714844 C 339.332031 150.570312 396.761719 167.617188 445.144531 198.855469 C 458.667969 186.855469 474.191406 180.855469 491.714844 180.855469 C 510.953125 180.855469 527.332031 187.667969 540.855469 201.285156 C 554.382812 214.90625 561.144531 231.238281 561.144531 250.285156 Z M 561.144531 250.285156 "/>
  </g>
</svg>