<?xml version="1.0" encoding="UTF-8" standalone="yes"?>
<svg version="1.1" xmlns="http://www.w3.org/2000/svg" xmlns:xlink="http://www.w3.org/1999/xlink" x="0px" y="0px" viewBox="0 0 512 512" enable-background="new 0 0 512 512" xml:space="preserve">
  <g id="bounds" display="none"><rect display="inline" fill="none" width="512" height="512"/></g><g id="Layer_2">
    <path style=" stroke:none;fill-rule:nonzero;fill:rgb(0%,0%,0%);fill-opacity:1;" d="M 371.714844 303.714844 C 371.714844 294.191406 369.855469 285.476562 366.144531 277.570312 C 362.429688 269.667969 357.808594 263.144531 352.285156 258 C 346.761719 252.855469 339.808594 248.191406 331.429688 244 C 323.046875 239.808594 315.191406 236.570312 307.855469 234.285156 C 300.523438 232 292.191406 229.808594 282.855469 227.714844 L 253.144531 220.855469 C 247.429688 219.523438 243.238281 218.523438 240.570312 217.855469 C 237.90625 217.191406 234.570312 216.09375 230.570312 214.570312 C 226.570312 213.046875 223.714844 211.523438 222 210 C 220.285156 208.476562 218.714844 206.476562 217.285156 204 C 215.855469 201.523438 215.144531 198.667969 215.144531 195.429688 C 215.144531 180.761719 228.855469 173.429688 256.285156 173.429688 C 264.476562 173.429688 271.808594 174.570312 278.285156 176.855469 C 284.761719 179.144531 289.90625 181.855469 293.714844 185 C 297.523438 188.144531 301.144531 191.332031 304.570312 194.570312 C 308 197.808594 311.808594 200.570312 316 202.855469 C 320.191406 205.144531 324.761719 206.285156 329.714844 206.285156 C 338.667969 206.285156 345.855469 203.238281 351.285156 197.144531 C 356.714844 191.046875 359.429688 183.714844 359.429688 175.144531 C 359.429688 164.667969 354.09375 155.191406 343.429688 146.714844 C 332.761719 138.238281 319.238281 131.808594 302.855469 127.429688 C 286.476562 123.046875 269.144531 120.855469 250.855469 120.855469 C 237.90625 120.855469 225.332031 122.332031 213.144531 125.285156 C 200.953125 128.238281 189.570312 132.714844 179 138.714844 C 168.429688 144.714844 159.953125 153 153.570312 163.570312 C 147.191406 174.144531 144 186.382812 144 200.285156 C 144 211.90625 145.808594 222.046875 149.429688 230.714844 C 153.046875 239.382812 158.382812 246.570312 165.429688 252.285156 C 172.476562 258 180.09375 262.617188 188.285156 266.144531 C 196.476562 269.667969 206.285156 272.761719 217.714844 275.429688 L 259.429688 285.714844 C 276.570312 289.90625 287.238281 293.332031 291.429688 296 C 297.523438 299.808594 300.570312 305.523438 300.570312 313.144531 C 300.570312 320.570312 296.761719 326.714844 289.144531 331.570312 C 281.523438 336.429688 271.523438 338.855469 259.144531 338.855469 C 249.429688 338.855469 240.714844 337.332031 233 334.285156 C 225.285156 331.238281 219.09375 327.570312 214.429688 323.285156 C 209.761719 319 205.429688 314.714844 201.429688 310.429688 C 197.429688 306.144531 193.046875 302.476562 188.285156 299.429688 C 183.523438 296.382812 178.382812 294.855469 172.855469 294.855469 C 163.332031 294.855469 156.144531 297.714844 151.285156 303.429688 C 146.429688 309.144531 144 316.285156 144 324.855469 C 144 342.382812 155.617188 357.382812 178.855469 369.855469 C 202.09375 382.332031 229.808594 388.570312 262 388.570312 C 275.90625 388.570312 289.238281 386.808594 302 383.285156 C 314.761719 379.761719 326.429688 374.667969 337 368 C 347.570312 361.332031 356 352.429688 362.285156 341.285156 C 368.570312 330.144531 371.714844 317.617188 371.714844 303.714844 Z M 475.429688 365.714844 C 475.429688 396 464.714844 421.855469 443.285156 443.285156 C 421.855469 464.714844 396 475.429688 365.714844 475.429688 C 340.953125 475.429688 318.667969 467.808594 298.855469 452.570312 C 284.191406 455.617188 269.90625 457.144531 256 457.144531 C 228.761719 457.144531 202.714844 451.855469 177.855469 441.285156 C 153 430.714844 131.570312 416.429688 113.570312 398.429688 C 95.570312 380.429688 81.285156 359 70.714844 334.144531 C 60.144531 309.285156 54.855469 283.238281 54.855469 256 C 54.855469 242.09375 56.382812 227.808594 59.429688 213.144531 C 44.191406 193.332031 36.570312 171.046875 36.570312 146.285156 C 36.570312 116 47.285156 90.144531 68.714844 68.714844 C 90.144531 47.285156 116 36.570312 146.285156 36.570312 C 171.046875 36.570312 193.332031 44.191406 213.144531 59.429688 C 227.808594 56.382812 242.09375 54.855469 256 54.855469 C 283.238281 54.855469 309.285156 60.144531 334.144531 70.714844 C 359 81.285156 380.429688 95.570312 398.429688 113.570312 C 416.429688 131.570312 430.714844 153 441.285156 177.855469 C 451.855469 202.714844 457.144531 228.761719 457.144531 256 C 457.144531 269.90625 455.617188 284.191406 452.570312 298.855469 C 467.808594 318.667969 475.429688 340.953125 475.429688 365.714844 Z M 475.429688 365.714844 "/>
  </g>
</svg>