<?xml version="1.0" encoding="UTF-8" standalone="yes"?>
<svg version="1.1" xmlns="http://www.w3.org/2000/svg" xmlns:xlink="http://www.w3.org/1999/xlink" x="0px" y="0px" viewBox="0 0 512 512" enable-background="new 0 0 512 512" xml:space="preserve">
  <g id="bounds" display="none"><rect display="inline" fill="none" width="512" height="512"/></g><g id="Layer_2">
    <path style=" stroke:none;fill-rule:nonzero;fill:rgb(0%,0%,0%);fill-opacity:1;" d="M 452.285156 221.714844 C 464.09375 221.714844 473.953125 225.570312 481.855469 233.285156 C 489.761719 241 493.714844 250.667969 493.714844 262.285156 C 493.714844 280.761719 484.855469 293.144531 467.144531 299.429688 L 418 316.285156 L 434 364 C 435.332031 368 436 372.476562 436 377.429688 C 436 388.667969 432 398.382812 424 406.570312 C 416 414.761719 406.382812 418.855469 395.144531 418.855469 C 386.191406 418.855469 378.046875 416.285156 370.714844 411.144531 C 363.382812 406 358.285156 399.144531 355.429688 390.570312 L 339.714844 343.429688 L 251.144531 373.714844 L 266.855469 420.570312 C 268.382812 425.144531 269.144531 429.617188 269.144531 434 C 269.144531 445.238281 265.144531 454.953125 257.144531 463.144531 C 249.144531 471.332031 239.429688 475.429688 228 475.429688 C 219.046875 475.429688 210.953125 472.855469 203.714844 467.714844 C 196.476562 462.570312 191.429688 455.714844 188.570312 447.144531 L 172.855469 400.570312 L 129.144531 415.714844 C 123.617188 417.429688 118.855469 418.285156 114.855469 418.285156 C 103.238281 418.285156 93.570312 414.476562 85.855469 406.855469 C 78.144531 399.238281 74.285156 389.617188 74.285156 378 C 74.285156 369.046875 76.90625 360.953125 82.144531 353.714844 C 87.382812 346.476562 94.191406 341.429688 102.570312 338.570312 L 147.144531 323.429688 L 117.144531 234 L 72.570312 249.429688 C 67.617188 250.953125 63.046875 251.714844 58.855469 251.714844 C 47.429688 251.714844 37.808594 247.855469 30 240.144531 C 22.191406 232.429688 18.285156 222.855469 18.285156 211.429688 C 18.285156 202.476562 20.90625 194.382812 26.144531 187.144531 C 31.382812 179.90625 38.191406 174.855469 46.570312 172 L 91.429688 156.855469 L 76.285156 111.429688 C 74.761719 106.855469 74 102.382812 74 98 C 74 86.570312 78 76.808594 86 68.714844 C 94 60.617188 103.714844 56.570312 115.144531 56.570312 C 124.09375 56.570312 132.191406 59.144531 139.429688 64.285156 C 146.667969 69.429688 151.714844 76.285156 154.570312 84.855469 L 170 130.570312 L 258.570312 100.570312 L 243.144531 54.855469 C 241.617188 50.285156 240.855469 45.808594 240.855469 41.429688 C 240.855469 30.191406 244.90625 20.476562 253 12.285156 C 261.09375 4.09375 270.761719 0 282 0 C 290.953125 0 299.09375 2.617188 306.429688 7.855469 C 313.761719 13.09375 318.855469 19.90625 321.714844 28.285156 L 336.855469 74.285156 L 383.144531 58.570312 C 387.144531 57.429688 391.238281 56.855469 395.429688 56.855469 C 406.855469 56.855469 416.617188 60.617188 424.714844 68.144531 C 432.808594 75.667969 436.855469 85.046875 436.855469 96.285156 C 436.855469 104.855469 434 112.617188 428.285156 119.570312 C 422.570312 126.523438 415.523438 131.429688 407.144531 134.285156 L 362.285156 149.714844 L 392.285156 240 L 439.144531 224 C 443.714844 222.476562 448.09375 221.714844 452.285156 221.714844 Z M 225.429688 296.570312 L 314 266.570312 L 284 176.570312 L 195.429688 207.144531 Z M 225.429688 296.570312 "/>
  </g>
</svg>