<?xml version="1.0" encoding="UTF-8" standalone="yes"?>
<svg version="1.1" xmlns="http://www.w3.org/2000/svg" xmlns:xlink="http://www.w3.org/1999/xlink" x="0px" y="0px" viewBox="0 0 512 512" enable-background="new 0 0 512 512" xml:space="preserve">
  <g id="bounds" display="none"><rect display="inline" fill="none" width="512" height="512"/></g><g id="Layer_2">
    <path style=" stroke:none;fill-rule:nonzero;fill:rgb(0%,0%,0%);fill-opacity:1;" d="M 249.429688 211.429688 C 249.429688 227.238281 243.382812 240.808594 231.285156 252.144531 C 219.191406 263.476562 204.667969 269.144531 187.714844 269.144531 C 170.761719 269.144531 156.238281 263.476562 144.144531 252.144531 C 132.046875 240.808594 126 227.238281 126 211.429688 C 126 195.429688 132.046875 181.808594 144.144531 170.570312 C 156.238281 159.332031 170.761719 153.714844 187.714844 153.714844 C 204.667969 153.714844 219.191406 159.332031 231.285156 170.570312 C 243.382812 181.808594 249.429688 195.429688 249.429688 211.429688 Z M 392.855469 211.429688 C 392.855469 227.238281 386.855469 240.808594 374.855469 252.144531 C 362.855469 263.476562 348.285156 269.144531 331.144531 269.144531 C 314.191406 269.144531 299.667969 263.476562 287.570312 252.144531 C 275.476562 240.808594 269.429688 227.238281 269.429688 211.429688 C 269.429688 195.429688 275.476562 181.808594 287.570312 170.570312 C 299.667969 159.332031 314.191406 153.714844 331.144531 153.714844 C 348.285156 153.714844 362.855469 159.332031 374.855469 170.570312 C 386.855469 181.808594 392.855469 195.429688 392.855469 211.429688 Z M 457.144531 262.855469 L 457.144531 72.285156 C 457.144531 55.714844 454.09375 43.953125 448 37 C 441.90625 30.046875 431.332031 26.570312 416.285156 26.570312 L 98.570312 26.570312 C 82.761719 26.570312 72.046875 29.808594 66.429688 36.285156 C 60.808594 42.761719 58 54.761719 58 72.285156 L 58 264.570312 C 66.191406 268.953125 74.617188 272.761719 83.285156 276 C 91.953125 279.238281 99.667969 281.90625 106.429688 284 C 113.191406 286.09375 120.90625 287.855469 129.570312 289.285156 C 138.238281 290.714844 145 291.761719 149.855469 292.429688 C 154.714844 293.09375 161.382812 293.476562 169.855469 293.570312 C 178.332031 293.667969 183.90625 294.144531 186.570312 295 C 189.238281 295.855469 194.617188 295.667969 202.714844 294.429688 C 210.808594 293.191406 215.046875 293 215.429688 293.855469 C 228.382812 293.667969 237.429688 296.238281 242.570312 301.570312 C 243.714844 302.714844 244.667969 303.570312 245.429688 304.144531 C 250.382812 308.90625 256.191406 313.761719 262.855469 318.714844 C 264.191406 301.382812 275.429688 293.09375 296.570312 293.855469 C 297.523438 293.855469 301 294 307 294.285156 C 313 294.570312 317.09375 294.761719 319.285156 294.855469 C 321.476562 294.953125 325.808594 295.046875 332.285156 295.144531 C 338.761719 295.238281 343.808594 295.144531 347.429688 294.855469 C 351.046875 294.570312 356.238281 294.144531 363 293.570312 C 369.761719 293 375.570312 292.191406 380.429688 291.144531 C 385.285156 290.09375 391.191406 288.808594 398.144531 287.285156 C 405.09375 285.761719 411.476562 283.90625 417.285156 281.714844 C 423.09375 279.523438 429.523438 276.953125 436.570312 274 C 443.617188 271.046875 450.476562 267.761719 457.144531 264.144531 Z M 503.714844 261.429688 C 480.667969 289.808594 445.238281 313.808594 397.429688 333.429688 C 413.429688 387.714844 411.238281 432 390.855469 466.285156 C 378.285156 487.808594 360.855469 501.90625 338.570312 508.570312 C 318.761719 514.667969 301.429688 513.238281 286.570312 504.285156 C 270.191406 494.570312 262.382812 478.953125 263.144531 457.429688 L 262.855469 364.285156 L 262.855469 364 C 261.332031 363.617188 259 363.046875 255.855469 362.285156 C 252.714844 361.523438 250.476562 361.046875 249.144531 360.855469 L 248.855469 457.429688 C 249.617188 479.144531 241.714844 494.761719 225.144531 504.285156 C 210.09375 513.238281 192.667969 514.667969 172.855469 508.570312 C 150.570312 501.714844 133.238281 487.429688 120.855469 465.714844 C 100.855469 431.429688 98.761719 387.332031 114.570312 333.429688 C 66.761719 313.808594 31.332031 289.808594 8.285156 261.429688 C 3.523438 254.382812 3.144531 248.382812 7.144531 243.429688 C 11.144531 238.476562 16.855469 238.570312 24.285156 243.714844 C 24.855469 244.09375 25.90625 244.761719 27.429688 245.714844 C 28.953125 246.667969 30 247.429688 30.570312 248 L 30.570312 49.714844 C 30.570312 36 35.046875 24.285156 44 14.570312 C 52.953125 4.855469 63.808594 0 76.570312 0 L 435.714844 0 C 448.476562 0 459.332031 4.855469 468.285156 14.570312 C 477.238281 24.285156 481.714844 36 481.714844 49.714844 L 481.714844 248 L 487.714844 243.714844 C 495.144531 238.570312 500.855469 238.476562 504.855469 243.429688 C 508.855469 248.382812 508.476562 254.382812 503.714844 261.429688 Z M 503.714844 261.429688 "/>
  </g>
</svg>