<?xml version="1.0" encoding="UTF-8" standalone="yes"?>
<svg version="1.1" xmlns="http://www.w3.org/2000/svg" xmlns:xlink="http://www.w3.org/1999/xlink" x="0px" y="0px" viewBox="0 0 512 512" enable-background="new 0 0 512 512" xml:space="preserve">
  <g id="bounds" display="none"><rect display="inline" fill="none" width="512" height="512"/></g><g id="Layer_2">
    <path style=" stroke:none;fill-rule:nonzero;fill:rgb(0%,0%,0%);fill-opacity:1;" d="M 320 400.285156 L 320 443.429688 L 118 443.714844 L 118 400.570312 Z M 388.855469 301.429688 L 388.855469 501.714844 L 388.570312 511.714844 L 388.570312 512 L 65.144531 512 L 55.144531 511.714844 L 54.855469 511.714844 L 54.855469 301.429688 L 89.429688 301.429688 L 89.429688 478 L 354.570312 478 L 354.570312 301.429688 Z M 123.714844 326.570312 L 324.855469 345.144531 L 321.144531 388 L 119.714844 369.429688 Z M 143.144531 236.285156 L 338.285156 288.570312 L 327.144531 330.285156 L 132 278 Z M 189.714844 136.570312 L 363.714844 239.429688 L 341.714844 276.570312 L 167.714844 173.714844 Z M 292.570312 42 L 406.285156 209.144531 L 370.855469 233.429688 L 256.855469 66.570312 Z M 422 0 L 456.570312 199.144531 L 414 206.570312 L 379.429688 7.429688 Z M 422 0 "/>
  </g>
</svg>