<?xml version="1.0" encoding="UTF-8" standalone="yes"?>
<svg version="1.1" xmlns="http://www.w3.org/2000/svg" xmlns:xlink="http://www.w3.org/1999/xlink" x="0px" y="0px" viewBox="0 0 512 512" enable-background="new 0 0 512 512" xml:space="preserve">
  <g id="bounds" display="none"><rect display="inline" fill="none" width="512" height="512"/></g><g id="Layer_2">
    <path style=" stroke:none;fill-rule:nonzero;fill:rgb(0%,0%,0%);fill-opacity:1;" d="M 432.855469 358 L 432.855469 376.855469 C 432.855469 393.046875 427.382812 406.808594 416.429688 418.144531 C 405.476562 429.476562 392.285156 435.144531 376.855469 435.144531 L 360.570312 435.144531 L 286.285156 512 L 286.285156 435.144531 L 135.144531 435.144531 C 119.714844 435.144531 106.523438 429.476562 95.570312 418.144531 C 84.617188 406.808594 79.144531 393.046875 79.144531 376.855469 L 79.144531 358 Z M 432.855469 264.855469 L 432.855469 337.714844 L 79.144531 337.714844 L 79.144531 264.855469 Z M 432.855469 171.144531 L 432.855469 244 L 79.144531 244 L 79.144531 171.144531 Z M 432.855469 131.144531 L 432.855469 150.285156 L 79.144531 150.285156 L 79.144531 131.144531 C 79.144531 115.144531 84.617188 101.476562 95.570312 90.144531 C 106.523438 78.808594 119.714844 73.144531 135.144531 73.144531 L 376.855469 73.144531 C 392.285156 73.144531 405.476562 78.808594 416.429688 90.144531 C 427.382812 101.476562 432.855469 115.144531 432.855469 131.144531 Z M 432.855469 131.144531 "/>
  </g>
</svg>