<?xml version="1.0" encoding="UTF-8" standalone="yes"?>
<svg version="1.1" xmlns="http://www.w3.org/2000/svg" xmlns:xlink="http://www.w3.org/1999/xlink" x="0px" y="0px" viewBox="0 0 512 512" enable-background="new 0 0 512 512" xml:space="preserve">
  <g id="bounds" display="none"><rect display="inline" fill="none" width="512" height="512"/></g><g id="Layer_2">
    <path style=" stroke:none;fill-rule:nonzero;fill:rgb(0%,0%,0%);fill-opacity:1;" d="M 379.429688 379.714844 L 402.285156 447.429688 C 397.90625 454.09375 387.332031 460.382812 370.570312 466.285156 C 353.808594 472.191406 336.953125 475.238281 320 475.429688 C 300.191406 475.808594 282.046875 473.332031 265.570312 468 C 249.09375 462.667969 235.523438 455.617188 224.855469 446.855469 C 214.191406 438.09375 205.144531 428 197.714844 416.570312 C 190.285156 405.144531 185 393.714844 181.855469 382.285156 C 178.714844 370.855469 177.144531 359.617188 177.144531 348.570312 L 177.144531 193.144531 L 129.144531 193.144531 L 129.144531 131.714844 C 142.855469 126.761719 155.144531 120.144531 166 111.855469 C 176.855469 103.570312 185.523438 95 192 86.144531 C 198.476562 77.285156 204 67.570312 208.570312 57 C 213.144531 46.429688 216.382812 37 218.285156 28.714844 C 220.191406 20.429688 221.617188 12 222.570312 3.429688 C 222.761719 2.476562 223.191406 1.667969 223.855469 1 C 224.523438 0.332031 225.238281 0 226 0 L 295.714844 0 L 295.714844 121.144531 L 390.855469 121.144531 L 390.855469 193.144531 L 295.429688 193.144531 L 295.429688 341.144531 C 295.429688 346.855469 296.046875 352.191406 297.285156 357.144531 C 298.523438 362.09375 300.667969 367.09375 303.714844 372.144531 C 306.761719 377.191406 311.476562 381.144531 317.855469 384 C 324.238281 386.855469 332 388.191406 341.144531 388 C 356 387.617188 368.761719 384.855469 379.429688 379.714844 Z M 379.429688 379.714844 "/>
  </g>
</svg>