<?xml version="1.0" encoding="UTF-8" standalone="yes"?>
<svg version="1.1" xmlns="http://www.w3.org/2000/svg" xmlns:xlink="http://www.w3.org/1999/xlink" x="0px" y="0px" viewBox="0 0 512 512" enable-background="new 0 0 512 512" xml:space="preserve">
  <g id="bounds" display="none"><rect display="inline" fill="none" width="512" height="512"/></g><g id="Layer_2">
    <path style=" stroke:none;fill-rule:nonzero;fill:rgb(0%,0%,0%);fill-opacity:1;" d="M 481.144531 116.570312 C 468.382812 135.238281 452.953125 151.144531 434.855469 164.285156 C 435.046875 166.953125 435.144531 170.953125 435.144531 176.285156 C 435.144531 201.046875 431.523438 225.761719 424.285156 250.429688 C 417.046875 275.09375 406.046875 298.761719 391.285156 321.429688 C 376.523438 344.09375 358.953125 364.144531 338.570312 381.570312 C 318.191406 399 293.617188 412.90625 264.855469 423.285156 C 236.09375 433.667969 205.332031 438.855469 172.570312 438.855469 C 120.953125 438.855469 73.714844 425.046875 30.855469 397.429688 C 37.523438 398.191406 44.953125 398.570312 53.144531 398.570312 C 96 398.570312 134.191406 385.429688 167.714844 359.144531 C 147.714844 358.761719 129.808594 352.617188 114 340.714844 C 98.191406 328.808594 87.332031 313.617188 81.429688 295.144531 C 87.714844 296.09375 93.523438 296.570312 98.855469 296.570312 C 107.046875 296.570312 115.144531 295.523438 123.144531 293.429688 C 101.808594 289.046875 84.144531 278.429688 70.144531 261.570312 C 56.144531 244.714844 49.144531 225.144531 49.144531 202.855469 L 49.144531 201.714844 C 62.09375 208.953125 76 212.855469 90.855469 213.429688 C 78.285156 205.046875 68.285156 194.09375 60.855469 180.570312 C 53.429688 167.046875 49.714844 152.382812 49.714844 136.570312 C 49.714844 119.808594 53.90625 104.285156 62.285156 90 C 85.332031 118.382812 113.382812 141.09375 146.429688 158.144531 C 179.476562 175.191406 214.855469 184.667969 252.570312 186.570312 C 251.046875 179.332031 250.285156 172.285156 250.285156 165.429688 C 250.285156 139.90625 259.285156 118.144531 277.285156 100.144531 C 295.285156 82.144531 317.046875 73.144531 342.570312 73.144531 C 369.238281 73.144531 391.714844 82.855469 410 102.285156 C 430.761719 98.285156 450.285156 90.855469 468.570312 80 C 461.523438 101.90625 448 118.855469 428 130.855469 C 445.714844 128.953125 463.429688 124.191406 481.144531 116.570312 Z M 481.144531 116.570312 "/>
  </g>
</svg>