<?xml version="1.0" encoding="UTF-8" standalone="yes"?>
<svg version="1.1" xmlns="http://www.w3.org/2000/svg" xmlns:xlink="http://www.w3.org/1999/xlink" x="0px" y="0px" viewBox="0 0 512 512" enable-background="new 0 0 512 512" xml:space="preserve">
  <g id="bounds" display="none"><rect display="inline" fill="none" width="512" height="512"/></g><g id="Layer_2">
    <path style=" stroke:none;fill-rule:nonzero;fill:rgb(0%,0%,0%);fill-opacity:1;" d="M 464.285156 236.285156 L 464.285156 292.855469 C 445.046875 297.238281 426.191406 299.429688 407.714844 299.429688 C 395.332031 325.332031 379.570312 351.144531 360.429688 376.855469 C 341.285156 402.570312 324 423.09375 308.570312 438.429688 C 293.144531 453.761719 280.953125 463.90625 272 468.855469 C 256.761719 477.429688 241.332031 477.144531 225.714844 468 C 220.382812 464.761719 214.617188 460.617188 208.429688 455.570312 C 202.238281 450.523438 194.144531 442.570312 184.144531 431.714844 C 174.144531 420.855469 164.382812 408.617188 154.855469 395 C 145.332031 381.382812 135.09375 363.855469 124.144531 342.429688 C 113.191406 321 103.144531 297.761719 94 272.714844 C 84.855469 247.667969 76.144531 217.714844 67.855469 182.855469 C 59.570312 148 52.855469 110.855469 47.714844 71.429688 L 128.570312 71.429688 C 133.523438 112.953125 140.191406 150.90625 148.570312 185.285156 C 156.953125 219.667969 166.90625 249.855469 178.429688 275.855469 C 189.953125 301.855469 201.523438 324.285156 213.144531 343.144531 C 224.761719 362 238.09375 380.570312 253.144531 398.855469 C 285.332031 366.667969 312.667969 328 335.144531 282.855469 C 308.09375 269.144531 286.855469 248.191406 271.429688 220 C 256 191.808594 248.285156 160.09375 248.285156 124.855469 C 248.285156 88.285156 258.191406 58.332031 278 35 C 297.808594 11.667969 324.855469 0 359.144531 0 C 393.046875 0 419.046875 10.046875 437.144531 30.144531 C 455.238281 50.238281 464.285156 78.570312 464.285156 115.144531 C 464.285156 145.429688 458.761719 172.667969 447.714844 196.855469 C 446.382812 197.046875 444.523438 197.332031 442.144531 197.714844 C 439.761719 198.09375 435.382812 198.285156 429 198.285156 C 422.617188 198.285156 416.617188 197.714844 411 196.570312 C 405.382812 195.429688 399.476562 193 393.285156 189.285156 C 387.09375 185.570312 382.285156 180.667969 378.855469 174.570312 C 384.761719 154.953125 387.714844 137.429688 387.714844 122 C 387.714844 105.429688 384.953125 92.855469 379.429688 84.285156 C 373.90625 75.714844 366.382812 71.429688 356.855469 71.429688 C 346.761719 71.429688 338.667969 76.144531 332.570312 85.570312 C 326.476562 95 323.429688 108.382812 323.429688 125.714844 C 323.429688 161.144531 333.429688 189.09375 353.429688 209.570312 C 373.429688 230.046875 398.855469 240.285156 429.714844 240.285156 C 441.523438 240.285156 453.046875 238.953125 464.285156 236.285156 Z M 464.285156 236.285156 "/>
  </g>
</svg>