<?xml version="1.0" encoding="UTF-8" standalone="yes"?>
<svg version="1.1" xmlns="http://www.w3.org/2000/svg" xmlns:xlink="http://www.w3.org/1999/xlink" x="0px" y="0px" viewBox="0 0 512 512" enable-background="new 0 0 512 512" xml:space="preserve">
  <g id="bounds" display="none"><rect display="inline" fill="none" width="512" height="512"/></g><g id="Layer_2">
    <path style=" stroke:none;fill-rule:nonzero;fill:rgb(0%,0%,0%);fill-opacity:1;" d="M 36.285156 256 C 36.285156 224.953125 42.667969 195.144531 55.429688 166.570312 L 160.285156 453.714844 C 122.953125 435.617188 92.953125 408.855469 70.285156 373.429688 C 47.617188 338 36.285156 298.855469 36.285156 256 Z M 404.285156 244.855469 C 404.285156 248.476562 404.046875 252.144531 403.570312 255.855469 C 403.09375 259.570312 402.144531 264.285156 400.714844 270 C 399.285156 275.714844 398.191406 279.90625 397.429688 282.570312 C 396.667969 285.238281 395 290.855469 392.429688 299.429688 C 389.855469 308 388.191406 313.523438 387.429688 316 L 365.714844 389.144531 L 286.285156 153.144531 C 295.046875 152.570312 303.429688 151.808594 311.429688 150.855469 C 315.046875 150.476562 317.523438 148.714844 318.855469 145.570312 C 320.191406 142.429688 319.953125 139.476562 318.144531 136.714844 C 316.332031 133.953125 313.617188 132.667969 310 132.855469 L 251.429688 135.714844 C 237.144531 135.523438 217.90625 134.570312 193.714844 132.855469 C 191.429688 132.667969 189.476562 133.144531 187.855469 134.285156 C 186.238281 135.429688 185.144531 136.855469 184.570312 138.570312 C 184 140.285156 183.855469 142.046875 184.144531 143.855469 C 184.429688 145.667969 185.285156 147.238281 186.714844 148.570312 C 188.144531 149.90625 190 150.667969 192.285156 150.855469 L 215.144531 153.144531 L 249.429688 246.855469 L 201.429688 390.855469 L 121.429688 153.144531 C 130.191406 152.570312 138.570312 151.808594 146.570312 150.855469 C 150.191406 150.476562 152.667969 148.714844 154 145.570312 C 155.332031 142.429688 155.09375 139.476562 153.285156 136.714844 C 151.476562 133.953125 148.761719 132.667969 145.144531 132.855469 L 86.570312 135.714844 C 85.238281 135.714844 83.046875 135.667969 80 135.570312 C 76.953125 135.476562 74.476562 135.429688 72.570312 135.429688 C 92.570312 104.953125 118.714844 80.808594 151 63 C 183.285156 45.191406 218.285156 36.285156 256 36.285156 C 284 36.285156 310.714844 41.332031 336.144531 51.429688 C 361.570312 61.523438 384.285156 75.714844 404.285156 94 L 401.429688 94 C 390.953125 94 382.191406 97.855469 375.144531 105.570312 C 368.09375 113.285156 364.570312 122.382812 364.570312 132.855469 C 364.570312 135.144531 364.761719 137.429688 365.144531 139.714844 C 365.523438 142 365.90625 144.046875 366.285156 145.855469 C 366.667969 147.667969 367.429688 149.855469 368.570312 152.429688 C 369.714844 155 370.570312 157 371.144531 158.429688 C 371.714844 159.855469 372.855469 162 374.570312 164.855469 C 376.285156 167.714844 377.476562 169.714844 378.144531 170.855469 C 378.808594 172 380.191406 174.285156 382.285156 177.714844 C 384.382812 181.144531 385.714844 183.332031 386.285156 184.285156 C 398.285156 204.667969 404.285156 224.855469 404.285156 244.855469 Z M 259.714844 275.144531 L 327.429688 460 C 327.617188 461.144531 328.09375 462.191406 328.855469 463.144531 C 304.855469 471.523438 280.570312 475.714844 256 475.714844 C 234.667969 475.714844 214 472.667969 194 466.570312 Z M 448.570312 150.570312 C 466.667969 183.714844 475.714844 218.855469 475.714844 256 C 475.714844 295.808594 465.808594 332.523438 446 366.144531 C 426.191406 399.761719 399.617188 426.285156 366.285156 445.714844 L 433.429688 252 C 444.667969 219.808594 450.285156 193.523438 450.285156 173.144531 C 450.285156 165.144531 449.714844 157.617188 448.570312 150.570312 Z M 256 0 C 290.667969 0 323.808594 6.761719 355.429688 20.285156 C 387.046875 33.808594 414.285156 52 437.144531 74.855469 C 460 97.714844 478.191406 124.953125 491.714844 156.570312 C 505.238281 188.191406 512 221.332031 512 256 C 512 290.667969 505.238281 323.808594 491.714844 355.429688 C 478.191406 387.046875 460 414.285156 437.144531 437.144531 C 414.285156 460 387.046875 478.191406 355.429688 491.714844 C 323.808594 505.238281 290.667969 512 256 512 C 221.332031 512 188.191406 505.238281 156.570312 491.714844 C 124.953125 478.191406 97.714844 460 74.855469 437.144531 C 52 414.285156 33.808594 387.046875 20.285156 355.429688 C 6.761719 323.808594 0 290.667969 0 256 C 0 221.332031 6.761719 188.191406 20.285156 156.570312 C 33.808594 124.953125 52 97.714844 74.855469 74.855469 C 97.714844 52 124.953125 33.808594 156.570312 20.285156 C 188.191406 6.761719 221.332031 0 256 0 Z M 256 500.285156 C 288.953125 500.285156 320.523438 493.808594 350.714844 480.855469 C 380.90625 467.90625 406.90625 450.523438 428.714844 428.714844 C 450.523438 406.90625 467.90625 380.90625 480.855469 350.714844 C 493.808594 320.523438 500.285156 288.953125 500.285156 256 C 500.285156 223.046875 493.808594 191.476562 480.855469 161.285156 C 467.90625 131.09375 450.523438 105.09375 428.714844 83.285156 C 406.90625 61.476562 380.90625 44.09375 350.714844 31.144531 C 320.523438 18.191406 288.953125 11.714844 256 11.714844 C 223.046875 11.714844 191.476562 18.191406 161.285156 31.144531 C 131.09375 44.09375 105.09375 61.476562 83.285156 83.285156 C 61.476562 105.09375 44.09375 131.09375 31.144531 161.285156 C 18.191406 191.476562 11.714844 223.046875 11.714844 256 C 11.714844 288.953125 18.191406 320.523438 31.144531 350.714844 C 44.09375 380.90625 61.476562 406.90625 83.285156 428.714844 C 105.09375 450.523438 131.09375 467.90625 161.285156 480.855469 C 191.476562 493.808594 223.046875 500.285156 256 500.285156 Z M 256 500.285156 "/>
  </g>
</svg>