<?xml version="1.0" encoding="UTF-8" standalone="yes"?>
<svg version="1.1" xmlns="http://www.w3.org/2000/svg" xmlns:xlink="http://www.w3.org/1999/xlink" x="0px" y="0px" viewBox="0 0 512 512" enable-background="new 0 0 512 512" xml:space="preserve">
  <g id="bounds" display="none"><rect display="inline" fill="none" width="512" height="512"/></g><g id="Layer_2">
    <path style=" stroke:none;fill-rule:nonzero;fill:rgb(0%,0%,0%);fill-opacity:1;" d="M 257.429688 376.855469 L 257.429688 413.144531 C 257.238281 468.761719 256.667969 497.808594 255.714844 500.285156 C 253.429688 506.382812 248.570312 510.191406 241.144531 511.714844 C 230.855469 513.429688 213.570312 509.808594 189.285156 500.855469 C 165 491.90625 149.523438 483.429688 142.855469 475.429688 C 140.382812 472.570312 138.761719 469.144531 138 465.144531 C 137.808594 462.855469 138.191406 460.382812 139.144531 457.714844 C 139.90625 455.808594 143.144531 451.332031 148.855469 444.285156 C 154.570312 437.238281 171.808594 416.667969 200.570312 382.570312 C 200.761719 382.570312 206.476562 375.90625 217.714844 362.570312 C 220.570312 358.953125 224.332031 356.617188 229 355.570312 C 233.667969 354.523438 238.382812 354.855469 243.144531 356.570312 C 247.714844 358.476562 251.285156 361.238281 253.855469 364.855469 C 256.429688 368.476562 257.617188 372.476562 257.429688 376.855469 Z M 214.855469 305.144531 C 214.285156 315.617188 209.332031 322.285156 200 325.144531 L 165.714844 336.285156 C 113.332031 353.046875 85.523438 361.429688 82.285156 361.429688 C 75.617188 361.046875 70.476562 357.617188 66.855469 351.144531 C 64.570312 346.382812 62.953125 339.238281 62 329.714844 C 60.476562 315.238281 60.570312 299.382812 62.285156 282.144531 C 64 264.90625 66.855469 253.046875 70.855469 246.570312 C 74.855469 240.09375 80.191406 237.046875 86.855469 237.429688 C 89.332031 237.429688 108.570312 244.761719 144.570312 259.429688 C 157.90625 264.953125 168.855469 269.429688 177.429688 272.855469 L 201.429688 282.570312 C 205.808594 284.285156 209.191406 287.191406 211.570312 291.285156 C 213.953125 295.382812 215.046875 300 214.855469 305.144531 Z M 450.855469 390 C 449.523438 400.285156 440.808594 415.617188 424.714844 436 C 408.617188 456.382812 395.714844 468.476562 386 472.285156 C 378.953125 474.953125 372.953125 474.285156 368 470.285156 C 365.332031 468.382812 347.808594 441.046875 315.429688 388.285156 L 302 366.285156 C 299.332031 362.285156 298.238281 357.90625 298.714844 353.144531 C 299.191406 348.382812 301.046875 344 304.285156 340 C 310.953125 331.808594 318.855469 329.332031 328 332.570312 C 328.191406 332.761719 339.523438 336.570312 362 344 C 400.667969 356.570312 423.714844 364.144531 431.144531 366.714844 C 438.570312 369.285156 443.046875 371.238281 444.570312 372.570312 C 449.90625 376.761719 452 382.570312 450.855469 390 Z M 258.855469 209.429688 C 259.808594 228.855469 254.667969 240.476562 243.429688 244.285156 C 232.382812 247.523438 221.523438 240.761719 210.855469 224 L 102.855469 53.144531 C 101.332031 46.476562 103.144531 40.570312 108.285156 35.429688 C 116.09375 27.238281 135.855469 18.714844 167.570312 9.855469 C 199.285156 1 220.667969 -2 231.714844 0.855469 C 239.332031 2.761719 244 7.046875 245.714844 13.714844 C 246.285156 17.144531 248.382812 46.238281 252 101 C 255.617188 155.761719 257.90625 191.90625 258.855469 209.429688 Z M 448 240.285156 C 448.570312 247.714844 446.09375 253.332031 440.570312 257.144531 C 437.714844 259.046875 406.382812 267.238281 346.570312 281.714844 C 333.808594 284.570312 325.144531 286.761719 320.570312 288.285156 L 320.855469 287.714844 C 316.476562 288.855469 312.09375 288.476562 307.714844 286.570312 C 303.332031 284.667969 299.808594 281.617188 297.144531 277.429688 C 291.429688 268.476562 291.429688 260.191406 297.144531 252.570312 C 297.332031 252.382812 304.476562 242.667969 318.570312 223.429688 C 342.382812 190.855469 356.667969 171.429688 361.429688 165.144531 C 366.191406 158.855469 369.429688 155.144531 371.144531 154 C 376.476562 150.382812 382.667969 150.191406 389.714844 153.429688 C 398.855469 157.808594 410.570312 170.523438 424.855469 191.570312 C 439.144531 212.617188 446.855469 228.570312 448 239.429688 Z M 448 240.285156 "/>
  </g>
</svg>