<?xml version="1.0" encoding="UTF-8" standalone="yes"?>
<svg version="1.1" xmlns="http://www.w3.org/2000/svg" xmlns:xlink="http://www.w3.org/1999/xlink" x="0px" y="0px" viewBox="0 0 512 512" enable-background="new 0 0 512 512" xml:space="preserve">
  <g id="bounds" display="none"><rect display="inline" fill="none" width="512" height="512"/></g><g id="Layer_2">
    <path style=" stroke:none;fill-rule:nonzero;fill:rgb(0%,0%,0%);fill-opacity:1;" d="M 365.714844 256 C 365.714844 248.953125 362.855469 243.808594 357.144531 240.570312 L 210.855469 149.144531 C 204.953125 145.332031 198.761719 145.144531 192.285156 148.570312 C 186 152 182.855469 157.332031 182.855469 164.570312 L 182.855469 347.429688 C 182.855469 354.667969 186 360 192.285156 363.429688 C 195.332031 364.953125 198.285156 365.714844 201.144531 365.714844 C 204.953125 365.714844 208.191406 364.761719 210.855469 362.855469 L 357.144531 271.429688 C 362.855469 268.191406 365.714844 263.046875 365.714844 256 Z M 512 256 C 512 274.285156 511.90625 288.570312 511.714844 298.855469 C 511.523438 309.144531 510.714844 322.144531 509.285156 337.855469 C 507.855469 353.570312 505.714844 367.617188 502.855469 380 C 499.808594 393.90625 493.238281 405.617188 483.144531 415.144531 C 473.046875 424.667969 461.238281 430.191406 447.714844 431.714844 C 405.429688 436.476562 341.523438 438.855469 256 438.855469 C 170.476562 438.855469 106.570312 436.476562 64.285156 431.714844 C 50.761719 430.191406 38.90625 424.667969 28.714844 415.144531 C 18.523438 405.617188 11.90625 393.90625 8.855469 380 C 6.191406 367.617188 4.144531 353.570312 2.714844 337.855469 C 1.285156 322.144531 0.476562 309.144531 0.285156 298.855469 C 0.09375 288.570312 0 274.285156 0 256 C 0 237.714844 0.09375 223.429688 0.285156 213.144531 C 0.476562 202.855469 1.285156 189.855469 2.714844 174.144531 C 4.144531 158.429688 6.285156 144.382812 9.144531 132 C 12.191406 118.09375 18.761719 106.382812 28.855469 96.855469 C 38.953125 87.332031 50.761719 81.808594 64.285156 80.285156 C 106.570312 75.523438 170.476562 73.144531 256 73.144531 C 341.523438 73.144531 405.429688 75.523438 447.714844 80.285156 C 461.238281 81.808594 473.09375 87.332031 483.285156 96.855469 C 493.476562 106.382812 500.09375 118.09375 503.144531 132 C 505.808594 144.382812 507.855469 158.429688 509.285156 174.144531 C 510.714844 189.855469 511.523438 202.855469 511.714844 213.144531 C 511.90625 223.429688 512 237.714844 512 256 Z M 512 256 "/>
  </g>
</svg>